# Blender 5.1.1
# www.blender.org
mtllib cat.mtl.mtl
o Object_11
v 0.093185 0.029733 0.001347
v 0.104757 0.053362 0.009092
v 0.111769 0.021069 0.020691
v 0.116174 0.048040 0.020975
v 0.124703 0.024711 0.045471
v 0.124119 0.050277 0.036198
v 0.128521 0.039682 0.069048
v 0.126465 0.059474 0.050681
v 0.122199 0.061972 0.085105
v 0.122581 0.073167 0.060545
v 0.107433 0.085608 0.089338
v 0.113510 0.087686 0.063146
v 0.088178 0.104256 0.080615
v 0.101682 0.099142 0.057787
v 0.069593 0.112919 0.061271
v 0.090265 0.104464 0.045904
v 0.056659 0.109278 0.036491
v 0.082320 0.102227 0.030682
v 0.052841 0.094306 0.012914
v 0.079974 0.093029 0.016198
v 0.059163 0.072016 -0.003143
v 0.083858 0.079337 0.006334
v 0.073929 0.048381 -0.007376
v 0.092929 0.064817 0.003734
v 0.117262 0.033892 0.018519
v 0.100942 0.041500 0.001533
v 0.128620 0.037090 0.040279
v 0.131972 0.050238 0.060983
v 0.126421 0.069811 0.075083
v 0.113454 0.090566 0.078801
v 0.096546 0.106941 0.071140
v 0.080226 0.114549 0.054154
v 0.068869 0.111351 0.032394
v 0.065516 0.098204 0.011690
v 0.071067 0.078631 -0.002410
v 0.084034 0.057876 -0.006128
v 0.103309 0.076317 0.033384
v -0.093184 0.029733 0.001347
v -0.104757 0.053362 0.009092
v -0.111769 0.021069 0.020691
v -0.116174 0.048040 0.020975
v -0.124703 0.024711 0.045471
v -0.124119 0.050277 0.036198
v -0.128521 0.039683 0.069048
v -0.126465 0.059474 0.050681
v -0.122199 0.061972 0.085105
v -0.122581 0.073167 0.060545
v -0.107433 0.085608 0.089338
v -0.113510 0.087686 0.063146
v -0.088178 0.104256 0.080615
v -0.101682 0.099142 0.057787
v -0.069593 0.112920 0.061271
v -0.090265 0.104464 0.045904
v -0.056659 0.109278 0.036491
v -0.082320 0.102227 0.030682
v -0.052841 0.094306 0.012914
v -0.079974 0.093030 0.016198
v -0.059163 0.072016 -0.003143
v -0.083858 0.079337 0.006334
v -0.073929 0.048381 -0.007376
v -0.092929 0.064817 0.003734
v -0.117262 0.033893 0.018519
v -0.100942 0.041500 0.001533
v -0.128620 0.037091 0.040279
v -0.131972 0.050238 0.060983
v -0.126421 0.069811 0.075083
v -0.113454 0.090566 0.078801
v -0.096546 0.106941 0.071140
v -0.080226 0.114549 0.054154
v -0.068868 0.111351 0.032394
v -0.065516 0.098204 0.011690
v -0.071067 0.078631 -0.002410
v -0.084034 0.057876 -0.006128
v -0.103309 0.076318 0.033384
vn 0.4396 -0.2763 -0.8546
vn 0.5657 -0.0543 -0.8228
vn 0.7950 -0.1621 -0.5845
vn 0.7207 -0.4041 -0.5633
vn 0.9533 -0.1230 -0.2758
vn 0.9125 -0.3657 -0.1835
vn 0.9982 0.0551 0.0246
vn 0.9662 -0.1634 0.1996
vn 0.9146 0.3280 0.2367
vn 0.8570 0.1633 0.4888
vn 0.7217 0.6237 0.3003
vn 0.6009 0.5341 0.5947
vn 0.4712 0.8604 0.1942
vn 0.2639 0.8415 0.4715
vn 0.2331 0.9710 -0.0538
vn -0.0529 0.9877 0.1471
vn 0.0746 0.9245 -0.3739
vn -0.2511 0.9268 -0.2793
vn 0.0384 0.7361 -0.6758
vn -0.2755 0.6834 -0.6760
vn 0.1310 0.4603 -0.8780
vn -0.1305 0.3381 -0.9320
vn 0.8552 0.4016 -0.3276
vn 0.8413 0.3366 -0.4229
vn 0.7177 0.5294 -0.4524
vn 0.3240 0.1721 -0.9303
vn 0.1319 -0.0100 -0.9912
vn 0.7105 0.3580 -0.6058
vn 0.7878 0.3202 -0.5261
vn 0.8272 0.4941 -0.2674
vn 0.7679 0.5871 -0.2563
vn 0.6943 0.6571 -0.2936
vn 0.6248 0.6888 -0.3677
vn 0.5752 0.6758 -0.4609
vn 0.5575 0.6204 -0.5516
vn 0.5777 0.5341 -0.6172
vn 0.6331 0.4376 -0.6384
vn -0.4396 -0.2763 -0.8546
vn -0.7207 -0.4041 -0.5633
vn -0.7950 -0.1621 -0.5846
vn -0.5657 -0.0544 -0.8228
vn -0.9125 -0.3657 -0.1835
vn -0.9533 -0.1230 -0.2758
vn -0.9662 -0.1634 0.1996
vn -0.9982 0.0551 0.0246
vn -0.8570 0.1633 0.4888
vn -0.9146 0.3280 0.2367
vn -0.6009 0.5341 0.5947
vn -0.7217 0.6237 0.3003
vn -0.2639 0.8414 0.4715
vn -0.4712 0.8604 0.1942
vn 0.0529 0.9877 0.1471
vn -0.2331 0.9710 -0.0538
vn 0.2511 0.9268 -0.2793
vn -0.0746 0.9245 -0.3739
vn 0.2755 0.6834 -0.6760
vn -0.0384 0.7361 -0.6758
vn 0.1305 0.3381 -0.9320
vn -0.1310 0.4603 -0.8780
vn -0.8552 0.4016 -0.3276
vn -0.7177 0.5294 -0.4524
vn -0.8413 0.3366 -0.4229
vn -0.1319 -0.0101 -0.9912
vn -0.3240 0.1721 -0.9303
vn -0.7105 0.3580 -0.6058
vn -0.7878 0.3202 -0.5261
vn -0.8272 0.4941 -0.2674
vn -0.7679 0.5871 -0.2563
vn -0.6943 0.6571 -0.2936
vn -0.6248 0.6888 -0.3677
vn -0.5752 0.6758 -0.4609
vn -0.5575 0.6204 -0.5516
vn -0.5777 0.5341 -0.6173
vn -0.6331 0.4376 -0.6384
vt 0.137700 0.134380
vt 0.230046 0.218928
vt 0.125667 0.392837
vt 0.008943 0.357391
vt 0.122660 0.595335
vt 0.000100 0.614763
vt 0.220175 0.772364
vt 0.122043 0.847237
vt 0.393503 0.877086
vt 0.346027 0.988882
vt 0.596116 0.881360
vt 0.612493 0.999900
vt 0.774478 0.783997
vt 0.851375 0.875799
vt 0.879169 0.610316
vt 0.999591 0.643643
vt 0.884874 0.407094
vt 0.999591 0.367343
vt 0.786022 0.227981
vt 0.863500 0.133433
vt 0.610964 0.122705
vt 0.630821 0.000100
vt 0.300812 0.682826
vt 0.234834 0.562142
vt 0.493169 0.498542
vt 0.407076 0.119621
vt 0.364668 0.001370
vt 0.307706 0.307408
vt 0.237827 0.425304
vt 0.418382 0.754728
vt 0.556331 0.758343
vt 0.677941 0.692275
vt 0.750494 0.573135
vt 0.753366 0.433472
vt 0.685749 0.312022
vt 0.566448 0.241158
vt 0.427952 0.239693
s 1
usemtl eyes
f 1/1/1 26/2/2 25/3/3
f 1/1/1 25/3/3 3/4/4
f 3/4/4 25/3/3 27/5/5
f 3/4/4 27/5/5 5/6/6
f 5/6/6 27/5/5 28/7/7
f 5/6/6 28/7/7 7/8/8
f 7/8/8 28/7/7 29/9/9
f 7/8/8 29/9/9 9/10/10
f 9/10/10 29/9/9 30/11/11
f 9/10/10 30/11/11 11/12/12
f 11/12/12 30/11/11 31/13/13
f 11/12/12 31/13/13 13/14/14
f 13/14/14 31/13/13 32/15/15
f 13/14/14 32/15/15 15/16/16
f 15/16/16 32/15/15 33/17/17
f 15/16/16 33/17/17 17/18/18
f 17/18/18 33/17/17 34/19/19
f 17/18/18 34/19/19 19/20/20
f 19/20/20 34/19/19 35/21/21
f 19/20/20 35/21/21 21/22/22
f 8/23/23 6/24/24 37/25/25
f 21/22/22 35/21/21 36/26/26
f 21/22/22 36/26/26 23/27/27
f 23/27/27 36/26/26 26/2/2
f 23/27/27 26/2/2 1/1/1
f 2/28/28 4/29/29 25/3/3
f 2/28/28 25/3/3 26/2/2
f 4/29/29 6/24/24 27/5/5
f 4/29/29 27/5/5 25/3/3
f 6/24/24 8/23/23 28/7/7
f 6/24/24 28/7/7 27/5/5
f 8/23/23 10/30/30 29/9/9
f 8/23/23 29/9/9 28/7/7
f 10/30/30 12/31/31 30/11/11
f 10/30/30 30/11/11 29/9/9
f 12/31/31 14/32/32 31/13/13
f 12/31/31 31/13/13 30/11/11
f 14/32/32 16/33/33 32/15/15
f 14/32/32 32/15/15 31/13/13
f 16/33/33 18/34/34 33/17/17
f 16/33/33 33/17/17 32/15/15
f 18/34/34 20/35/35 34/19/19
f 18/34/34 34/19/19 33/17/17
f 20/35/35 22/36/36 35/21/21
f 20/35/35 35/21/21 34/19/19
f 22/36/36 24/37/37 36/26/26
f 22/36/36 36/26/26 35/21/21
f 24/37/37 2/28/28 26/2/2
f 24/37/37 26/2/2 36/26/26
f 22/36/36 20/35/35 37/25/25
f 16/33/33 14/32/32 37/25/25
f 10/30/30 8/23/23 37/25/25
f 24/37/37 22/36/36 37/25/25
f 4/29/29 2/28/28 37/25/25
f 18/34/34 16/33/33 37/25/25
f 12/31/31 10/30/30 37/25/25
f 2/28/28 24/37/37 37/25/25
f 6/24/24 4/29/29 37/25/25
f 20/35/35 18/34/34 37/25/25
f 14/32/32 12/31/31 37/25/25
f 38/1/38 40/4/39 62/3/40
f 38/1/38 62/3/40 63/2/41
f 40/4/39 42/6/42 64/5/43
f 40/4/39 64/5/43 62/3/40
f 42/6/42 44/8/44 65/7/45
f 42/6/42 65/7/45 64/5/43
f 44/8/44 46/10/46 66/9/47
f 44/8/44 66/9/47 65/7/45
f 46/10/46 48/12/48 67/11/49
f 46/10/46 67/11/49 66/9/47
f 48/12/48 50/14/50 68/13/51
f 48/12/48 68/13/51 67/11/49
f 50/14/50 52/16/52 69/15/53
f 50/14/50 69/15/53 68/13/51
f 52/16/52 54/18/54 70/17/55
f 52/16/52 70/17/55 69/15/53
f 54/18/54 56/20/56 71/19/57
f 54/18/54 71/19/57 70/17/55
f 56/20/56 58/22/58 72/21/59
f 56/20/56 72/21/59 71/19/57
f 45/23/60 74/25/61 43/24/62
f 58/22/58 60/27/63 73/26/64
f 58/22/58 73/26/64 72/21/59
f 60/27/63 38/1/38 63/2/41
f 60/27/63 63/2/41 73/26/64
f 39/28/65 63/2/41 62/3/40
f 39/28/65 62/3/40 41/29/66
f 41/29/66 62/3/40 64/5/43
f 41/29/66 64/5/43 43/24/62
f 43/24/62 64/5/43 65/7/45
f 43/24/62 65/7/45 45/23/60
f 45/23/60 65/7/45 66/9/47
f 45/23/60 66/9/47 47/30/67
f 47/30/67 66/9/47 67/11/49
f 47/30/67 67/11/49 49/31/68
f 49/31/68 67/11/49 68/13/51
f 49/31/68 68/13/51 51/32/69
f 51/32/69 68/13/51 69/15/53
f 51/32/69 69/15/53 53/33/70
f 53/33/70 69/15/53 70/17/55
f 53/33/70 70/17/55 55/34/71
f 55/34/71 70/17/55 71/19/57
f 55/34/71 71/19/57 57/35/72
f 57/35/72 71/19/57 72/21/59
f 57/35/72 72/21/59 59/36/73
f 59/36/73 72/21/59 73/26/64
f 59/36/73 73/26/64 61/37/74
f 61/37/74 73/26/64 63/2/41
f 61/37/74 63/2/41 39/28/65
f 59/36/73 74/25/61 57/35/72
f 53/33/70 74/25/61 51/32/69
f 47/30/67 74/25/61 45/23/60
f 61/37/74 74/25/61 59/36/73
f 41/29/66 74/25/61 39/28/65
f 55/34/71 74/25/61 53/33/70
f 49/31/68 74/25/61 47/30/67
f 39/28/65 74/25/61 61/37/74
f 43/24/62 74/25/61 41/29/66
f 57/35/72 74/25/61 55/34/71
f 51/32/69 74/25/61 49/31/68
o Object_13
v 0.000000 0.208136 0.063681
v 0.036716 0.184017 0.085390
v 0.027782 0.193221 0.076101
v 0.016393 0.201602 0.068301
v 0.000000 0.208739 0.069798
v 0.037008 0.185513 0.087700
v 0.028200 0.193853 0.080190
v 0.016979 0.202607 0.073476
v 0.000000 0.204080 0.065050
v 0.036716 0.179960 0.086760
v 0.027782 0.189164 0.077471
v 0.016393 0.197546 0.069671
v 0.000000 0.204683 0.071168
v 0.037008 0.181457 0.089069
v 0.028200 0.189797 0.081559
v 0.016979 0.198550 0.074845
v 0.000000 0.192263 0.058462
v 0.000000 0.205266 0.051507
v 0.018142 0.196048 0.055770
v 0.018142 0.196048 0.055770
v 0.018197 0.188223 0.060529
v 0.011651 0.202092 0.061696
v 0.011651 0.202092 0.061696
v 0.022400 0.186080 0.046221
v 0.022400 0.186080 0.046221
v 0.007919 0.192453 0.068371
v 0.020809 0.181379 0.048819
v 0.000000 0.197718 0.068263
v 0.000000 0.181580 0.046066
v 0.000000 0.208952 0.061352
v 0.000000 0.208952 0.061352
v 0.000000 0.195309 0.038576
v 0.000000 0.195309 0.038576
v 0.027265 0.174319 0.061590
v 0.027265 0.174319 0.061590
v 0.027265 0.174319 0.061590
v 0.025159 0.171997 0.054024
v 0.025159 0.171997 0.054024
v 0.025159 0.171997 0.054024
v 0.027265 0.166490 0.063993
v 0.027265 0.166490 0.063993
v 0.027265 0.166490 0.063993
v 0.025159 0.164167 0.056427
v 0.025159 0.164167 0.056427
v 0.025159 0.164167 0.056427
v 0.115326 0.151647 0.047049
v 0.115326 0.151647 0.047049
v 0.115326 0.151647 0.047049
v 0.115326 0.151647 0.047049
v 0.033083 0.174996 0.074623
v 0.033083 0.174996 0.074623
v 0.033083 0.174996 0.074623
v 0.031654 0.172629 0.066913
v 0.031654 0.172629 0.066913
v 0.031654 0.172629 0.066913
v 0.033083 0.167166 0.077026
v 0.033083 0.167166 0.077026
v 0.033083 0.167166 0.077026
v 0.031654 0.164800 0.069317
v 0.031654 0.164800 0.069317
v 0.031654 0.164800 0.069317
v 0.120264 0.156518 0.080801
v 0.120264 0.156518 0.080801
v 0.120264 0.156518 0.080801
v 0.120264 0.156518 0.080801
v 0.035507 0.176159 0.087374
v 0.035507 0.176159 0.087374
v 0.035507 0.176159 0.087374
v 0.035507 0.173755 0.079545
v 0.035507 0.173755 0.079545
v 0.035507 0.173755 0.079545
v 0.035507 0.168330 0.089778
v 0.035507 0.168330 0.089778
v 0.035507 0.168330 0.089778
v 0.035507 0.165926 0.081949
v 0.035507 0.165926 0.081949
v 0.035507 0.165926 0.081949
v 0.110487 0.164961 0.112225
v 0.110487 0.164961 0.112225
v 0.110487 0.164961 0.112225
v 0.110487 0.164961 0.112225
v -0.036716 0.184017 0.085390
v -0.027781 0.193221 0.076101
v -0.016392 0.201602 0.068301
v -0.037007 0.185513 0.087700
v -0.028199 0.193853 0.080190
v -0.016979 0.202607 0.073476
v -0.036716 0.179960 0.086760
v -0.027781 0.189164 0.077471
v -0.016392 0.197546 0.069671
v -0.037007 0.181457 0.089069
v -0.028199 0.189797 0.081559
v -0.016979 0.198550 0.074845
v -0.018142 0.196048 0.055770
v -0.018142 0.196048 0.055770
v -0.018197 0.188223 0.060529
v -0.011651 0.202092 0.061696
v -0.011651 0.202092 0.061696
v -0.022400 0.186080 0.046221
v -0.022400 0.186080 0.046221
v -0.007919 0.192453 0.068371
v -0.020808 0.181379 0.048819
v -0.027265 0.174319 0.061590
v -0.027265 0.174319 0.061590
v -0.027265 0.174319 0.061590
v -0.025159 0.171997 0.054024
v -0.025159 0.171997 0.054024
v -0.025159 0.171997 0.054024
v -0.027265 0.166490 0.063993
v -0.027265 0.166490 0.063993
v -0.027265 0.166490 0.063993
v -0.025159 0.164167 0.056427
v -0.025159 0.164167 0.056427
v -0.025159 0.164167 0.056427
v -0.115326 0.151647 0.047049
v -0.115326 0.151647 0.047049
v -0.115326 0.151647 0.047049
v -0.115326 0.151647 0.047049
v -0.033083 0.174996 0.074623
v -0.033083 0.174996 0.074623
v -0.033083 0.174996 0.074623
v -0.031654 0.172629 0.066913
v -0.031654 0.172629 0.066913
v -0.031654 0.172629 0.066913
v -0.033083 0.167167 0.077026
v -0.033083 0.167167 0.077026
v -0.033083 0.167167 0.077026
v -0.031654 0.164800 0.069317
v -0.031654 0.164800 0.069317
v -0.031654 0.164800 0.069317
v -0.120264 0.156518 0.080801
v -0.120264 0.156518 0.080801
v -0.120264 0.156518 0.080801
v -0.120264 0.156518 0.080801
v -0.035507 0.176159 0.087374
v -0.035507 0.176159 0.087374
v -0.035507 0.176159 0.087374
v -0.035507 0.173755 0.079545
v -0.035507 0.173755 0.079545
v -0.035507 0.173755 0.079545
v -0.035507 0.168330 0.089778
v -0.035507 0.168330 0.089778
v -0.035507 0.168330 0.089778
v -0.035507 0.165926 0.081949
v -0.035507 0.165926 0.081949
v -0.035507 0.165926 0.081949
v -0.110487 0.164961 0.112225
v -0.110487 0.164961 0.112225
v -0.110487 0.164961 0.112225
v -0.110487 0.164961 0.112225
vn 0.5482 0.5670 0.6148
vn 0.8694 0.0533 -0.4913
vn 0.7063 0.2345 -0.6679
vn 0.3717 0.7712 0.5169
vn 0.5051 0.3893 -0.7703
vn 0.3270 0.8190 0.4715
vn -0.0000 0.5664 -0.8241
vn -0.0000 0.9166 0.3999
vn -0.7113 -0.1939 0.6756
vn 0.3373 -0.5497 0.7642
vn -0.1457 -0.8174 -0.5574
vn -0.0969 -0.8041 -0.5865
vn -0.5415 -0.3189 0.7779
vn -0.0000 -0.7437 -0.6685
vn 0.2226 -0.9575 -0.1837
vn -0.0000 -0.4140 0.9103
vn -0.0000 -0.8937 0.4487
vn -0.0000 -0.9593 -0.2824
vn 0.5942 -0.7975 -0.1045
vn 0.5559 -0.4198 0.7174
vn 0.8208 0.0337 -0.5702
vn 0.8255 0.5630 0.0412
vn -0.0000 -0.0769 0.9970
vn 0.1453 -0.4022 0.9040
vn 0.6047 0.7079 0.3650
vn -0.0000 0.9614 0.2752
vn -0.0000 0.3023 -0.9532
vn 0.8208 0.0337 -0.5703
vn -0.0000 0.3022 -0.9532
vn -0.0000 0.8780 -0.4787
vn 0.6047 0.7078 0.3651
vn -0.0000 0.9614 0.2753
vn -0.9664 0.0754 0.2458
vn -0.9664 0.0755 0.2458
vn -0.0980 -0.9434 0.3169
vn 0.1828 0.9245 -0.3346
vn 0.2273 0.2857 0.9310
vn -0.1388 -0.2906 -0.9467
vn -0.9847 0.0512 0.1668
vn -0.9847 0.0512 0.1665
vn -0.1285 -0.9411 0.3127
vn 0.2181 0.9209 -0.3231
vn -0.0056 0.2934 0.9560
vn 0.0960 -0.2922 -0.9515
vn -1.0000 -0.0000 -0.0000
vn -0.1297 -0.9479 0.2911
vn 0.2334 0.9295 -0.2854
vn -0.2634 0.2832 0.9222
vn 0.3570 -0.2742 -0.8929
vn -0.5482 0.5670 0.6148
vn -0.3717 0.7712 0.5169
vn -0.7063 0.2345 -0.6679
vn -0.8694 0.0533 -0.4913
vn -0.3270 0.8190 0.4715
vn -0.5051 0.3893 -0.7703
vn -0.3373 -0.5497 0.7642
vn 0.7113 -0.1939 0.6756
vn 0.0970 -0.8041 -0.5865
vn 0.1457 -0.8174 -0.5574
vn 0.5415 -0.3189 0.7779
vn -0.2226 -0.9575 -0.1836
vn -0.5559 -0.4198 0.7174
vn -0.5942 -0.7975 -0.1045
vn -0.8254 0.5630 0.0412
vn -0.8208 0.0337 -0.5702
vn -0.1453 -0.4022 0.9039
vn -0.6047 0.7079 0.3650
vn -0.6047 0.7078 0.3651
vn 0.9664 0.0754 0.2458
vn 0.9664 0.0755 0.2458
vn 0.0980 -0.9434 0.3169
vn -0.1828 0.9245 -0.3346
vn -0.2273 0.2857 0.9310
vn 0.1388 -0.2906 -0.9467
vn 0.9847 0.0512 0.1668
vn 0.9847 0.0512 0.1663
vn 0.1285 -0.9411 0.3128
vn -0.2181 0.9209 -0.3231
vn 0.0056 0.2934 0.9560
vn -0.0960 -0.2922 -0.9515
vn 1.0000 -0.0000 -0.0000
vn 0.1297 -0.9479 0.2911
vn -0.2334 0.9295 -0.2854
vn 0.2634 0.2832 0.9222
vn -0.3570 -0.2742 -0.8929
vt 0.006679 0.024492
vt 0.007299 0.014665
vt 0.007191 0.016116
vt 0.006422 0.035389
vt 0.006718 0.033463
s 1
usemtl face
f 80/38/75 76/38/76 77/38/77
f 80/38/75 77/38/77 81/38/78
f 81/38/78 77/38/77 78/38/79
f 81/38/78 78/38/79 82/38/80
f 82/38/80 78/38/79 75/38/81
f 82/38/80 75/38/81 79/38/82
f 81/38/78 89/38/83 88/38/84
f 81/38/78 88/38/84 80/38/75
f 77/38/77 85/38/85 86/38/86
f 77/38/77 86/38/86 78/38/79
f 82/38/80 90/38/87 89/38/83
f 82/38/80 89/38/83 81/38/78
f 78/38/79 86/38/86 83/38/88
f 78/38/79 83/38/88 75/38/81
f 76/38/76 84/38/89 85/38/85
f 76/38/76 85/38/85 77/38/77
f 79/38/82 87/38/90 90/38/87
f 79/38/82 90/38/87 82/38/80
f 87/38/90 83/38/88 86/38/86
f 87/38/90 86/38/86 90/38/87
f 90/38/87 86/38/86 85/38/85
f 90/38/87 85/38/85 89/38/83
f 89/38/83 85/38/85 84/38/89
f 89/38/83 84/38/89 88/38/84
f 76/38/76 80/38/75 88/38/84
f 76/38/76 88/38/84 84/38/89
f 91/39/91 103/39/92 101/39/93
f 91/39/91 101/39/93 95/39/94
f 95/39/94 101/39/93 99/39/95
f 95/39/94 99/39/95 94/39/96
f 102/39/97 91/39/91 95/39/94
f 102/39/97 95/39/94 100/39/98
f 102/39/97 100/39/98 97/39/99
f 102/39/97 97/39/99 105/39/100
f 100/39/98 95/39/94 94/39/96
f 100/39/98 94/39/96 97/39/99
f 101/39/93 103/39/92 107/39/101
f 101/39/93 107/39/101 99/39/95
f 93/40/96 98/40/102 106/40/103
f 93/40/96 106/40/103 92/40/104
f 96/40/105 93/40/96 92/40/104
f 96/40/105 92/40/104 104/40/106
f 108/41/107 111/41/107 117/41/107
f 108/41/107 117/41/107 114/41/108
f 115/41/109 119/41/109 121/41/109
f 122/41/110 113/41/110 109/41/110
f 116/42/111 123/42/111 110/42/111
f 120/41/112 118/41/112 112/41/112
f 124/41/113 127/41/113 133/41/113
f 124/41/113 133/41/113 130/41/114
f 131/41/115 134/41/115 136/41/115
f 139/41/116 129/41/116 126/41/116
f 132/42/117 137/42/117 125/42/117
f 138/41/118 135/41/118 128/41/118
f 140/41/119 143/41/119 149/41/119
f 140/41/119 149/41/119 146/41/119
f 148/41/120 150/41/120 153/41/120
f 154/41/121 144/41/121 142/41/121
f 147/42/122 152/42/122 141/42/122
f 155/41/123 151/41/123 145/41/123
f 159/38/124 160/38/125 157/38/126
f 159/38/124 157/38/126 156/38/127
f 160/38/125 161/38/128 158/38/129
f 160/38/125 158/38/129 157/38/126
f 161/38/128 79/38/82 75/38/81
f 161/38/128 75/38/81 158/38/129
f 160/38/125 159/38/124 165/38/130
f 160/38/125 165/38/130 166/38/131
f 157/38/126 158/38/129 164/38/132
f 157/38/126 164/38/132 163/38/133
f 161/38/128 160/38/125 166/38/131
f 161/38/128 166/38/131 167/38/134
f 158/38/129 75/38/81 83/38/88
f 158/38/129 83/38/88 164/38/132
f 156/38/127 157/38/126 163/38/133
f 156/38/127 163/38/133 162/38/135
f 79/38/82 161/38/128 167/38/134
f 79/38/82 167/38/134 87/38/90
f 87/38/90 167/38/134 164/38/132
f 87/38/90 164/38/132 83/38/88
f 167/38/134 166/38/131 163/38/133
f 167/38/134 163/38/133 164/38/132
f 166/38/131 165/38/130 162/38/135
f 166/38/131 162/38/135 163/38/133
f 156/38/127 162/38/135 165/38/130
f 156/38/127 165/38/130 159/38/124
f 91/39/91 170/39/136 176/39/137
f 91/39/91 176/39/137 103/39/92
f 170/39/136 169/39/138 174/39/139
f 170/39/136 174/39/139 176/39/137
f 102/39/97 175/39/140 170/39/136
f 102/39/97 170/39/136 91/39/91
f 102/39/97 105/39/100 172/39/141
f 102/39/97 172/39/141 175/39/140
f 175/39/140 172/39/141 169/39/138
f 175/39/140 169/39/138 170/39/136
f 176/39/137 174/39/139 107/39/101
f 176/39/137 107/39/101 103/39/92
f 168/40/138 92/40/104 106/40/103
f 168/40/138 106/40/103 173/40/139
f 171/40/142 104/40/106 92/40/104
f 171/40/142 92/40/104 168/40/138
f 179/41/143 185/41/144 188/41/143
f 179/41/143 188/41/143 182/41/143
f 184/41/145 191/41/145 186/41/145
f 190/41/146 178/41/146 180/41/146
f 183/42/147 177/42/147 189/42/147
f 192/41/148 181/41/148 187/41/148
f 195/41/149 201/41/150 204/41/149
f 195/41/149 204/41/149 198/41/149
f 200/41/151 208/41/151 203/41/151
f 205/41/152 193/41/152 196/41/152
f 199/42/153 194/42/153 207/42/153
f 206/41/154 197/41/154 202/41/154
f 211/41/155 217/41/155 220/41/155
f 211/41/155 220/41/155 214/41/155
f 215/41/156 223/41/156 219/41/156
f 222/41/157 209/41/157 213/41/157
f 216/42/158 210/42/158 224/42/158
f 221/41/159 212/41/159 218/41/159
o Object_7
v 0.248811 6.225690 4.385291
v 0.396682 6.462554 4.002776
v 0.396682 6.462554 4.002776
v 0.359223 5.972150 4.385291
v 0.605239 5.877777 3.998687
v 0.605239 5.877777 3.998687
v 0.289704 5.694075 4.385291
v 0.490737 5.358428 3.990508
v 0.490737 5.358428 3.990508
v 0.516758 7.206086 3.517216
v 1.057030 7.256664 2.762722
v 1.024717 7.234914 1.900645
v 0.534096 7.648945 1.986005
v 0.559428 7.342964 1.417515
v 0.514734 7.658423 2.793593
v 0.672070 6.582311 1.227018
v 0.717758 5.666769 1.069054
v 0.717758 5.666769 1.069054
v 1.082218 6.180530 3.485672
v 1.043931 5.612519 3.525259
v 0.881755 4.958121 3.540074
v 1.324538 6.639946 2.776191
v 1.225612 6.619579 1.880038
v 1.439786 5.802846 2.840322
v 1.422505 5.359548 1.697910
v 1.422505 5.359548 1.697910
v 1.044256 6.947492 3.195977
v 0.989407 4.469217 3.130257
v 0.989407 4.469217 3.130257
v 1.267635 5.318993 3.166312
v 1.464614 4.837543 2.621064
v 1.464614 4.837543 2.621064
v 0.822413 4.583928 0.013725
v 0.864591 4.301339 -0.931950
v 1.507181 4.131131 0.197643
v 1.612703 3.221629 0.726245
v 1.063179 2.502698 1.076868
v 0.769709 5.107493 0.714173
v 1.494197 4.664377 1.048689
v 1.067195 3.283043 2.400702
v 1.670606 3.867979 1.818983
v 1.470749 3.802716 -0.705062
v 1.566524 2.874658 -0.295224
v 1.076684 2.258039 -0.077592
v 0.846469 3.795866 -2.857631
v 1.400632 3.260799 -2.695798
v 1.451458 2.566329 -2.565953
v 0.973039 2.129081 -2.496052
v 1.436576 3.481511 -1.792518
v 0.888204 4.043805 -2.000685
v 1.562082 2.650352 -1.490223
v 1.021719 2.085665 -1.344599
v 0.714085 3.582313 -3.337605
v 1.136777 3.134776 -3.170202
v 1.188772 2.609348 -3.087953
v 0.801753 2.312714 -3.115759
v 0.664622 2.891948 -3.436914
v 0.000000 6.258732 4.548864
v -0.248811 6.225690 4.385291
v 0.000000 6.627765 4.051847
v 0.000000 6.627765 4.051847
v -0.396682 6.462554 4.002776
v -0.396682 6.462554 4.002776
v -0.359223 5.972150 4.385291
v -0.605239 5.877777 3.998687
v -0.605239 5.877777 3.998687
v -0.289704 5.694075 4.385291
v -0.490737 5.358428 3.990508
v -0.490737 5.358428 3.990508
v 0.000000 5.600019 4.503881
v 0.000000 5.121245 3.986418
v 0.000000 5.121245 3.986418
v 0.000000 5.121245 3.986418
v 0.000000 5.965384 4.618909
v 0.000000 7.271514 3.611367
v -0.516758 7.206086 3.517216
v -1.057030 7.256664 2.762722
v -1.024717 7.234914 1.900645
v 0.000000 7.705864 1.973492
v -0.534096 7.648945 1.986005
v 0.000000 7.331392 1.294734
v -0.559428 7.342964 1.417515
v -0.514734 7.658423 2.793593
v 0.000000 7.761775 2.813064
v 0.000000 6.611383 1.057279
v -0.672070 6.582311 1.227018
v 0.000000 5.769940 0.869678
v 0.000000 5.769940 0.869678
v -0.717758 5.666769 1.069054
v -0.717758 5.666769 1.069054
v -1.082218 6.180530 3.485672
v -1.043931 5.612519 3.525259
v -0.881755 4.958121 3.540074
v 0.000000 4.723339 3.748352
v 0.000000 4.723339 3.748352
v -1.324538 6.639946 2.776191
v -1.225612 6.619579 1.880038
v -1.439786 5.802846 2.840322
v -1.422505 5.359548 1.697910
v -1.422505 5.359548 1.697910
v -1.044256 6.947492 3.195977
v -0.989407 4.469217 3.130257
v -0.989407 4.469217 3.130257
v -1.267635 5.318993 3.166312
v 0.000000 4.200009 3.401931
v 0.000000 4.200009 3.401931
v 0.000000 4.200009 3.401931
v 0.000000 4.200009 3.401931
v -1.464614 4.837543 2.621064
v -1.464614 4.837543 2.621064
v 0.000000 4.918024 -0.145516
v -0.822413 4.583928 0.013725
v -0.864591 4.301339 -0.931950
v 0.000000 4.664865 -1.014156
v -1.507181 4.131131 0.197643
v -1.612703 3.221629 0.726245
v -1.063179 2.502698 1.076868
v 0.000000 2.075802 1.303170
v 0.000000 2.075802 1.303170
v -0.769709 5.107493 0.714173
v 0.000000 5.335497 0.547449
v -1.494197 4.664377 1.048689
v -1.067195 3.283043 2.400702
v 0.000000 2.995541 2.732552
v 0.000000 2.995541 2.732552
v -1.670606 3.867979 1.818983
v -1.470749 3.802716 -0.705062
v -1.566524 2.874658 -0.295224
v -1.076684 2.258039 -0.077592
v 0.000000 1.796834 0.048121
v 0.000000 1.796834 0.048121
v -0.846469 3.795866 -2.857631
v 0.000000 4.083459 -3.052073
v -1.400632 3.260799 -2.695798
v -1.451458 2.566329 -2.565953
v -0.973039 2.129081 -2.496052
v 0.000000 1.884315 -2.491900
v 0.000000 1.884315 -2.491900
v -1.436576 3.481511 -1.792518
v -0.888204 4.043805 -2.000685
v -1.562082 2.650352 -1.490223
v -1.021719 2.085665 -1.344599
v 0.000000 1.742015 -1.276610
v 0.000000 1.742015 -1.276610
v 0.000000 4.382337 -2.154192
v -0.714085 3.582313 -3.337605
v 0.000000 3.731716 -3.486661
v -1.136777 3.134776 -3.170202
v -1.188772 2.609348 -3.087953
v -0.801753 2.312714 -3.115759
v 0.000000 2.200277 -3.202971
v 0.000000 2.200277 -3.202971
v 0.000000 2.871323 -3.545168
v 0.000000 2.871323 -3.545168
v -0.664622 2.891948 -3.436914
v 0.936016 0.056401 2.077321
v 0.936016 0.056401 1.805176
v 1.208162 0.056401 2.077321
v 1.208161 0.056401 1.805176
v 0.906198 0.039348 1.941248
v 0.898428 4.116887 2.114909
v 0.898428 0.202310 1.767588
v 1.072089 0.039348 1.775357
v 1.072089 0.039348 1.775357
v 1.245749 0.202310 1.767588
v 1.237980 0.039348 1.941248
v 1.245749 0.202310 2.114909
v 1.072089 0.039348 2.107140
v 0.898428 0.202310 2.114909
v 0.898428 4.116887 1.767588
v 1.245749 4.116887 1.767588
v 1.245750 4.116887 2.114909
v 0.833122 4.118531 1.941249
v 1.072089 4.118531 1.702281
v 1.072089 4.118531 1.702281
v 1.311056 4.118531 1.941248
v 1.072089 4.118531 2.180215
v 1.072089 0.003560 1.941248
v 1.072089 0.003560 1.941248
v 1.072089 0.200629 2.180215
v 1.311056 0.200629 1.941248
v 1.072089 0.200629 1.702281
v 1.072089 0.200629 1.702281
v 0.833122 0.200629 1.941248
v 0.833122 1.841591 1.941249
v 1.072089 1.841591 1.702281
v 1.072089 1.841591 1.702281
v 1.311056 1.841591 1.941248
v 1.072089 1.841591 2.180215
v 1.245749 1.841609 2.114909
v 1.245749 1.841609 1.767588
v 0.898428 1.841609 1.767588
v 0.898428 1.841609 2.114909
v -0.936016 0.056401 2.077321
v -0.936016 0.056401 1.805176
v -1.208162 0.056401 2.077321
v -1.208161 0.056401 1.805176
v -0.906198 0.039348 1.941248
v -0.898428 4.116887 2.114909
v -0.898428 0.202310 1.767588
v -1.072089 0.039348 1.775357
v -1.072089 0.039348 1.775357
v -1.245749 0.202310 1.767588
v -1.237980 0.039348 1.941248
v -1.245749 0.202310 2.114909
v -1.072089 0.039348 2.107140
v -0.898428 0.202310 2.114909
v -0.898428 4.116887 1.767588
v -1.245749 4.116887 1.767588
v -1.245750 4.116887 2.114909
v -0.833122 4.118531 1.941249
v -1.072089 4.118531 1.702281
v -1.072089 4.118531 1.702281
v -1.311056 4.118531 1.941248
v -1.072089 4.118531 2.180215
v -1.072089 0.003560 1.941248
v -1.072089 0.003560 1.941248
v -1.072089 0.200629 2.180215
v -1.311056 0.200629 1.941248
v -1.072089 0.200629 1.702281
v -1.072089 0.200629 1.702281
v -0.833122 0.200629 1.941248
v -0.833122 1.841591 1.941249
v -1.072089 1.841591 1.702281
v -1.072089 1.841591 1.702281
v -1.311056 1.841591 1.941248
v -1.072089 1.841591 2.180215
v -1.245749 1.841609 2.114909
v -1.245749 1.841609 1.767588
v -0.898428 1.841609 1.767588
v -0.898428 1.841609 2.114909
v 0.936016 0.056401 -1.903387
v 0.936016 0.056401 -2.175533
v 1.208162 0.056401 -1.903387
v 1.208161 0.056401 -2.175533
v 0.906198 0.039348 -2.039460
v 0.898428 2.961716 -1.865799
v 0.898428 0.202310 -2.213120
v 1.072089 0.039348 -2.205351
v 1.072089 0.039348 -2.205351
v 1.245749 0.202310 -2.213121
v 1.237980 0.039348 -2.039460
v 1.245749 0.202310 -1.865799
v 1.072089 0.039348 -1.873569
v 0.898428 0.202310 -1.865799
v 0.898428 2.961716 -2.213120
v 1.245749 2.961716 -2.213120
v 1.245750 2.961716 -1.865799
v 0.833122 2.963360 -2.039460
v 1.072089 2.963360 -2.278427
v 1.072089 2.963360 -2.278427
v 1.311056 2.963360 -2.039460
v 1.072089 2.963360 -1.800493
v 1.072089 0.003561 -2.039460
v 1.072089 0.003561 -2.039460
v 1.072089 0.200629 -1.800493
v 1.311056 0.200629 -2.039460
v 1.072089 0.200629 -2.278427
v 1.072089 0.200629 -2.278427
v 0.833122 0.200629 -2.039460
v 0.833122 1.841591 -2.039460
v 1.072089 1.841591 -2.278427
v 1.072089 1.841591 -2.278427
v 1.311056 1.841591 -2.039460
v 1.072089 1.841591 -1.800493
v 1.245749 1.841610 -1.865799
v 1.245749 1.841610 -2.213121
v 0.898428 1.841610 -2.213120
v 0.898428 1.841610 -1.865799
v -0.936016 0.056401 -1.903387
v -0.936016 0.056401 -2.175533
v -1.208162 0.056401 -1.903387
v -1.208161 0.056401 -2.175533
v -0.906198 0.039348 -2.039460
v -0.898428 2.961716 -1.865799
v -0.898428 0.202310 -2.213120
v -1.072089 0.039348 -2.205351
v -1.072089 0.039348 -2.205351
v -1.245749 0.202310 -2.213121
v -1.237980 0.039348 -2.039460
v -1.245749 0.202310 -1.865799
v -1.072089 0.039348 -1.873569
v -0.898428 0.202310 -1.865799
v -0.898428 2.961716 -2.213120
v -1.245749 2.961716 -2.213120
v -1.245750 2.961716 -1.865799
v -0.833122 2.963360 -2.039460
v -1.072089 2.963360 -2.278427
v -1.072089 2.963360 -2.278427
v -1.311056 2.963360 -2.039460
v -1.072089 2.963360 -1.800493
v -1.072089 0.003561 -2.039460
v -1.072089 0.003561 -2.039460
v -1.072089 0.200629 -1.800493
v -1.311056 0.200629 -2.039460
v -1.072089 0.200629 -2.278427
v -1.072089 0.200629 -2.278427
v -0.833122 0.200629 -2.039460
v -0.833122 1.841591 -2.039460
v -1.072089 1.841591 -2.278427
v -1.072089 1.841591 -2.278427
v -1.311056 1.841591 -2.039460
v -1.072089 1.841591 -1.800493
v -1.245749 1.841610 -1.865799
v -1.245749 1.841610 -2.213121
v -0.898428 1.841610 -2.213120
v -0.898428 1.841610 -1.865799
v -0.230410 2.923875 -7.176082
v -0.230410 3.380100 -7.123294
v 0.230410 2.923875 -7.176082
v 0.230410 3.380100 -7.123294
v -0.296572 3.374034 -6.481917
v 0.296572 2.782422 -6.499513
v -0.296572 2.782422 -6.499512
v 0.296572 3.374034 -6.481916
v -0.242862 2.791060 -4.952309
v 0.242862 3.276783 -4.952310
v -0.242862 3.276783 -4.952310
v 0.242862 2.791060 -4.952309
v -0.200131 3.002719 -3.032562
v -0.293381 3.415175 -6.923596
v -0.280643 3.157506 -7.184744
v 0.000000 2.879900 -7.219631
v 0.000000 2.879900 -7.219631
v 0.000000 3.435113 -7.149858
v 0.280643 3.157506 -7.184744
v 0.293381 2.832501 -6.970580
v 0.200131 3.402981 -3.032562
v 0.000000 3.391527 -5.260819
v -0.200131 3.402981 -3.032562
v 0.200131 3.002719 -3.032562
v 0.000000 2.694227 -5.265710
v 0.000000 2.694227 -5.265710
v -0.293381 2.832501 -6.970580
v 0.293381 3.415175 -6.923595
v 0.407787 3.078228 -6.490715
v 0.000000 2.671494 -6.502812
v 0.000000 2.671494 -6.502812
v 0.000000 3.484962 -6.478618
v -0.407787 3.078228 -6.490715
v 0.348863 3.042877 -5.263264
v -0.348863 3.042877 -5.263264
v -0.333935 3.033922 -4.952309
v 0.333935 3.033922 -4.952309
v 0.000000 2.699986 -4.952309
v 0.000000 2.699986 -4.952309
v 0.000000 3.367857 -4.952310
v -0.403655 3.124382 -6.950545
v 0.000000 3.169090 -7.258316
v 0.000000 3.169090 -7.258316
v 0.275125 3.203134 -3.030074
v 0.000000 2.928009 -3.030074
v 0.000000 2.928009 -3.030074
v 0.000000 3.478259 -3.030074
v 0.253718 3.296442 -5.261487
v -0.253718 2.789315 -5.265043
v 0.253718 2.789314 -5.265042
v -0.275125 3.203134 -3.030074
v 0.403655 3.124382 -6.950543
v 0.000000 2.723593 -6.983459
v 0.000000 2.723593 -6.983459
v 0.000000 3.525173 -6.917627
v -0.253718 3.296442 -5.261487
v 0.568614 7.675466 2.473314
v 1.156702 7.250645 2.483073
v 0.975879 8.152310 2.574226
v 1.195534 8.026547 2.550312
v 0.753406 7.926022 2.512900
v 1.204761 7.625396 2.512814
v 0.872519 7.459112 2.478194
v 1.104409 8.219810 2.615319
v 0.979084 7.775709 2.512856
v 0.526043 7.723603 2.375327
v 1.180223 7.270083 2.302887
v 0.944031 8.172330 2.432796
v 1.209104 8.073532 2.441016
v 0.718670 7.969321 2.410727
v 1.236954 7.695337 2.346484
v 1.087899 8.251287 2.487157
v 1.087899 8.251287 2.487157
v 0.772378 7.491574 2.173749
v 0.772378 7.491574 2.173749
v 1.053958 8.119370 2.369466
v 1.053958 8.119370 2.369466
v 0.958484 7.862225 2.225830
v 0.958484 7.862225 2.225830
v 1.076827 8.096437 2.571407
v 0.485331 7.464433 2.484069
v 1.067129 7.012094 2.494966
v 0.776230 7.238263 2.489516
v 0.437795 7.518184 2.374655
v 1.093393 7.033797 2.293767
v 0.664411 7.274513 2.149570
v 0.664411 7.274513 2.149570
v -0.568614 7.675466 2.473314
v -1.156702 7.250647 2.483073
v -0.975879 8.152310 2.574227
v -1.195535 8.026547 2.550312
v -0.753407 7.926021 2.512900
v -1.204761 7.625396 2.512814
v -0.872519 7.459112 2.478194
v -1.104409 8.219810 2.615320
v -0.979084 7.775709 2.512857
v -0.526043 7.723603 2.375327
v -1.180223 7.270084 2.302887
v -0.944032 8.172330 2.432796
v -1.209104 8.073532 2.441016
v -0.718670 7.969321 2.410727
v -1.236955 7.695338 2.346484
v -1.087900 8.251287 2.487157
v -1.087900 8.251287 2.487157
v -0.772378 7.491575 2.173749
v -0.772378 7.491575 2.173749
v -1.053958 8.119370 2.369466
v -1.053958 8.119370 2.369466
v -0.958484 7.862225 2.225830
v -0.958484 7.862225 2.225830
v -1.076828 8.096437 2.571408
v -0.485331 7.464434 2.484069
v -1.067129 7.012094 2.494966
v -0.776230 7.238264 2.489516
v -0.437795 7.518184 2.374655
v -1.093393 7.033798 2.293767
v -0.664411 7.274514 2.149570
v -0.664411 7.274514 2.149570
vn -0.0000 0.5195 0.8545
vn 0.6092 0.4515 0.6519
vn 0.5720 0.4418 0.6911
vn -0.0000 0.6538 0.7567
vn 0.7247 0.0549 0.6869
vn 0.7609 0.0186 0.6486
vn 0.5864 -0.3603 0.7255
vn 0.5430 -0.4052 0.7355
vn -0.0000 -0.5005 0.8657
vn -0.0000 -0.6166 0.7873
vn -0.0000 0.0060 1.0000
vn -0.0000 0.6537 0.7568
vn 0.4313 0.6210 0.6545
vn -0.0000 0.7092 0.7050
vn 0.3643 0.9037 -0.2249
vn 0.3924 0.8887 0.2371
vn 0.7727 0.6103 0.1744
vn 0.7847 0.5339 -0.3150
vn 0.9562 0.2524 0.1483
vn 0.8937 0.2489 -0.3734
vn -0.0000 0.9644 -0.2643
vn 0.4127 0.5905 -0.6936
vn -0.0000 0.6065 -0.7951
vn -0.0000 0.9677 0.2521
vn 0.5093 0.2382 -0.8270
vn -0.0000 0.2467 -0.9691
vn 0.5235 0.3753 -0.7649
vn -0.0000 0.3927 -0.9197
vn -0.0000 -0.6165 0.7873
vn -0.0000 -0.5670 0.8237
vn 0.5884 -0.3717 0.7181
vn 0.7692 -0.0508 0.6370
vn 0.7829 0.1662 0.5995
vn 0.9729 0.0763 0.2185
vn 0.9252 0.2417 -0.2925
vn 0.7491 0.4255 0.5078
vn 0.8485 -0.1334 0.5121
vn -0.0000 -0.5332 0.8460
vn 0.6087 -0.3998 0.6853
vn 0.9463 -0.1015 0.3068
vn -0.0000 0.7134 -0.7007
vn 0.5050 0.6412 -0.5778
vn 0.5123 0.7776 -0.3647
vn -0.0000 0.9094 -0.4159
vn 0.8843 0.4136 -0.2168
vn 0.9611 -0.2637 0.0825
vn 0.9549 -0.2950 0.0341
vn 0.8916 0.4290 -0.1449
vn 0.5235 0.3754 -0.7649
vn 0.8851 0.3762 -0.2739
vn 0.9608 -0.1714 0.2180
vn 0.6076 -0.5533 0.5698
vn -0.0000 -0.5330 0.8461
vn -0.0000 -0.6920 0.7219
vn 0.6154 -0.7320 0.2924
vn -0.0000 -0.9252 0.3796
vn 0.6067 -0.7843 0.1296
vn 0.5392 0.8112 -0.2263
vn -0.0000 -0.9888 0.1491
vn -0.0000 0.9673 -0.2538
vn 0.5609 0.7960 -0.2273
vn 0.9043 0.4039 -0.1382
vn 0.8893 0.3302 -0.3163
vn 0.5583 0.7371 -0.3808
vn 0.9445 -0.3278 -0.0209
vn 0.8932 -0.3747 -0.2485
vn 0.5395 -0.8419 0.0124
vn 0.4689 -0.8576 -0.2111
vn -0.0000 -1.0000 0.0002
vn -0.0000 -0.9739 -0.2269
vn -0.0000 0.9625 -0.2714
vn -0.0000 0.8966 -0.4429
vn 0.3422 -0.6952 -0.6321
vn 0.6863 -0.3605 -0.6317
vn 0.4413 0.4633 -0.7685
vn -0.0000 0.5228 -0.8524
vn 0.0002 -0.7394 -0.6732
vn 0.7081 0.1832 -0.6820
vn 0.3032 -0.1564 -0.9400
vn -0.0000 -0.1879 -0.9822
vn -0.5720 0.4418 0.6911
vn -0.6092 0.4515 0.6519
vn -0.7609 0.0186 0.6486
vn -0.7247 0.0549 0.6869
vn -0.5430 -0.4052 0.7355
vn -0.5864 -0.3603 0.7255
vn -0.4313 0.6210 0.6545
vn -0.3643 0.9037 -0.2249
vn -0.7847 0.5339 -0.3150
vn -0.7727 0.6103 0.1744
vn -0.3924 0.8887 0.2371
vn -0.8937 0.2489 -0.3734
vn -0.9562 0.2524 0.1483
vn -0.4127 0.5905 -0.6936
vn -0.5093 0.2382 -0.8270
vn -0.5235 0.3753 -0.7649
vn -0.5884 -0.3717 0.7181
vn -0.0001 -0.6165 0.7874
vn -0.7692 -0.0508 0.6370
vn -0.7829 0.1662 0.5995
vn -0.9252 0.2417 -0.2925
vn -0.9729 0.0763 0.2185
vn -0.7491 0.4255 0.5078
vn -0.8485 -0.1334 0.5121
vn -0.6087 -0.3998 0.6853
vn -0.0000 -0.5331 0.8460
vn -0.9463 -0.1015 0.3068
vn -0.5123 0.7776 -0.3647
vn -0.5050 0.6412 -0.5778
vn -0.8843 0.4136 -0.2168
vn -0.8916 0.4290 -0.1449
vn -0.9549 -0.2950 0.0341
vn -0.9611 -0.2637 0.0825
vn -0.8851 0.3762 -0.2739
vn -0.5235 0.3754 -0.7649
vn -0.9608 -0.1714 0.2180
vn -0.6076 -0.5533 0.5698
vn -0.0000 -0.5331 0.8461
vn -0.6154 -0.7320 0.2924
vn -0.0000 -0.9251 0.3796
vn -0.6067 -0.7843 0.1296
vn -0.5392 0.8112 -0.2263
vn -0.5609 0.7960 -0.2273
vn -0.5583 0.7371 -0.3808
vn -0.8893 0.3302 -0.3163
vn -0.9043 0.4039 -0.1382
vn -0.8932 -0.3747 -0.2485
vn -0.9445 -0.3278 -0.0209
vn -0.4689 -0.8576 -0.2111
vn -0.5395 -0.8419 0.0124
vn -0.6863 -0.3605 -0.6317
vn -0.3422 -0.6952 -0.6321
vn -0.4413 0.4633 -0.7685
vn -0.0002 -0.7394 -0.6732
vn -0.7081 0.1832 -0.6820
vn -0.3032 -0.1564 -0.9400
vn 0.7071 -0.0000 0.7071
vn -0.0000 -0.0000 1.0000
vn -0.5289 -0.6637 -0.5289
vn -0.0000 -0.7564 -0.6541
vn -0.0000 -1.0000 -0.0000
vn -0.6541 -0.7564 -0.0000
vn 0.5289 -0.6637 -0.5289
vn 0.6541 -0.7564 -0.0000
vn 0.5289 -0.6637 0.5289
vn -0.0000 -0.7564 0.6541
vn -0.5289 -0.6637 0.5289
vn 0.6944 -0.1889 0.6944
vn -0.0000 -0.1833 0.9831
vn 0.7071 -0.0000 -0.7071
vn 1.0000 -0.0000 -0.0000
vn 0.9831 -0.1833 -0.0000
vn -0.6944 -0.1889 0.6944
vn 0.6944 -0.1889 -0.6944
vn -0.7071 -0.0000 -0.7071
vn -0.0000 -0.0000 -1.0000
vn -0.0000 -0.1833 -0.9831
vn -0.6944 -0.1889 -0.6944
vn -0.7071 -0.0000 0.7071
vn -1.0000 -0.0000 -0.0000
vn -0.9831 -0.1833 -0.0000
vn -0.7021 -0.7116 -0.0259
vn -0.9998 -0.0084 0.0185
vn -0.9767 0.0181 -0.2137
vn -0.6865 -0.6674 -0.2887
vn -0.7109 0.7004 0.0647
vn -0.6922 0.7067 -0.1464
vn -0.5223 0.5985 -0.6075
vn -0.6438 0.0892 -0.7600
vn -0.5250 -0.4463 -0.7247
vn -0.0000 0.1230 -0.9924
vn -0.0000 -0.5489 -0.8359
vn -0.0000 0.7316 -0.6817
vn 0.5223 0.5985 -0.6075
vn 0.6438 0.0892 -0.7600
vn 0.0001 -0.5489 -0.8359
vn 0.5250 -0.4463 -0.7247
vn -0.7147 0.6992 0.0202
vn -0.0000 1.0000 0.0098
vn -0.0000 0.9971 0.0765
vn -0.7056 0.7052 0.0696
vn 0.9998 -0.0085 0.0185
vn 0.9989 -0.0008 0.0479
vn 0.7064 -0.7072 0.0285
vn 0.7021 -0.7116 -0.0259
vn 0.6983 -0.7132 0.0608
vn -0.0000 -0.9977 0.0675
vn -0.0000 -0.9998 0.0185
vn -0.9991 -0.0130 0.0400
vn -0.9989 -0.0011 0.0479
vn -0.7065 -0.7071 0.0285
vn -0.6983 -0.7132 0.0608
vn 0.7106 0.7006 0.0647
vn 0.7056 0.7052 0.0696
vn 0.7158 -0.6922 0.0923
vn 0.0002 -0.9930 0.1178
vn -0.0000 0.9984 -0.0573
vn 0.6954 0.7179 -0.0317
vn 0.7147 0.6992 0.0202
vn 0.9994 0.0200 0.0288
vn 0.9991 -0.0129 0.0401
vn -0.0002 -0.9930 0.1178
vn -0.7157 -0.6922 0.0923
vn -0.6954 0.7179 -0.0318
vn -0.9994 0.0201 0.0288
vn -0.0000 -0.9990 -0.0446
vn 0.9767 0.0181 -0.2137
vn 0.6865 -0.6674 -0.2887
vn 0.6922 0.7067 -0.1464
vn -0.0002 -0.9495 -0.3139
vn 0.0001 -0.9495 -0.3139
vn -0.0000 0.9939 -0.1099
vn 0.0002 0.9965 0.0838
vn -0.0602 -0.1145 0.9916
vn 0.6517 -0.1154 0.7497
vn 0.6972 0.0598 0.7144
vn -0.0683 -0.2361 0.9693
vn -0.0264 -0.0201 0.9994
vn 0.6805 -0.1810 0.7100
vn -0.4923 0.2352 0.8381
vn -0.4843 0.2785 0.8294
vn -0.4767 0.3913 0.7872
vn -0.7152 0.6552 -0.2431
vn -0.8246 0.5122 -0.2402
vn 0.8273 -0.1739 -0.5342
vn 0.8756 0.0333 -0.4819
vn 0.2250 0.5513 0.8034
vn 0.2089 0.9644 -0.1620
vn -0.5201 0.7953 -0.3114
vn 0.8673 0.3565 -0.3473
vn 0.2088 0.9645 -0.1620
vn 0.0454 0.3087 -0.9501
vn 0.1460 0.5111 -0.8470
vn -0.0748 0.1594 -0.9844
vn -0.3584 0.1880 0.9145
vn 0.0156 0.0443 0.9989
vn -0.8718 0.4202 -0.2517
vn 0.8177 -0.2716 -0.5075
vn -0.0516 0.0973 -0.9939
vn 0.6706 -0.2164 0.7096
vn 0.0602 -0.1145 0.9916
vn 0.0683 -0.2361 0.9693
vn -0.6972 0.0598 0.7144
vn -0.6517 -0.1154 0.7497
vn 0.0264 -0.0202 0.9994
vn -0.6805 -0.1810 0.7100
vn 0.4923 0.2352 0.8381
vn 0.4843 0.2785 0.8294
vn 0.4767 0.3913 0.7872
vn 0.8245 0.5123 -0.2402
vn 0.7152 0.6552 -0.2431
vn -0.8756 0.0333 -0.4819
vn -0.8273 -0.1739 -0.5342
vn 0.5201 0.7953 -0.3114
vn -0.2089 0.9644 -0.1620
vn -0.2250 0.5513 0.8034
vn -0.2087 0.9645 -0.1620
vn -0.8673 0.3565 -0.3473
vn -0.1460 0.5111 -0.8470
vn -0.0454 0.3087 -0.9501
vn 0.0748 0.1594 -0.9844
vn -0.0156 0.0443 0.9989
vn 0.3584 0.1880 0.9144
vn 0.8718 0.4202 -0.2517
vn 0.0516 0.0973 -0.9939
vn -0.8177 -0.2716 -0.5075
vn -0.6706 -0.2164 0.7096
vt 0.873053 0.305878
vt 0.903503 0.309699
vt 0.944501 0.361655
vt 0.873149 0.385604
vt 0.918356 0.280682
vt 0.983305 0.267422
vt 0.911017 0.246704
vt 0.956100 0.181636
vt 0.872973 0.239008
vt 0.872860 0.144580
vt 0.873020 0.278216
vt 0.721489 0.271443
vt 0.721178 0.311670
vt 0.657996 0.296642
vt 0.661835 0.271443
vt 0.594571 0.289962
vt 0.622385 0.290207
vt 0.621094 0.316155
vt 0.586881 0.312478
vt 0.621492 0.347449
vt 0.575224 0.339986
vt 0.594693 0.271443
vt 0.572423 0.291394
vt 0.568390 0.271443
vt 0.623635 0.271443
vt 0.541076 0.308831
vt 0.533512 0.271443
vt 0.479785 0.342734
vt 0.464894 0.271443
vt 0.749369 0.414844
vt 0.790365 0.444739
vt 0.779970 0.486631
vt 0.701191 0.457618
vt 0.731998 0.368552
vt 0.684100 0.404906
vt 0.670721 0.364953
vt 0.623635 0.398524
vt 0.527681 0.418665
vt 0.643026 0.325880
vt 0.653798 0.432362
vt 0.763619 0.542644
vt 0.671684 0.507409
vt 0.606153 0.475953
vt 0.352651 0.367191
vt 0.352141 0.429660
vt 0.289631 0.431719
vt 0.291408 0.367194
vt 0.279893 0.488326
vt 0.271078 0.555909
vt 0.208090 0.534907
vt 0.220397 0.474382
vt 0.399440 0.421109
vt 0.415085 0.490676
vt 0.348011 0.494998
vt 0.434357 0.564836
vt 0.349639 0.569213
vt 0.443680 0.619929
vt 0.350552 0.633896
vt 0.449488 0.696095
vt 0.351640 0.710443
vt 0.255875 0.615103
vt 0.234750 0.690403
vt 0.394021 0.367191
vt 0.189869 0.581660
vt 0.224752 0.424964
vt 0.152697 0.650742
vt 0.230910 0.367201
vt 0.163463 0.416966
vt 0.159102 0.458553
vt 0.117927 0.445983
vt 0.119805 0.411439
vt 0.147551 0.503260
vt 0.106922 0.473014
vt 0.124900 0.540744
vt 0.084739 0.494277
vt 0.078689 0.593775
vt 0.025525 0.522895
vt 0.162506 0.367214
vt 0.113212 0.367225
vt 0.067059 0.465681
vt 0.087796 0.457763
vt 0.093902 0.408576
vt 0.079007 0.367235
vt 0.015232 0.463259
vt 0.096342 0.437223
vt 0.069155 0.432341
vt 0.033321 0.409665
vt 0.801740 0.361827
vt 0.842613 0.309772
vt 0.762710 0.267686
vt 0.827690 0.280791
vt 0.789709 0.181836
vt 0.834948 0.246795
vt 0.657996 0.246244
vt 0.721178 0.231216
vt 0.594571 0.252924
vt 0.586881 0.230408
vt 0.621094 0.226731
vt 0.622385 0.252679
vt 0.575223 0.202900
vt 0.621492 0.195437
vt 0.572423 0.251493
vt 0.541076 0.234056
vt 0.479785 0.200153
vt 0.749369 0.128042
vt 0.701191 0.085268
vt 0.779970 0.056255
vt 0.790365 0.098148
vt 0.731998 0.174334
vt 0.684100 0.137980
vt 0.670721 0.177933
vt 0.527681 0.124221
vt 0.623635 0.144362
vt 0.643026 0.217006
vt 0.653797 0.110524
vt 0.671684 0.035477
vt 0.763619 0.000243
vt 0.606153 0.066933
vt 0.289620 0.302665
vt 0.352139 0.304716
vt 0.279868 0.246049
vt 0.220363 0.260014
vt 0.208033 0.199478
vt 0.271033 0.178450
vt 0.348002 0.239364
vt 0.415098 0.243681
vt 0.399446 0.313268
vt 0.349618 0.165123
vt 0.434371 0.169489
vt 0.350517 0.100413
vt 0.443691 0.114367
vt 0.351585 0.023830
vt 0.449488 0.038159
vt 0.255807 0.119240
vt 0.234647 0.043917
vt 0.189789 0.152718
vt 0.224735 0.309438
vt 0.152576 0.083627
vt 0.163443 0.317458
vt 0.119784 0.323006
vt 0.117888 0.288458
vt 0.159064 0.275868
vt 0.106868 0.261428
vt 0.147492 0.231156
vt 0.084669 0.240172
vt 0.124818 0.193673
vt 0.025423 0.211578
vt 0.078567 0.140647
vt 0.087747 0.276693
vt 0.067001 0.268784
vt 0.093879 0.325882
vt 0.015163 0.271238
vt 0.096304 0.297231
vt 0.033292 0.324832
vt 0.069116 0.302129
vt 0.198297 0.799745
vt 0.000389 0.799948
vt 0.000243 0.783742
vt 0.198190 0.783742
vt 0.342329 0.750265
vt 0.354810 0.744037
vt 0.356891 0.765589
vt 0.339757 0.760824
vt 0.354810 0.823447
vt 0.342329 0.817219
vt 0.339757 0.806660
vt 0.356891 0.801895
vt 0.337077 0.796492
vt 0.343844 0.783742
vt 0.337077 0.770992
vt 0.325704 0.796832
vt 0.326428 0.783742
vt 0.198925 0.831930
vt 0.000431 0.832369
vt 0.000264 0.816158
vt 0.198522 0.815799
vt 0.327469 0.809672
vt 0.325704 0.770652
vt 0.331223 0.823361
vt 0.198925 0.735554
vt 0.000431 0.735114
vt 0.000318 0.718891
vt 0.199415 0.719276
vt 0.199415 0.848207
vt 0.340743 0.838960
vt 0.331223 0.744123
vt 0.340743 0.728523
vt 0.198297 0.767738
vt 0.000389 0.767536
vt 0.000264 0.751326
vt 0.198522 0.751684
vt 0.327469 0.757812
vt 0.000318 0.848593
vt 0.662948 0.770777
vt 0.662841 0.786780
vt 0.464894 0.786781
vt 0.465041 0.770575
vt 0.806980 0.820258
vt 0.804408 0.809698
vt 0.821543 0.804933
vt 0.819461 0.826485
vt 0.819461 0.747075
vt 0.821543 0.768627
vt 0.804408 0.763863
vt 0.806980 0.753303
vt 0.808495 0.786780
vt 0.801728 0.774031
vt 0.801728 0.799530
vt 0.791079 0.786780
vt 0.790355 0.773690
vt 0.663576 0.738592
vt 0.663173 0.754723
vt 0.464915 0.754364
vt 0.465082 0.738153
vt 0.792120 0.760851
vt 0.790355 0.799871
vt 0.795874 0.747161
vt 0.663576 0.834969
vt 0.664066 0.851246
vt 0.464969 0.851631
vt 0.465082 0.835408
vt 0.664066 0.722315
vt 0.805394 0.731562
vt 0.805394 0.841999
vt 0.795874 0.826400
vt 0.662948 0.802784
vt 0.663173 0.818838
vt 0.464915 0.819197
vt 0.465041 0.802986
vt 0.792120 0.812710
vt 0.464969 0.721930
vt 0.563858 0.949940
vt 0.465053 0.950241
vt 0.464894 0.933750
vt 0.563741 0.933750
vt 0.709700 0.899868
vt 0.722333 0.893568
vt 0.724436 0.915380
vt 0.707095 0.910555
vt 0.722333 0.973932
vt 0.709700 0.967631
vt 0.707095 0.956944
vt 0.724436 0.952119
vt 0.704381 0.946653
vt 0.711229 0.933750
vt 0.704381 0.920846
vt 0.692870 0.946999
vt 0.693603 0.933750
vt 0.564530 0.982524
vt 0.465217 0.983240
vt 0.464979 0.966739
vt 0.564097 0.966190
vt 0.694658 0.959994
vt 0.692870 0.920501
vt 0.698460 0.973850
vt 0.564530 0.884975
vt 0.465217 0.884259
vt 0.465190 0.867742
vt 0.565053 0.868463
vt 0.565053 0.999036
vt 0.708099 0.989636
vt 0.698460 0.893650
vt 0.708099 0.877863
vt 0.563858 0.917560
vt 0.465053 0.917258
vt 0.464979 0.900760
vt 0.564097 0.901309
vt 0.694658 0.907505
vt 0.465190 0.999757
vt 0.099207 0.914521
vt 0.099091 0.930711
vt 0.000243 0.930711
vt 0.000402 0.914219
vt 0.245049 0.964592
vt 0.242444 0.953905
vt 0.259785 0.949081
vt 0.257682 0.970893
vt 0.257682 0.890529
vt 0.259785 0.912341
vt 0.242444 0.907517
vt 0.245049 0.896830
vt 0.246578 0.930711
vt 0.239730 0.917807
vt 0.239730 0.943615
vt 0.228952 0.930711
vt 0.228219 0.917462
vt 0.099880 0.881937
vt 0.099447 0.898271
vt 0.000328 0.897721
vt 0.000566 0.881221
vt 0.230007 0.904467
vt 0.228219 0.943960
vt 0.233809 0.890611
vt 0.099880 0.979486
vt 0.100402 0.995998
vt 0.000539 0.996719
vt 0.000566 0.980202
vt 0.100402 0.865425
vt 0.243448 0.874825
vt 0.243448 0.986598
vt 0.233809 0.970811
vt 0.099207 0.946901
vt 0.099447 0.963152
vt 0.000328 0.963701
vt 0.000402 0.947203
vt 0.230007 0.956955
vt 0.000539 0.864703
vt 0.742063 0.690110
vt 0.739306 0.670550
vt 0.763543 0.664694
vt 0.768750 0.680360
vt 0.738046 0.652152
vt 0.761172 0.649703
vt 0.772124 0.648898
vt 0.776240 0.660435
vt 0.780094 0.672954
vt 0.795839 0.653079
vt 0.796191 0.678719
vt 0.779109 0.633947
vt 0.795839 0.614815
vt 0.772124 0.618996
vt 0.776240 0.607459
vt 0.796191 0.589175
vt 0.780094 0.594940
vt 0.638223 0.652855
vt 0.638020 0.633947
vt 0.660222 0.633947
vt 0.660278 0.652603
vt 0.739306 0.597345
vt 0.660192 0.596605
vt 0.659980 0.577732
vt 0.742063 0.577784
vt 0.638158 0.577967
vt 0.637252 0.559706
vt 0.659356 0.558678
vt 0.638345 0.671543
vt 0.660192 0.671289
vt 0.659980 0.690163
vt 0.638158 0.689927
vt 0.738046 0.615742
vt 0.660278 0.615291
vt 0.501184 0.588626
vt 0.500112 0.573338
vt 0.499808 0.633947
vt 0.500271 0.618891
vt 0.638223 0.615039
vt 0.500723 0.603845
vt 0.638345 0.596352
vt 0.637252 0.708188
vt 0.500112 0.694556
vt 0.501184 0.679269
vt 0.500271 0.649003
vt 0.500723 0.664049
vt 0.746291 0.712002
vt 0.659356 0.709216
vt 0.763543 0.603200
vt 0.768750 0.587534
vt 0.761172 0.618191
vt 0.782334 0.699098
vt 0.782334 0.568796
vt 0.746291 0.555892
vt 0.762063 0.633947
vt 0.737765 0.633947
vt 0.908803 0.702555
vt 0.883561 0.701941
vt 0.902840 0.733063
vt 0.915989 0.734384
vt 0.901027 0.670549
vt 0.865529 0.670732
vt 0.938434 0.673996
vt 0.934380 0.704003
vt 0.927173 0.734098
vt 0.945717 0.705433
vt 0.949502 0.676303
vt 0.850929 0.681095
vt 0.872534 0.715019
vt 0.919703 0.748212
vt 0.934902 0.750910
vt 0.941155 0.733761
vt 0.895644 0.741410
vt 0.908812 0.758634
vt 0.856366 0.746890
vt 0.888748 0.757181
vt 0.976723 0.715652
vt 0.988649 0.671234
vt 0.953634 0.741580
vt 0.817340 0.719718
vt 0.936550 0.650391
vt 0.896361 0.645349
vt 0.950392 0.653670
vt 0.836846 0.658674
vt 0.796925 0.700480
vt 0.855663 0.645829
vt 0.992816 0.645349
vt 0.908803 0.900835
vt 0.915989 0.932665
vt 0.902840 0.931344
vt 0.883561 0.900222
vt 0.901027 0.868830
vt 0.865529 0.869012
vt 0.938434 0.872277
vt 0.934380 0.902284
vt 0.927173 0.932379
vt 0.949502 0.874583
vt 0.945718 0.903713
vt 0.872534 0.913300
vt 0.850929 0.879375
vt 0.941155 0.932042
vt 0.934902 0.949191
vt 0.919703 0.946493
vt 0.908812 0.956914
vt 0.895644 0.939691
vt 0.888748 0.955461
vt 0.856366 0.945171
vt 0.988649 0.869514
vt 0.976723 0.913933
vt 0.953634 0.939861
vt 0.817340 0.917999
vt 0.896361 0.843629
vt 0.936550 0.848672
vt 0.950392 0.851950
vt 0.796925 0.898761
vt 0.836846 0.856955
vt 0.855663 0.844110
vt 0.992816 0.843629
s 1
usemtl material
f 282/43/160 225/44/161 227/45/162
f 282/43/160 227/45/162 285/46/163
f 227/45/162 225/44/161 228/47/164
f 227/45/162 228/47/164 230/48/165
f 230/48/165 228/47/164 231/49/166
f 230/48/165 231/49/166 233/50/167
f 233/50/167 231/49/166 294/51/168
f 233/50/167 294/51/168 297/52/169
f 282/43/160 298/53/170 228/47/164
f 282/43/160 228/47/164 225/44/161
f 284/54/171 226/55/162 234/56/172
f 284/54/171 234/56/172 299/57/173
f 228/47/164 298/53/170 294/51/168
f 228/47/164 294/51/168 231/49/166
f 237/58/174 239/59/175 235/60/176
f 237/58/174 235/60/176 236/61/177
f 236/61/177 235/60/176 246/62/178
f 236/61/177 246/62/178 247/63/179
f 303/64/180 237/58/174 238/65/181
f 303/64/180 238/65/181 305/66/182
f 299/57/173 234/56/172 239/59/175
f 299/57/173 239/59/175 308/67/183
f 305/66/182 238/65/181 240/68/184
f 305/66/182 240/68/184 309/69/185
f 309/69/185 240/68/184 242/70/186
f 309/69/185 242/70/186 312/71/187
f 232/72/167 295/73/188 319/74/189
f 232/72/167 319/74/189 245/75/190
f 229/76/165 232/72/167 245/75/190
f 229/76/165 245/75/190 244/77/191
f 226/55/162 229/76/165 244/77/191
f 226/55/162 244/77/191 243/78/192
f 239/59/175 237/58/174 303/64/180
f 239/59/175 303/64/180 308/67/183
f 247/63/179 246/62/178 248/79/193
f 247/63/179 248/79/193 250/80/194
f 240/68/184 247/63/179 250/80/194
f 240/68/184 250/80/194 242/70/186
f 238/65/181 236/61/177 247/63/179
f 238/65/181 247/63/179 240/68/184
f 236/61/177 238/65/181 237/58/174
f 235/60/176 239/59/175 234/56/172
f 235/60/176 234/56/172 251/81/195
f 234/56/172 226/55/162 243/78/192
f 234/56/172 243/78/192 251/81/195
f 235/60/176 251/81/195 246/62/178
f 246/62/178 251/81/195 243/78/192
f 246/62/178 243/78/192 248/79/193
f 248/79/193 243/78/192 244/77/191
f 248/79/193 244/77/191 254/82/196
f 245/75/190 319/74/189 331/83/197
f 245/75/190 331/83/197 253/84/198
f 250/80/194 248/79/193 256/85/199
f 253/84/198 256/85/199 254/82/196
f 253/84/198 254/82/196 245/75/190
f 244/77/191 245/75/190 254/82/196
f 345/86/200 262/87/201 257/88/202
f 345/86/200 257/88/202 335/89/203
f 259/90/204 260/91/205 267/92/206
f 259/90/204 267/92/206 266/93/207
f 262/87/201 241/94/208 249/95/194
f 262/87/201 249/95/194 263/96/209
f 263/96/209 249/95/194 255/97/199
f 263/96/209 255/97/199 265/98/210
f 265/98/210 255/97/199 252/99/198
f 265/98/210 252/99/198 264/100/211
f 264/100/211 252/99/198 329/101/212
f 264/100/211 329/101/212 349/102/213
f 261/103/214 264/100/211 349/102/213
f 261/103/214 349/102/213 343/104/215
f 260/91/205 265/98/210 264/100/211
f 260/91/205 264/100/211 261/103/214
f 259/90/204 263/96/209 265/98/210
f 259/90/204 265/98/210 260/91/205
f 257/88/202 262/87/201 263/96/209
f 257/88/202 263/96/209 259/90/204
f 311/105/187 241/94/208 262/87/201
f 311/105/187 262/87/201 345/86/200
f 260/91/205 261/103/214 268/106/216
f 260/91/205 268/106/216 267/92/206
f 257/88/202 259/90/204 266/93/207
f 257/88/202 266/93/207 258/107/217
f 261/103/214 343/104/215 355/108/218
f 261/103/214 355/108/218 268/106/216
f 335/89/203 257/88/202 258/107/217
f 335/89/203 258/107/217 338/109/219
f 274/110/220 273/111/221 270/112/222
f 274/110/220 270/112/222 269/113/223
f 273/111/221 275/114/224 271/115/225
f 273/111/221 271/115/225 270/112/222
f 275/114/224 276/116/226 272/117/227
f 275/114/224 272/117/227 271/115/225
f 276/116/226 368/118/228 362/119/229
f 276/116/226 362/119/229 272/117/227
f 369/120/230 274/110/220 269/113/223
f 369/120/230 269/113/223 357/121/231
f 338/109/219 258/107/217 274/110/220
f 338/109/219 274/110/220 369/120/230
f 268/106/216 355/108/218 368/118/228
f 268/106/216 368/118/228 276/116/226
f 267/92/206 268/106/216 276/116/226
f 267/92/206 276/116/226 275/114/224
f 266/93/207 267/92/206 275/114/224
f 266/93/207 275/114/224 273/111/221
f 258/107/217 266/93/207 273/111/221
f 258/107/217 273/111/221 274/110/220
f 271/115/225 272/117/227 280/122/232
f 271/115/225 280/122/232 279/123/233
f 357/121/231 269/113/223 277/124/234
f 357/121/231 277/124/234 371/125/235
f 272/117/227 362/119/229 376/126/236
f 272/117/227 376/126/236 280/122/232
f 269/113/223 270/112/222 278/127/237
f 269/113/223 278/127/237 277/124/234
f 270/112/222 271/115/225 279/123/233
f 270/112/222 279/123/233 278/127/237
f 277/124/234 281/128/238 378/129/239
f 277/124/234 378/129/239 371/125/235
f 279/123/233 280/122/232 281/128/238
f 256/85/199 248/79/193 254/82/196
f 278/127/237 281/128/238 277/124/234
f 378/129/239 281/128/238 280/122/232
f 378/129/239 280/122/232 376/126/236
f 281/128/238 278/127/237 279/123/233
f 282/43/160 285/46/163 287/130/240
f 282/43/160 287/130/240 283/131/241
f 287/130/240 290/132/242 288/133/243
f 287/130/240 288/133/243 283/131/241
f 290/132/242 293/134/244 291/135/245
f 290/132/242 291/135/245 288/133/243
f 293/134/244 297/52/169 294/51/168
f 293/134/244 294/51/168 291/135/245
f 282/43/160 283/131/241 288/133/243
f 282/43/160 288/133/243 298/53/170
f 284/54/171 299/57/173 300/136/246
f 284/54/171 300/136/246 286/137/240
f 288/133/243 291/135/245 294/51/168
f 288/133/243 294/51/168 298/53/170
f 304/138/247 302/139/248 301/140/249
f 304/138/247 301/140/249 307/141/250
f 302/139/248 321/142/251 320/143/252
f 302/139/248 320/143/252 301/140/249
f 303/64/180 305/66/182 306/144/253
f 303/64/180 306/144/253 304/138/247
f 299/57/173 308/67/183 307/141/250
f 299/57/173 307/141/250 300/136/246
f 305/66/182 309/69/185 310/145/254
f 305/66/182 310/145/254 306/144/253
f 309/69/185 312/71/187 314/146/255
f 309/69/185 314/146/255 310/145/254
f 292/147/244 317/148/256 318/149/189
f 292/147/244 318/149/189 296/150/257
f 289/151/242 316/152/258 317/148/256
f 289/151/242 317/148/256 292/147/244
f 286/137/240 315/153/259 316/152/258
f 286/137/240 316/152/258 289/151/242
f 307/141/250 308/67/183 303/64/180
f 307/141/250 303/64/180 304/138/247
f 321/142/251 324/154/260 322/155/261
f 321/142/251 322/155/261 320/143/252
f 310/145/254 314/146/255 324/154/260
f 310/145/254 324/154/260 321/142/251
f 306/144/253 310/145/254 321/142/251
f 306/144/253 321/142/251 302/139/248
f 302/139/248 304/138/247 306/144/253
f 301/140/249 325/156/262 300/136/246
f 301/140/249 300/136/246 307/141/250
f 300/136/246 325/156/262 315/153/259
f 300/136/246 315/153/259 286/137/240
f 301/140/249 320/143/252 325/156/262
f 320/143/252 322/155/261 315/153/259
f 320/143/252 315/153/259 325/156/262
f 322/155/261 328/157/263 316/152/258
f 322/155/261 316/152/258 315/153/259
f 317/148/256 327/158/264 332/159/265
f 317/148/256 332/159/265 318/149/189
f 324/154/260 334/160/266 322/155/261
f 327/158/264 317/148/256 328/157/263
f 327/158/264 328/157/263 334/160/266
f 316/152/258 328/157/263 317/148/256
f 345/86/200 335/89/203 336/161/267
f 345/86/200 336/161/267 344/162/268
f 339/163/269 351/164/270 352/165/271
f 339/163/269 352/165/271 340/166/272
f 344/162/268 346/167/273 323/168/260
f 344/162/268 323/168/260 313/169/274
f 346/167/273 350/170/275 333/171/266
f 346/167/273 333/171/266 323/168/260
f 350/170/275 347/172/276 326/173/264
f 350/170/275 326/173/264 333/171/266
f 347/172/276 348/174/213 330/175/277
f 347/172/276 330/175/277 326/173/264
f 341/176/278 342/177/279 348/174/213
f 341/176/278 348/174/213 347/172/276
f 340/166/272 341/176/278 347/172/276
f 340/166/272 347/172/276 350/170/275
f 339/163/269 340/166/272 350/170/275
f 339/163/269 350/170/275 346/167/273
f 336/161/267 339/163/269 346/167/273
f 336/161/267 346/167/273 344/162/268
f 311/105/187 345/86/200 344/162/268
f 311/105/187 344/162/268 313/169/274
f 340/166/272 352/165/271 353/178/280
f 340/166/272 353/178/280 341/176/278
f 336/161/267 337/179/281 351/164/270
f 336/161/267 351/164/270 339/163/269
f 341/176/278 353/178/280 354/180/218
f 341/176/278 354/180/218 342/177/279
f 335/89/203 338/109/219 337/179/281
f 335/89/203 337/179/281 336/161/267
f 364/181/282 356/182/283 358/183/284
f 364/181/282 358/183/284 363/184/285
f 363/184/285 358/183/284 359/185/286
f 363/184/285 359/185/286 365/186/287
f 365/186/287 359/185/286 360/187/288
f 365/186/287 360/187/288 366/188/289
f 366/188/289 360/187/288 361/189/229
f 366/188/289 361/189/229 367/190/228
f 369/120/230 357/121/231 356/182/283
f 369/120/230 356/182/283 364/181/282
f 338/109/219 369/120/230 364/181/282
f 338/109/219 364/181/282 337/179/281
f 353/178/280 366/188/289 367/190/228
f 353/178/280 367/190/228 354/180/218
f 352/165/271 365/186/287 366/188/289
f 352/165/271 366/188/289 353/178/280
f 351/164/270 363/184/285 365/186/287
f 351/164/270 365/186/287 352/165/271
f 337/179/281 364/181/282 363/184/285
f 337/179/281 363/184/285 351/164/270
f 359/185/286 373/191/290 374/192/291
f 359/185/286 374/192/291 360/187/288
f 357/121/231 371/125/235 370/193/292
f 357/121/231 370/193/292 356/182/283
f 360/187/288 374/192/291 375/194/293
f 360/187/288 375/194/293 361/189/229
f 356/182/283 370/193/292 372/195/294
f 356/182/283 372/195/294 358/183/284
f 358/183/284 372/195/294 373/191/290
f 358/183/284 373/191/290 359/185/286
f 370/193/292 371/125/235 377/196/239
f 370/193/292 377/196/239 379/197/295
f 373/191/290 379/197/295 374/192/291
f 334/160/266 328/157/263 322/155/261
f 372/195/294 370/193/292 379/197/295
f 377/196/239 375/194/293 374/192/291
f 377/196/239 374/192/291 379/197/295
f 379/197/295 373/191/290 372/195/294
f 414/198/296 396/199/296 401/200/297
f 414/198/296 401/200/297 413/201/297
f 381/202/298 388/203/299 403/204/300
f 381/202/298 403/204/300 384/205/301
f 387/206/299 383/207/302 390/208/303
f 387/206/299 390/208/303 402/209/300
f 402/209/300 390/208/303 382/210/304
f 402/209/300 382/210/304 392/211/305
f 384/205/301 403/204/300 392/211/305
f 384/205/301 392/211/305 380/212/306
f 382/210/304 391/213/307 404/214/308
f 382/210/304 404/214/308 392/211/305
f 415/215/309 395/216/309 400/217/310
f 415/215/309 400/217/310 412/218/310
f 412/218/310 414/198/296 391/213/307
f 412/218/310 391/213/307 405/219/311
f 392/211/305 404/214/308 393/220/312
f 392/211/305 393/220/312 380/212/306
f 383/207/302 389/221/313 405/219/311
f 383/207/302 405/219/311 390/208/303
f 416/222/314 394/223/314 399/224/315
f 416/222/314 399/224/315 411/225/315
f 410/226/315 415/215/309 389/221/313
f 410/226/315 389/221/313 406/227/316
f 390/208/303 405/219/311 391/213/307
f 390/208/303 391/213/307 382/210/304
f 381/202/298 386/228/317 407/229/316
f 381/202/298 407/229/316 388/203/299
f 417/230/318 385/231/318 397/232/319
f 417/230/318 397/232/319 409/233/319
f 409/233/319 416/222/314 386/228/317
f 409/233/319 386/228/317 408/234/320
f 387/206/299 406/227/316 389/221/313
f 387/206/299 389/221/313 383/207/302
f 380/212/306 393/220/312 408/234/320
f 380/212/306 408/234/320 384/205/301
f 384/205/301 408/234/320 386/228/317
f 384/205/301 386/228/317 381/202/298
f 386/228/317 416/222/314 411/225/315
f 386/228/317 411/225/315 407/229/316
f 400/217/310 396/199/296 414/198/296
f 400/217/310 414/198/296 412/218/310
f 413/201/297 417/230/318 393/220/312
f 413/201/297 393/220/312 404/214/308
f 401/200/297 385/231/318 417/230/318
f 401/200/297 417/230/318 413/201/297
f 397/232/319 394/223/314 416/222/314
f 397/232/319 416/222/314 409/233/319
f 393/220/312 417/230/318 409/233/319
f 393/220/312 409/233/319 408/234/320
f 389/221/313 415/215/309 412/218/310
f 389/221/313 412/218/310 405/219/311
f 398/235/315 395/216/309 415/215/309
f 398/235/315 415/215/309 410/226/315
f 391/213/307 414/198/296 413/201/297
f 391/213/307 413/201/297 404/214/308
f 452/236/318 451/237/297 439/238/297
f 452/236/318 439/238/297 434/239/318
f 419/240/302 422/241/303 440/242/300
f 419/240/302 440/242/300 426/243/299
f 425/244/299 441/245/300 428/246/301
f 425/244/299 428/246/301 421/247/298
f 441/245/300 430/248/305 420/249/306
f 441/245/300 420/249/306 428/246/301
f 422/241/303 418/250/304 430/248/305
f 422/241/303 430/248/305 440/242/300
f 420/249/306 430/248/305 442/251/308
f 420/249/306 442/251/308 429/252/312
f 453/253/314 450/254/319 438/255/319
f 453/253/314 438/255/319 433/256/314
f 450/254/319 443/257/320 429/252/312
f 450/254/319 429/252/312 452/236/318
f 430/248/305 418/250/304 431/258/307
f 430/248/305 431/258/307 442/251/308
f 421/247/298 428/246/301 443/257/320
f 421/247/298 443/257/320 427/259/317
f 454/260/309 448/261/315 436/262/315
f 454/260/309 436/262/315 432/263/309
f 449/264/315 445/265/316 427/259/317
f 449/264/315 427/259/317 453/253/314
f 428/246/301 420/249/306 429/252/312
f 428/246/301 429/252/312 443/257/320
f 419/240/302 426/243/299 444/266/316
f 419/240/302 444/266/316 424/267/313
f 455/268/296 447/269/310 435/270/310
f 455/268/296 435/270/310 423/271/296
f 447/269/310 446/272/311 424/267/313
f 447/269/310 424/267/313 454/260/309
f 425/244/299 421/247/298 427/259/317
f 425/244/299 427/259/317 445/265/316
f 418/250/304 422/241/303 446/272/311
f 418/250/304 446/272/311 431/258/307
f 422/241/303 419/240/302 424/267/313
f 422/241/303 424/267/313 446/272/311
f 424/267/313 444/266/316 448/261/315
f 424/267/313 448/261/315 454/260/309
f 438/255/319 450/254/319 452/236/318
f 438/255/319 452/236/318 434/239/318
f 451/237/297 442/251/308 431/258/307
f 451/237/297 431/258/307 455/268/296
f 439/238/297 451/237/297 455/268/296
f 439/238/297 455/268/296 423/271/296
f 435/270/310 447/269/310 454/260/309
f 435/270/310 454/260/309 432/263/309
f 431/258/307 446/272/311 447/269/310
f 431/258/307 447/269/310 455/268/296
f 427/259/317 443/257/320 450/254/319
f 427/259/317 450/254/319 453/253/314
f 437/273/315 449/264/315 453/253/314
f 437/273/315 453/253/314 433/256/314
f 429/252/312 442/251/308 451/237/297
f 429/252/312 451/237/297 452/236/318
f 490/274/296 472/275/296 477/276/297
f 490/274/296 477/276/297 489/277/297
f 457/278/298 464/279/299 479/280/300
f 457/278/298 479/280/300 460/281/301
f 463/282/299 459/283/302 466/284/303
f 463/282/299 466/284/303 478/285/300
f 478/285/300 466/284/303 458/286/304
f 478/285/300 458/286/304 468/287/305
f 460/281/301 479/280/300 468/287/305
f 460/281/301 468/287/305 456/288/306
f 458/286/304 467/289/307 480/290/308
f 458/286/304 480/290/308 468/287/305
f 491/291/309 471/292/309 476/293/310
f 491/291/309 476/293/310 488/294/310
f 488/294/310 490/274/296 467/289/307
f 488/294/310 467/289/307 481/295/311
f 468/287/305 480/290/308 469/296/312
f 468/287/305 469/296/312 456/288/306
f 459/283/302 465/297/313 481/295/311
f 459/283/302 481/295/311 466/284/303
f 492/298/314 470/299/314 475/300/315
f 492/298/314 475/300/315 487/301/315
f 486/302/315 491/291/309 465/297/313
f 486/302/315 465/297/313 482/303/316
f 466/284/303 481/295/311 467/289/307
f 466/284/303 467/289/307 458/286/304
f 457/278/298 462/304/317 483/305/316
f 457/278/298 483/305/316 464/279/299
f 493/306/318 461/307/318 473/308/319
f 493/306/318 473/308/319 485/309/319
f 485/309/319 492/298/314 462/304/317
f 485/309/319 462/304/317 484/310/320
f 463/282/299 482/303/316 465/297/313
f 463/282/299 465/297/313 459/283/302
f 456/288/306 469/296/312 484/310/320
f 456/288/306 484/310/320 460/281/301
f 460/281/301 484/310/320 462/304/317
f 460/281/301 462/304/317 457/278/298
f 462/304/317 492/298/314 487/301/315
f 462/304/317 487/301/315 483/305/316
f 476/293/310 472/275/296 490/274/296
f 476/293/310 490/274/296 488/294/310
f 489/277/297 493/306/318 469/296/312
f 489/277/297 469/296/312 480/290/308
f 477/276/297 461/307/318 493/306/318
f 477/276/297 493/306/318 489/277/297
f 473/308/319 470/299/314 492/298/314
f 473/308/319 492/298/314 485/309/319
f 469/296/312 493/306/318 485/309/319
f 469/296/312 485/309/319 484/310/320
f 465/297/313 491/291/309 488/294/310
f 465/297/313 488/294/310 481/295/311
f 474/311/315 471/292/309 491/291/309
f 474/311/315 491/291/309 486/302/315
f 467/289/307 490/274/296 489/277/297
f 467/289/307 489/277/297 480/290/308
f 528/312/318 527/313/297 515/314/297
f 528/312/318 515/314/297 510/315/318
f 495/316/302 498/317/303 516/318/300
f 495/316/302 516/318/300 502/319/299
f 501/320/299 517/321/300 504/322/301
f 501/320/299 504/322/301 497/323/298
f 517/321/300 506/324/305 496/325/306
f 517/321/300 496/325/306 504/322/301
f 498/317/303 494/326/304 506/324/305
f 498/317/303 506/324/305 516/318/300
f 496/325/306 506/324/305 518/327/308
f 496/325/306 518/327/308 505/328/312
f 529/329/314 526/330/319 514/331/319
f 529/329/314 514/331/319 509/332/314
f 526/330/319 519/333/320 505/328/312
f 526/330/319 505/328/312 528/312/318
f 506/324/305 494/326/304 507/334/307
f 506/324/305 507/334/307 518/327/308
f 497/323/298 504/322/301 519/333/320
f 497/323/298 519/333/320 503/335/317
f 530/336/309 525/337/315 513/338/315
f 530/336/309 513/338/315 508/339/309
f 524/340/315 520/341/316 503/335/317
f 524/340/315 503/335/317 529/329/314
f 504/322/301 496/325/306 505/328/312
f 504/322/301 505/328/312 519/333/320
f 495/316/302 502/319/299 521/342/316
f 495/316/302 521/342/316 500/343/313
f 531/344/296 523/345/310 511/346/310
f 531/344/296 511/346/310 499/347/296
f 523/345/310 522/348/311 500/343/313
f 523/345/310 500/343/313 530/336/309
f 501/320/299 497/323/298 503/335/317
f 501/320/299 503/335/317 520/341/316
f 494/326/304 498/317/303 522/348/311
f 494/326/304 522/348/311 507/334/307
f 498/317/303 495/316/302 500/343/313
f 498/317/303 500/343/313 522/348/311
f 500/343/313 521/342/316 525/337/315
f 500/343/313 525/337/315 530/336/309
f 514/331/319 526/330/319 528/312/318
f 514/331/319 528/312/318 510/315/318
f 527/313/297 518/327/308 507/334/307
f 527/313/297 507/334/307 531/344/296
f 515/314/297 527/313/297 531/344/296
f 515/314/297 531/344/296 499/347/296
f 511/346/310 523/345/310 530/336/309
f 511/346/310 530/336/309 508/339/309
f 507/334/307 522/348/311 523/345/310
f 507/334/307 523/345/310 531/344/296
f 503/335/317 519/333/320 526/330/319
f 503/335/317 526/330/319 529/329/314
f 512/349/315 524/340/315 529/329/314
f 512/349/315 529/329/314 509/332/314
f 505/328/312 518/327/308 527/313/297
f 505/328/312 527/313/297 528/312/318
f 538/350/321 564/351/322 572/352/323
f 538/350/321 572/352/323 558/353/324
f 564/351/322 536/354/325 545/355/326
f 564/351/322 545/355/326 572/352/323
f 572/352/323 545/355/326 533/356/327
f 572/352/323 533/356/327 546/357/328
f 558/353/324 572/352/323 546/357/328
f 558/353/324 546/357/328 532/358/329
f 532/358/329 546/357/328 573/359/330
f 532/358/329 573/359/330 547/360/331
f 546/357/328 533/356/327 549/361/332
f 546/357/328 549/361/332 573/359/330
f 574/362/330 549/361/332 535/363/333
f 574/362/330 535/363/333 550/364/334
f 548/365/335 574/362/330 550/364/334
f 548/365/335 550/364/334 534/366/336
f 542/367/337 571/368/338 553/369/339
f 542/367/337 553/369/339 587/370/340
f 560/371/341 565/372/342 581/373/343
f 560/371/341 581/373/343 537/374/344
f 543/375/345 569/376/346 557/377/347
f 543/375/345 557/377/347 581/373/343
f 567/378/348 566/379/349 580/380/350
f 567/378/348 580/380/350 540/381/351
f 539/382/352 579/383/353 565/372/342
f 539/382/352 565/372/342 560/371/341
f 542/367/337 587/370/340 566/379/349
f 542/367/337 566/379/349 567/378/348
f 555/384/354 577/385/355 569/376/346
f 555/384/354 569/376/346 543/375/345
f 571/368/338 578/386/356 552/387/357
f 571/368/338 552/387/357 541/388/358
f 541/388/358 552/387/357 575/389/359
f 541/388/358 575/389/359 568/390/360
f 570/391/346 576/392/361 544/393/362
f 570/391/346 544/393/362 540/381/351
f 554/394/363 542/367/337 567/378/348
f 554/394/363 567/378/348 582/395/364
f 568/390/360 575/389/359 555/384/354
f 568/390/360 555/384/354 543/375/345
f 561/396/365 556/397/347 580/380/350
f 561/396/365 580/380/350 538/350/321
f 587/370/340 536/354/325 564/351/322
f 587/370/340 564/351/322 566/379/349
f 534/366/336 550/364/334 583/398/366
f 534/366/336 583/398/366 551/399/367
f 550/364/334 535/363/333 559/400/368
f 550/364/334 559/400/368 583/398/366
f 583/398/366 559/400/368 539/382/352
f 583/398/366 539/382/352 560/371/341
f 551/399/367 583/398/366 560/371/341
f 551/399/367 560/371/341 537/374/344
f 532/358/329 547/360/331 585/401/369
f 532/358/329 585/401/369 558/353/324
f 548/365/335 534/366/336 551/399/367
f 548/365/335 551/399/367 584/402/370
f 584/402/370 551/399/367 537/374/344
f 584/402/370 537/374/344 562/403/365
f 558/353/324 585/401/369 561/396/365
f 558/353/324 561/396/365 538/350/321
f 535/363/333 549/361/332 586/404/371
f 535/363/333 586/404/371 559/400/368
f 549/361/332 533/356/327 545/355/326
f 549/361/332 545/355/326 586/404/371
f 586/404/371 545/355/326 536/354/325
f 586/404/371 536/354/325 563/405/372
f 559/400/368 586/404/371 563/405/372
f 559/400/368 563/405/372 539/382/352
f 579/383/353 541/388/358 568/390/360
f 579/383/353 568/390/360 565/372/342
f 566/379/349 564/351/322 538/350/321
f 566/379/349 538/350/321 580/380/350
f 582/395/364 567/378/348 540/381/351
f 582/395/364 540/381/351 544/393/362
f 563/405/372 553/369/339 579/383/353
f 563/405/372 579/383/353 539/382/352
f 581/373/343 557/377/347 562/403/365
f 581/373/343 562/403/365 537/374/344
f 565/372/342 568/390/360 543/375/345
f 565/372/342 543/375/345 581/373/343
f 587/370/340 553/369/339 563/405/372
f 587/370/340 563/405/372 536/354/325
f 556/397/347 570/391/346 540/381/351
f 556/397/347 540/381/351 580/380/350
f 554/394/363 578/386/356 571/368/338
f 554/394/363 571/368/338 542/367/337
f 553/369/339 571/368/338 541/388/358
f 553/369/339 541/388/358 579/383/353
f 596/406/373 593/407/374 591/408/375
f 596/406/373 591/408/375 611/409/376
f 594/410/377 589/411/378 593/407/374
f 594/410/377 593/407/374 596/406/373
f 588/412/379 594/410/377 596/406/373
f 588/412/379 596/406/373 592/413/380
f 592/413/380 596/406/373 611/409/376
f 592/413/380 611/409/376 590/414/381
f 588/412/379 592/413/380 601/415/382
f 588/412/379 601/415/382 597/416/383
f 593/407/374 589/411/378 598/417/384
f 593/407/374 598/417/384 602/418/385
f 590/414/381 595/419/386 604/420/387
f 590/414/381 604/420/387 599/421/388
f 595/419/386 591/408/375 600/422/389
f 595/419/386 600/422/389 603/423/390
f 592/413/380 590/414/381 599/421/388
f 592/413/380 599/421/388 601/415/382
f 591/408/375 593/407/374 602/418/385
f 591/408/375 602/418/385 600/422/389
f 602/418/385 609/424/391 607/425/392
f 602/418/385 607/425/392 600/422/389
f 601/415/382 610/426/391 606/427/393
f 601/415/382 606/427/393 597/416/383
f 603/423/390 600/422/389 607/425/392
f 608/428/392 610/426/391 601/415/382
f 608/428/392 601/415/382 599/421/388
f 605/429/393 609/424/391 602/418/385
f 605/429/393 602/418/385 598/417/384
f 608/428/392 599/421/388 604/420/387
f 590/414/381 611/409/376 595/419/386
f 611/409/376 591/408/375 595/419/386
f 594/410/377 588/412/379 612/430/394
f 594/410/377 612/430/394 614/431/395
f 588/412/379 597/416/383 615/432/396
f 588/412/379 615/432/396 612/430/394
f 605/429/393 598/417/384 616/433/397
f 605/429/393 616/433/397 617/434/398
f 589/411/378 594/410/377 614/431/395
f 589/411/378 614/431/395 613/435/399
f 598/417/384 589/411/378 613/435/399
f 598/417/384 613/435/399 616/433/397
f 597/416/383 606/427/393 618/436/398
f 597/416/383 618/436/398 615/432/396
f 627/437/400 642/438/401 622/439/402
f 627/437/400 622/439/402 624/440/403
f 625/441/404 627/437/400 624/440/403
f 625/441/404 624/440/403 620/442/405
f 619/443/406 623/444/407 627/437/400
f 619/443/406 627/437/400 625/441/404
f 623/444/407 621/445/408 642/438/401
f 623/444/407 642/438/401 627/437/400
f 619/443/406 628/446/409 632/447/410
f 619/443/406 632/447/410 623/444/407
f 624/440/403 633/448/411 629/449/412
f 624/440/403 629/449/412 620/442/405
f 621/445/408 630/450/413 635/451/414
f 621/445/408 635/451/414 626/452/415
f 626/452/415 634/453/416 631/454/417
f 626/452/415 631/454/417 622/439/402
f 623/444/407 632/447/410 630/450/413
f 623/444/407 630/450/413 621/445/408
f 622/439/402 631/454/417 633/448/411
f 622/439/402 633/448/411 624/440/403
f 633/448/411 631/454/417 638/455/418
f 633/448/411 638/455/418 640/456/419
f 632/447/410 628/446/409 637/457/420
f 632/447/410 637/457/420 641/458/419
f 634/453/416 638/455/418 631/454/417
f 639/459/418 630/450/413 632/447/410
f 639/459/418 632/447/410 641/458/419
f 636/460/420 629/449/412 633/448/411
f 636/460/420 633/448/411 640/456/419
f 639/459/418 635/451/414 630/450/413
f 621/445/408 626/452/415 642/438/401
f 642/438/401 626/452/415 622/439/402
f 625/441/404 645/461/421 643/462/422
f 625/441/404 643/462/422 619/443/406
f 619/443/406 643/462/422 646/463/423
f 619/443/406 646/463/423 628/446/409
f 636/460/420 648/464/424 647/465/425
f 636/460/420 647/465/425 629/449/412
f 620/442/405 644/466/426 645/461/421
f 620/442/405 645/461/421 625/441/404
f 629/449/412 647/465/425 644/466/426
f 629/449/412 644/466/426 620/442/405
f 628/446/409 646/463/423 649/467/424
f 628/446/409 649/467/424 637/457/420
