# Blender 5.1.1
# www.blender.org
mtllib Untitled.mtl
o Object_11
v 0.093185 0.029733 0.001347
v 0.104757 0.053362 0.009092
v 0.111769 0.021069 0.020691
v 0.116174 0.048040 0.020975
v 0.124703 0.024711 0.045471
v 0.124119 0.050277 0.036198
v 0.128521 0.039682 0.069048
v 0.126465 0.059474 0.050681
v 0.122199 0.061972 0.085105
v 0.122581 0.073167 0.060545
v 0.107433 0.085608 0.089338
v 0.113510 0.087686 0.063146
v 0.088178 0.104256 0.080615
v 0.101682 0.099142 0.057787
v 0.069593 0.112919 0.061271
v 0.090265 0.104464 0.045904
v 0.056659 0.109278 0.036491
v 0.082320 0.102227 0.030682
v 0.052841 0.094306 0.012914
v 0.079974 0.093029 0.016198
v 0.059163 0.072016 -0.003143
v 0.083858 0.079337 0.006334
v 0.073929 0.048381 -0.007376
v 0.092929 0.064817 0.003734
v 0.117262 0.033892 0.018519
v 0.100942 0.041500 0.001533
v 0.128620 0.037090 0.040279
v 0.131972 0.050238 0.060983
v 0.126421 0.069811 0.075083
v 0.113454 0.090566 0.078801
v 0.096546 0.106941 0.071140
v 0.080226 0.114549 0.054154
v 0.068869 0.111351 0.032394
v 0.065516 0.098204 0.011690
v 0.071067 0.078631 -0.002410
v 0.084034 0.057876 -0.006128
v 0.103309 0.076317 0.033384
v -0.093184 0.029733 0.001347
v -0.104757 0.053362 0.009092
v -0.111769 0.021069 0.020691
v -0.116174 0.048040 0.020975
v -0.124703 0.024711 0.045471
v -0.124119 0.050277 0.036198
v -0.128521 0.039683 0.069048
v -0.126465 0.059474 0.050681
v -0.122199 0.061972 0.085105
v -0.122581 0.073167 0.060545
v -0.107433 0.085608 0.089338
v -0.113510 0.087686 0.063146
v -0.088178 0.104256 0.080615
v -0.101682 0.099142 0.057787
v -0.069593 0.112920 0.061271
v -0.090265 0.104464 0.045904
v -0.056659 0.109278 0.036491
v -0.082320 0.102227 0.030682
v -0.052841 0.094306 0.012914
v -0.079974 0.093030 0.016198
v -0.059163 0.072016 -0.003143
v -0.083858 0.079337 0.006334
v -0.073929 0.048381 -0.007376
v -0.092929 0.064817 0.003734
v -0.117262 0.033893 0.018519
v -0.100942 0.041500 0.001533
v -0.128620 0.037091 0.040279
v -0.131972 0.050238 0.060983
v -0.126421 0.069811 0.075083
v -0.113454 0.090566 0.078801
v -0.096546 0.106941 0.071140
v -0.080226 0.114549 0.054154
v -0.068868 0.111351 0.032394
v -0.065516 0.098204 0.011690
v -0.071067 0.078631 -0.002410
v -0.084034 0.057876 -0.006128
v -0.103309 0.076318 0.033384
vn 0.4396 -0.2763 -0.8546
vn 0.5657 -0.0543 -0.8228
vn 0.7950 -0.1621 -0.5845
vn 0.7207 -0.4041 -0.5633
vn 0.9533 -0.1230 -0.2758
vn 0.9125 -0.3656 -0.1835
vn 0.9982 0.0551 0.0246
vn 0.9662 -0.1634 0.1996
vn 0.9146 0.3280 0.2367
vn 0.8570 0.1633 0.4888
vn 0.7217 0.6237 0.3003
vn 0.6009 0.5341 0.5947
vn 0.4712 0.8604 0.1942
vn 0.2639 0.8414 0.4715
vn 0.2331 0.9710 -0.0538
vn -0.0529 0.9877 0.1471
vn 0.0746 0.9245 -0.3739
vn -0.2511 0.9268 -0.2793
vn 0.0384 0.7361 -0.6758
vn -0.2755 0.6834 -0.6760
vn 0.1310 0.4603 -0.8780
vn -0.1305 0.3382 -0.9320
vn 0.8552 0.4016 -0.3276
vn 0.8413 0.3366 -0.4229
vn 0.7177 0.5294 -0.4524
vn 0.3239 0.1721 -0.9303
vn 0.1319 -0.0100 -0.9912
vn 0.7106 0.3580 -0.6058
vn 0.7879 0.3202 -0.5261
vn 0.8272 0.4941 -0.2674
vn 0.7679 0.5871 -0.2563
vn 0.6943 0.6571 -0.2936
vn 0.6248 0.6888 -0.3677
vn 0.5752 0.6758 -0.4609
vn 0.5575 0.6204 -0.5516
vn 0.5777 0.5341 -0.6173
vn 0.6331 0.4377 -0.6385
vn -0.4396 -0.2763 -0.8546
vn -0.7207 -0.4041 -0.5633
vn -0.7950 -0.1621 -0.5845
vn -0.5657 -0.0543 -0.8228
vn -0.9125 -0.3656 -0.1835
vn -0.9533 -0.1230 -0.2758
vn -0.9662 -0.1634 0.1996
vn -0.9982 0.0551 0.0246
vn -0.8570 0.1633 0.4888
vn -0.9146 0.3280 0.2367
vn -0.6009 0.5341 0.5947
vn -0.7217 0.6237 0.3003
vn -0.2639 0.8414 0.4715
vn -0.4712 0.8604 0.1942
vn 0.0529 0.9877 0.1471
vn -0.2331 0.9710 -0.0538
vn 0.2511 0.9268 -0.2793
vn -0.0746 0.9245 -0.3739
vn 0.2755 0.6834 -0.6760
vn -0.0384 0.7361 -0.6758
vn 0.1305 0.3382 -0.9320
vn -0.1310 0.4603 -0.8780
vn -0.8552 0.4016 -0.3276
vn -0.7177 0.5294 -0.4524
vn -0.8413 0.3366 -0.4229
vn -0.1319 -0.0100 -0.9912
vn -0.3239 0.1721 -0.9303
vn -0.7106 0.3580 -0.6058
vn -0.7879 0.3202 -0.5261
vn -0.8272 0.4941 -0.2674
vn -0.7679 0.5871 -0.2563
vn -0.6943 0.6571 -0.2936
vn -0.6248 0.6888 -0.3677
vn -0.5752 0.6758 -0.4609
vn -0.5575 0.6204 -0.5516
vn -0.5777 0.5341 -0.6173
vn -0.6331 0.4377 -0.6385
vt 0.137700 0.134380
vt 0.230046 0.218928
vt 0.125667 0.392837
vt 0.008943 0.357391
vt 0.122660 0.595335
vt 0.000100 0.614763
vt 0.220175 0.772364
vt 0.122043 0.847237
vt 0.393503 0.877086
vt 0.346027 0.988882
vt 0.596116 0.881360
vt 0.612493 0.999900
vt 0.774478 0.783997
vt 0.851375 0.875799
vt 0.879169 0.610316
vt 0.999591 0.643643
vt 0.884874 0.407094
vt 0.999591 0.367343
vt 0.786022 0.227981
vt 0.863500 0.133433
vt 0.610964 0.122705
vt 0.630821 0.000100
vt 0.300812 0.682826
vt 0.234834 0.562142
vt 0.493169 0.498542
vt 0.407076 0.119621
vt 0.364668 0.001370
vt 0.307706 0.307408
vt 0.237827 0.425304
vt 0.418382 0.754728
vt 0.556331 0.758343
vt 0.677941 0.692275
vt 0.750494 0.573135
vt 0.753366 0.433472
vt 0.685749 0.312022
vt 0.566448 0.241158
vt 0.427952 0.239693
s 1
usemtl eyes
f 1/1/1 26/2/2 25/3/3
f 1/1/1 25/3/3 3/4/4
f 3/4/4 25/3/3 27/5/5
f 3/4/4 27/5/5 5/6/6
f 5/6/6 27/5/5 28/7/7
f 5/6/6 28/7/7 7/8/8
f 7/8/8 28/7/7 29/9/9
f 7/8/8 29/9/9 9/10/10
f 9/10/10 29/9/9 30/11/11
f 9/10/10 30/11/11 11/12/12
f 11/12/12 30/11/11 31/13/13
f 11/12/12 31/13/13 13/14/14
f 13/14/14 31/13/13 32/15/15
f 13/14/14 32/15/15 15/16/16
f 15/16/16 32/15/15 33/17/17
f 15/16/16 33/17/17 17/18/18
f 17/18/18 33/17/17 34/19/19
f 17/18/18 34/19/19 19/20/20
f 19/20/20 34/19/19 35/21/21
f 19/20/20 35/21/21 21/22/22
f 8/23/23 6/24/24 37/25/25
f 21/22/22 35/21/21 36/26/26
f 21/22/22 36/26/26 23/27/27
f 23/27/27 36/26/26 26/2/2
f 23/27/27 26/2/2 1/1/1
f 2/28/28 4/29/29 25/3/3
f 2/28/28 25/3/3 26/2/2
f 4/29/29 6/24/24 27/5/5
f 4/29/29 27/5/5 25/3/3
f 6/24/24 8/23/23 28/7/7
f 6/24/24 28/7/7 27/5/5
f 8/23/23 10/30/30 29/9/9
f 8/23/23 29/9/9 28/7/7
f 10/30/30 12/31/31 30/11/11
f 10/30/30 30/11/11 29/9/9
f 12/31/31 14/32/32 31/13/13
f 12/31/31 31/13/13 30/11/11
f 14/32/32 16/33/33 32/15/15
f 14/32/32 32/15/15 31/13/13
f 16/33/33 18/34/34 33/17/17
f 16/33/33 33/17/17 32/15/15
f 18/34/34 20/35/35 34/19/19
f 18/34/34 34/19/19 33/17/17
f 20/35/35 22/36/36 35/21/21
f 20/35/35 35/21/21 34/19/19
f 22/36/36 24/37/37 36/26/26
f 22/36/36 36/26/26 35/21/21
f 24/37/37 2/28/28 26/2/2
f 24/37/37 26/2/2 36/26/26
f 22/36/36 20/35/35 37/25/25
f 16/33/33 14/32/32 37/25/25
f 10/30/30 8/23/23 37/25/25
f 24/37/37 22/36/36 37/25/25
f 4/29/29 2/28/28 37/25/25
f 18/34/34 16/33/33 37/25/25
f 12/31/31 10/30/30 37/25/25
f 2/28/28 24/37/37 37/25/25
f 6/24/24 4/29/29 37/25/25
f 20/35/35 18/34/34 37/25/25
f 14/32/32 12/31/31 37/25/25
f 38/1/38 40/4/39 62/3/40
f 38/1/38 62/3/40 63/2/41
f 40/4/39 42/6/42 64/5/43
f 40/4/39 64/5/43 62/3/40
f 42/6/42 44/8/44 65/7/45
f 42/6/42 65/7/45 64/5/43
f 44/8/44 46/10/46 66/9/47
f 44/8/44 66/9/47 65/7/45
f 46/10/46 48/12/48 67/11/49
f 46/10/46 67/11/49 66/9/47
f 48/12/48 50/14/50 68/13/51
f 48/12/48 68/13/51 67/11/49
f 50/14/50 52/16/52 69/15/53
f 50/14/50 69/15/53 68/13/51
f 52/16/52 54/18/54 70/17/55
f 52/16/52 70/17/55 69/15/53
f 54/18/54 56/20/56 71/19/57
f 54/18/54 71/19/57 70/17/55
f 56/20/56 58/22/58 72/21/59
f 56/20/56 72/21/59 71/19/57
f 45/23/60 74/25/61 43/24/62
f 58/22/58 60/27/63 73/26/64
f 58/22/58 73/26/64 72/21/59
f 60/27/63 38/1/38 63/2/41
f 60/27/63 63/2/41 73/26/64
f 39/28/65 63/2/41 62/3/40
f 39/28/65 62/3/40 41/29/66
f 41/29/66 62/3/40 64/5/43
f 41/29/66 64/5/43 43/24/62
f 43/24/62 64/5/43 65/7/45
f 43/24/62 65/7/45 45/23/60
f 45/23/60 65/7/45 66/9/47
f 45/23/60 66/9/47 47/30/67
f 47/30/67 66/9/47 67/11/49
f 47/30/67 67/11/49 49/31/68
f 49/31/68 67/11/49 68/13/51
f 49/31/68 68/13/51 51/32/69
f 51/32/69 68/13/51 69/15/53
f 51/32/69 69/15/53 53/33/70
f 53/33/70 69/15/53 70/17/55
f 53/33/70 70/17/55 55/34/71
f 55/34/71 70/17/55 71/19/57
f 55/34/71 71/19/57 57/35/72
f 57/35/72 71/19/57 72/21/59
f 57/35/72 72/21/59 59/36/73
f 59/36/73 72/21/59 73/26/64
f 59/36/73 73/26/64 61/37/74
f 61/37/74 73/26/64 63/2/41
f 61/37/74 63/2/41 39/28/65
f 59/36/73 74/25/61 57/35/72
f 53/33/70 74/25/61 51/32/69
f 47/30/67 74/25/61 45/23/60
f 61/37/74 74/25/61 59/36/73
f 41/29/66 74/25/61 39/28/65
f 55/34/71 74/25/61 53/33/70
f 49/31/68 74/25/61 47/30/67
f 39/28/65 74/25/61 61/37/74
f 43/24/62 74/25/61 41/29/66
f 57/35/72 74/25/61 55/34/71
f 51/32/69 74/25/61 49/31/68
o Object_13
v 0.000000 0.208136 0.063681
v 0.036716 0.184017 0.085390
v 0.027782 0.193221 0.076101
v 0.016393 0.201602 0.068301
v 0.000000 0.208739 0.069798
v 0.037008 0.185513 0.087700
v 0.028200 0.193853 0.080190
v 0.016979 0.202607 0.073476
v 0.000000 0.204080 0.065050
v 0.036716 0.179960 0.086760
v 0.027782 0.189164 0.077471
v 0.016393 0.197546 0.069671
v 0.000000 0.204683 0.071168
v 0.037008 0.181457 0.089069
v 0.028200 0.189797 0.081559
v 0.016979 0.198550 0.074845
v 0.000000 0.192263 0.058462
v 0.000000 0.205266 0.051507
v 0.018142 0.196048 0.055770
v 0.018142 0.196048 0.055770
v 0.018197 0.188223 0.060529
v 0.011651 0.202092 0.061696
v 0.011651 0.202092 0.061696
v 0.022400 0.186080 0.046221
v 0.022400 0.186080 0.046221
v 0.007919 0.192453 0.068371
v 0.020809 0.181379 0.048819
v 0.000000 0.197718 0.068263
v 0.000000 0.181580 0.046066
v 0.000000 0.208952 0.061352
v 0.000000 0.208952 0.061352
v 0.000000 0.195309 0.038576
v 0.000000 0.195309 0.038576
v 0.027265 0.174319 0.061590
v 0.027265 0.174319 0.061590
v 0.027265 0.174319 0.061590
v 0.025159 0.171997 0.054024
v 0.025159 0.171997 0.054024
v 0.025159 0.171997 0.054024
v 0.027265 0.166490 0.063993
v 0.027265 0.166490 0.063993
v 0.027265 0.166490 0.063993
v 0.025159 0.164167 0.056427
v 0.025159 0.164167 0.056427
v 0.025159 0.164167 0.056427
v 0.115326 0.151647 0.047049
v 0.115326 0.151647 0.047049
v 0.115326 0.151647 0.047049
v 0.115326 0.151647 0.047049
v 0.033083 0.174996 0.074623
v 0.033083 0.174996 0.074623
v 0.033083 0.174996 0.074623
v 0.031654 0.172629 0.066913
v 0.031654 0.172629 0.066913
v 0.031654 0.172629 0.066913
v 0.033083 0.167166 0.077026
v 0.033083 0.167166 0.077026
v 0.033083 0.167166 0.077026
v 0.031654 0.164800 0.069317
v 0.031654 0.164800 0.069317
v 0.031654 0.164800 0.069317
v 0.120264 0.156518 0.080801
v 0.120264 0.156518 0.080801
v 0.120264 0.156518 0.080801
v 0.120264 0.156518 0.080801
v 0.035507 0.176159 0.087374
v 0.035507 0.176159 0.087374
v 0.035507 0.176159 0.087374
v 0.035507 0.173755 0.079545
v 0.035507 0.173755 0.079545
v 0.035507 0.173755 0.079545
v 0.035507 0.168330 0.089778
v 0.035507 0.168330 0.089778
v 0.035507 0.168330 0.089778
v 0.035507 0.165926 0.081949
v 0.035507 0.165926 0.081949
v 0.035507 0.165926 0.081949
v 0.110487 0.164961 0.112225
v 0.110487 0.164961 0.112225
v 0.110487 0.164961 0.112225
v 0.110487 0.164961 0.112225
v -0.036716 0.184017 0.085390
v -0.027781 0.193221 0.076101
v -0.016392 0.201602 0.068301
v -0.037007 0.185513 0.087700
v -0.028199 0.193853 0.080190
v -0.016979 0.202607 0.073476
v -0.036716 0.179960 0.086760
v -0.027781 0.189164 0.077471
v -0.016392 0.197546 0.069671
v -0.037007 0.181457 0.089069
v -0.028199 0.189797 0.081559
v -0.016979 0.198550 0.074845
v -0.018142 0.196048 0.055770
v -0.018142 0.196048 0.055770
v -0.018197 0.188223 0.060529
v -0.011651 0.202092 0.061696
v -0.011651 0.202092 0.061696
v -0.022400 0.186080 0.046221
v -0.022400 0.186080 0.046221
v -0.007919 0.192453 0.068371
v -0.020808 0.181379 0.048819
v -0.027265 0.174319 0.061590
v -0.027265 0.174319 0.061590
v -0.027265 0.174319 0.061590
v -0.025159 0.171997 0.054024
v -0.025159 0.171997 0.054024
v -0.025159 0.171997 0.054024
v -0.027265 0.166490 0.063993
v -0.027265 0.166490 0.063993
v -0.027265 0.166490 0.063993
v -0.025159 0.164167 0.056427
v -0.025159 0.164167 0.056427
v -0.025159 0.164167 0.056427
v -0.115326 0.151647 0.047049
v -0.115326 0.151647 0.047049
v -0.115326 0.151647 0.047049
v -0.115326 0.151647 0.047049
v -0.033083 0.174996 0.074623
v -0.033083 0.174996 0.074623
v -0.033083 0.174996 0.074623
v -0.031654 0.172629 0.066913
v -0.031654 0.172629 0.066913
v -0.031654 0.172629 0.066913
v -0.033083 0.167167 0.077026
v -0.033083 0.167167 0.077026
v -0.033083 0.167167 0.077026
v -0.031654 0.164800 0.069317
v -0.031654 0.164800 0.069317
v -0.031654 0.164800 0.069317
v -0.120264 0.156518 0.080801
v -0.120264 0.156518 0.080801
v -0.120264 0.156518 0.080801
v -0.120264 0.156518 0.080801
v -0.035507 0.176159 0.087374
v -0.035507 0.176159 0.087374
v -0.035507 0.176159 0.087374
v -0.035507 0.173755 0.079545
v -0.035507 0.173755 0.079545
v -0.035507 0.173755 0.079545
v -0.035507 0.168330 0.089778
v -0.035507 0.168330 0.089778
v -0.035507 0.168330 0.089778
v -0.035507 0.165926 0.081949
v -0.035507 0.165926 0.081949
v -0.035507 0.165926 0.081949
v -0.110487 0.164961 0.112225
v -0.110487 0.164961 0.112225
v -0.110487 0.164961 0.112225
v -0.110487 0.164961 0.112225
vn 0.5482 0.5670 0.6148
vn 0.8694 0.0533 -0.4913
vn 0.7063 0.2345 -0.6679
vn 0.3717 0.7712 0.5169
vn 0.5051 0.3893 -0.7703
vn 0.3270 0.8190 0.4715
vn -0.0000 0.5664 -0.8241
vn -0.0000 0.9166 0.3999
vn -0.7113 -0.1939 0.6756
vn 0.3373 -0.5498 0.7642
vn -0.1457 -0.8174 -0.5574
vn -0.0969 -0.8041 -0.5865
vn -0.5415 -0.3189 0.7779
vn -0.0000 -0.7437 -0.6685
vn 0.2226 -0.9575 -0.1837
vn -0.0000 -0.4140 0.9103
vn -0.0000 -0.8937 0.4487
vn -0.0000 -0.9593 -0.2824
vn 0.5942 -0.7975 -0.1045
vn 0.5559 -0.4198 0.7174
vn 0.8208 0.0337 -0.5702
vn 0.8255 0.5630 0.0412
vn -0.0000 -0.0769 0.9970
vn 0.1453 -0.4022 0.9040
vn 0.6047 0.7079 0.3650
vn -0.0000 0.9614 0.2752
vn -0.0000 0.3023 -0.9532
vn 0.8208 0.0337 -0.5703
vn -0.0000 0.3022 -0.9532
vn -0.0000 0.8780 -0.4787
vn 0.6047 0.7078 0.3651
vn -0.0000 0.9614 0.2753
vn -0.9664 0.0755 0.2458
vn -0.0980 -0.9434 0.3169
vn 0.1827 0.9244 -0.3347
vn 0.2273 0.2858 0.9309
vn -0.1388 -0.2906 -0.9467
vn -0.9847 0.0512 0.1667
vn -0.1285 -0.9411 0.3127
vn 0.2181 0.9209 -0.3231
vn -0.0055 0.2935 0.9559
vn 0.0960 -0.2921 -0.9515
vn -1.0000 -0.0000 -0.0000
vn -0.1297 -0.9479 0.2910
vn 0.2334 0.9296 -0.2854
vn -0.2634 0.2831 0.9222
vn 0.3570 -0.2741 -0.8930
vn -0.5482 0.5670 0.6148
vn -0.3717 0.7712 0.5169
vn -0.7063 0.2345 -0.6679
vn -0.8694 0.0533 -0.4913
vn -0.3270 0.8190 0.4715
vn -0.5051 0.3893 -0.7703
vn -0.3373 -0.5498 0.7642
vn 0.7113 -0.1939 0.6756
vn 0.0970 -0.8041 -0.5865
vn 0.1457 -0.8174 -0.5574
vn 0.5415 -0.3189 0.7779
vn -0.2226 -0.9575 -0.1837
vn -0.5559 -0.4198 0.7174
vn -0.5942 -0.7975 -0.1045
vn -0.8255 0.5630 0.0412
vn -0.8208 0.0337 -0.5702
vn -0.1453 -0.4022 0.9040
vn -0.6047 0.7079 0.3650
vn -0.8254 0.5630 0.0412
vn -0.6047 0.7078 0.3651
vn 0.9664 0.0755 0.2458
vn 0.0980 -0.9434 0.3169
vn -0.1827 0.9244 -0.3347
vn -0.2273 0.2858 0.9309
vn 0.1388 -0.2906 -0.9467
vn 0.9847 0.0512 0.1667
vn 0.1285 -0.9411 0.3127
vn -0.2181 0.9209 -0.3231
vn 0.0055 0.2935 0.9559
vn -0.0960 -0.2921 -0.9515
vn 1.0000 -0.0000 -0.0000
vn 0.1297 -0.9479 0.2910
vn -0.2334 0.9296 -0.2854
vn 0.2634 0.2831 0.9222
vn -0.3570 -0.2741 -0.8930
vt 0.006679 0.024492
vt 0.007299 0.014665
vt 0.007191 0.016116
vt 0.006422 0.035389
vt 0.006718 0.033463
s 1
usemtl face
f 80/38/75 76/38/76 77/38/77
f 80/38/75 77/38/77 81/38/78
f 81/38/78 77/38/77 78/38/79
f 81/38/78 78/38/79 82/38/80
f 82/38/80 78/38/79 75/38/81
f 82/38/80 75/38/81 79/38/82
f 81/38/78 89/38/83 88/38/84
f 81/38/78 88/38/84 80/38/75
f 77/38/77 85/38/85 86/38/86
f 77/38/77 86/38/86 78/38/79
f 82/38/80 90/38/87 89/38/83
f 82/38/80 89/38/83 81/38/78
f 78/38/79 86/38/86 83/38/88
f 78/38/79 83/38/88 75/38/81
f 76/38/76 84/38/89 85/38/85
f 76/38/76 85/38/85 77/38/77
f 79/38/82 87/38/90 90/38/87
f 79/38/82 90/38/87 82/38/80
f 87/38/90 83/38/88 86/38/86
f 87/38/90 86/38/86 90/38/87
f 90/38/87 86/38/86 85/38/85
f 90/38/87 85/38/85 89/38/83
f 89/38/83 85/38/85 84/38/89
f 89/38/83 84/38/89 88/38/84
f 76/38/76 80/38/75 88/38/84
f 76/38/76 88/38/84 84/38/89
f 91/39/91 103/39/92 101/39/93
f 91/39/91 101/39/93 95/39/94
f 95/39/94 101/39/93 99/39/95
f 95/39/94 99/39/95 94/39/96
f 102/39/97 91/39/91 95/39/94
f 102/39/97 95/39/94 100/39/98
f 102/39/97 100/39/98 97/39/99
f 102/39/97 97/39/99 105/39/100
f 100/39/98 95/39/94 94/39/96
f 100/39/98 94/39/96 97/39/99
f 101/39/93 103/39/92 107/39/101
f 101/39/93 107/39/101 99/39/95
f 93/40/96 98/40/102 106/40/103
f 93/40/96 106/40/103 92/40/104
f 96/40/105 93/40/96 92/40/104
f 96/40/105 92/40/104 104/40/106
s 0
f 108/41/107 111/41/107 117/41/107
f 108/41/107 117/41/107 114/41/107
f 115/41/108 119/41/108 121/41/108
f 122/41/109 113/41/109 109/41/109
f 116/42/110 123/42/110 110/42/110
f 120/41/111 118/41/111 112/41/111
f 124/41/112 127/41/112 133/41/112
f 124/41/112 133/41/112 130/41/112
f 131/41/113 134/41/113 136/41/113
f 139/41/114 129/41/114 126/41/114
f 132/42/115 137/42/115 125/42/115
f 138/41/116 135/41/116 128/41/116
f 140/41/117 143/41/117 149/41/117
f 140/41/117 149/41/117 146/41/117
f 148/41/118 150/41/118 153/41/118
f 154/41/119 144/41/119 142/41/119
f 147/42/120 152/42/120 141/42/120
f 155/41/121 151/41/121 145/41/121
s 1
f 159/38/122 160/38/123 157/38/124
f 159/38/122 157/38/124 156/38/125
f 160/38/123 161/38/126 158/38/127
f 160/38/123 158/38/127 157/38/124
f 161/38/126 79/38/82 75/38/81
f 161/38/126 75/38/81 158/38/127
f 160/38/123 159/38/122 165/38/128
f 160/38/123 165/38/128 166/38/129
f 157/38/124 158/38/127 164/38/130
f 157/38/124 164/38/130 163/38/131
f 161/38/126 160/38/123 166/38/129
f 161/38/126 166/38/129 167/38/132
f 158/38/127 75/38/81 83/38/88
f 158/38/127 83/38/88 164/38/130
f 156/38/125 157/38/124 163/38/131
f 156/38/125 163/38/131 162/38/133
f 79/38/82 161/38/126 167/38/132
f 79/38/82 167/38/132 87/38/90
f 87/38/90 167/38/132 164/38/130
f 87/38/90 164/38/130 83/38/88
f 167/38/132 166/38/129 163/38/131
f 167/38/132 163/38/131 164/38/130
f 166/38/129 165/38/128 162/38/133
f 166/38/129 162/38/133 163/38/131
f 156/38/125 162/38/133 165/38/128
f 156/38/125 165/38/128 159/38/122
f 91/39/91 170/39/134 176/39/135
f 91/39/91 176/39/135 103/39/92
f 170/39/134 169/39/136 174/39/137
f 170/39/134 174/39/137 176/39/135
f 102/39/97 175/39/138 170/39/134
f 102/39/97 170/39/134 91/39/91
f 102/39/97 105/39/100 172/39/139
f 102/39/97 172/39/139 175/39/138
f 175/39/138 172/39/139 169/39/136
f 175/39/138 169/39/136 170/39/134
f 176/39/135 174/39/137 107/39/101
f 176/39/135 107/39/101 103/39/92
f 168/40/140 92/40/104 106/40/103
f 168/40/140 106/40/103 173/40/137
f 171/40/141 104/40/106 92/40/104
f 171/40/141 92/40/104 168/40/140
s 0
f 179/41/142 185/41/142 188/41/142
f 179/41/142 188/41/142 182/41/142
f 184/41/143 191/41/143 186/41/143
f 190/41/144 178/41/144 180/41/144
f 183/42/145 177/42/145 189/42/145
f 192/41/146 181/41/146 187/41/146
f 195/41/147 201/41/147 204/41/147
f 195/41/147 204/41/147 198/41/147
f 200/41/148 208/41/148 203/41/148
f 205/41/149 193/41/149 196/41/149
f 199/42/150 194/42/150 207/42/150
f 206/41/151 197/41/151 202/41/151
f 211/41/152 217/41/152 220/41/152
f 211/41/152 220/41/152 214/41/152
f 215/41/153 223/41/153 219/41/153
f 222/41/154 209/41/154 213/41/154
f 216/42/155 210/42/155 224/42/155
f 221/41/156 212/41/156 218/41/156
o Object_7
v 0.248811 6.225690 4.385291
v 0.396682 6.462553 4.002776
v 0.396682 6.462553 4.002776
v 0.359223 5.972150 4.385291
v 0.605239 5.877776 3.998687
v 0.605239 5.877776 3.998687
v 0.289704 5.694074 4.385291
v 0.490737 5.358427 3.990508
v 0.490737 5.358427 3.990508
v 0.516758 7.206085 3.517217
v 1.057030 7.256664 2.762722
v 1.024717 7.234914 1.900646
v 0.534096 7.648945 1.986006
v 0.559428 7.342964 1.417516
v 0.514734 7.658423 2.793594
v 0.672070 6.582311 1.227019
v 0.717758 5.666769 1.069054
v 0.717758 5.666769 1.069054
v 1.082218 6.180529 3.485672
v 1.043931 5.612519 3.525260
v 0.881755 4.958121 3.540074
v 1.324538 6.639946 2.776192
v 1.225612 6.619579 1.880038
v 1.439786 5.802846 2.840323
v 1.422505 5.359548 1.697910
v 1.422505 5.359548 1.697910
v 1.044256 6.947491 3.195978
v 0.989407 4.469217 3.130257
v 0.989407 4.469217 3.130257
v 1.267635 5.318992 3.166313
v 1.464614 4.837543 2.621065
v 1.464614 4.837543 2.621065
v 0.822413 4.583928 0.013725
v 0.864591 4.301339 -0.931950
v 1.507181 4.131131 0.197643
v 1.612703 3.221629 0.726245
v 1.063179 2.502698 1.076868
v 0.769709 5.107493 0.714173
v 1.494197 4.664377 1.048689
v 1.067195 3.283043 2.400702
v 1.670606 3.867979 1.818983
v 1.470749 3.802716 -0.705062
v 1.566524 2.874658 -0.295224
v 1.076684 2.258039 -0.077592
v 0.846469 3.795866 -2.857631
v 1.400632 3.260799 -2.695798
v 1.451458 2.566329 -2.565953
v 0.973039 2.129081 -2.496052
v 1.436576 3.481511 -1.792518
v 0.888204 4.043805 -2.000685
v 1.562082 2.650352 -1.490223
v 1.021719 2.085665 -1.344599
v 0.714085 3.582313 -3.337605
v 1.136777 3.134776 -3.170202
v 1.188772 2.609348 -3.087953
v 0.801753 2.312714 -3.115759
v 0.664622 2.891948 -3.436914
v -0.000000 6.258732 4.548865
v -0.248811 6.225690 4.385291
v 0.000000 6.627764 4.051848
v 0.000000 6.627764 4.051848
v -0.396682 6.462553 4.002776
v -0.396682 6.462553 4.002776
v -0.359223 5.972150 4.385291
v -0.605239 5.877776 3.998687
v -0.605239 5.877776 3.998687
v -0.289704 5.694074 4.385291
v -0.490737 5.358427 3.990508
v -0.490737 5.358427 3.990508
v -0.000000 5.600019 4.503882
v -0.000000 5.121245 3.986418
v -0.000000 5.121245 3.986418
v -0.000000 5.121245 3.986418
v -0.000000 5.965383 4.618910
v 0.000000 7.271514 3.611367
v -0.516758 7.206085 3.517217
v -1.057030 7.256664 2.762722
v -1.024717 7.234914 1.900646
v 0.000000 7.705864 1.973493
v -0.534096 7.648945 1.986006
v 0.000000 7.331392 1.294735
v -0.559428 7.342964 1.417516
v -0.514734 7.658423 2.793594
v 0.000000 7.761775 2.813064
v 0.000000 6.611383 1.057280
v -0.672070 6.582311 1.227019
v 0.000000 5.769940 0.869678
v 0.000000 5.769940 0.869678
v -0.717758 5.666769 1.069054
v -0.717758 5.666769 1.069054
v -1.082218 6.180529 3.485672
v -1.043931 5.612519 3.525260
v -0.881755 4.958121 3.540074
v -0.000000 4.723338 3.748352
v -0.000000 4.723338 3.748352
v -1.324538 6.639946 2.776192
v -1.225612 6.619579 1.880038
v -1.439786 5.802846 2.840323
v -1.422505 5.359548 1.697910
v -1.422505 5.359548 1.697910
v -1.044256 6.947491 3.195978
v -0.989407 4.469217 3.130257
v -0.989407 4.469217 3.130257
v -1.267635 5.318992 3.166313
v -0.000000 4.200009 3.401931
v -0.000000 4.200009 3.401931
v -0.000000 4.200009 3.401931
v -0.000000 4.200009 3.401931
v -1.464614 4.837543 2.621065
v -1.464614 4.837543 2.621065
v 0.000000 4.918024 -0.145516
v -0.822413 4.583928 0.013725
v -0.864591 4.301339 -0.931950
v 0.000000 4.664865 -1.014156
v -1.507181 4.131131 0.197643
v -1.612703 3.221629 0.726245
v -1.063179 2.502698 1.076868
v 0.000000 2.075802 1.303170
v 0.000000 2.075802 1.303170
v -0.769709 5.107493 0.714173
v 0.000000 5.335497 0.547449
v -1.494197 4.664377 1.048689
v -1.067195 3.283043 2.400702
v 0.000000 2.995541 2.732552
v 0.000000 2.995541 2.732552
v -1.670606 3.867979 1.818983
v -1.470749 3.802716 -0.705062
v -1.566524 2.874658 -0.295224
v -1.076684 2.258039 -0.077592
v 0.000000 1.796834 0.048121
v 0.000000 1.796834 0.048121
v -0.846469 3.795866 -2.857631
v 0.000000 4.083459 -3.052073
v -1.400632 3.260799 -2.695798
v -1.451458 2.566329 -2.565953
v -0.973039 2.129081 -2.496052
v 0.000000 1.884315 -2.491900
v 0.000000 1.884315 -2.491900
v -1.436576 3.481511 -1.792518
v -0.888204 4.043805 -2.000685
v -1.562082 2.650352 -1.490223
v -1.021719 2.085665 -1.344599
v 0.000000 1.742015 -1.276610
v 0.000000 1.742015 -1.276610
v 0.000000 4.382337 -2.154192
v -0.714085 3.582313 -3.337605
v 0.000000 3.731716 -3.486661
v -1.136777 3.134776 -3.170202
v -1.188772 2.609348 -3.087953
v -0.801753 2.312714 -3.115759
v 0.000000 2.200277 -3.202971
v 0.000000 2.200277 -3.202971
v 0.000000 2.871323 -3.545168
v 0.000000 2.871323 -3.545168
v -0.664622 2.891948 -3.436914
v 0.936016 0.056401 2.077321
v 0.936016 0.056401 1.805176
v 1.208162 0.056401 2.077321
v 1.208161 0.056401 1.805176
v 0.906198 0.039348 1.941248
v 0.898428 4.116887 2.114909
v 0.898428 0.202310 1.767588
v 1.072089 0.039348 1.775357
v 1.072089 0.039348 1.775357
v 1.245749 0.202310 1.767588
v 1.237980 0.039348 1.941248
v 1.245749 0.202310 2.114909
v 1.072089 0.039348 2.107140
v 0.898428 0.202310 2.114909
v 0.898428 4.116887 1.767588
v 1.245749 4.116887 1.767588
v 1.245750 4.116887 2.114909
v 0.833122 4.118531 1.941249
v 1.072089 4.118531 1.702281
v 1.072089 4.118531 1.702281
v 1.311056 4.118531 1.941248
v 1.072089 4.118531 2.180215
v 1.072089 0.003560 1.941248
v 1.072089 0.003560 1.941248
v 1.072089 0.200629 2.180215
v 1.311056 0.200629 1.941248
v 1.072089 0.200629 1.702281
v 1.072089 0.200629 1.702281
v 0.833122 0.200629 1.941248
v 0.833122 1.841591 1.941249
v 1.072089 1.841591 1.702281
v 1.072089 1.841591 1.702281
v 1.311056 1.841591 1.941248
v 1.072089 1.841591 2.180215
v 1.245749 1.841609 2.114909
v 1.245749 1.841609 1.767588
v 0.898428 1.841609 1.767588
v 0.898428 1.841609 2.114909
v -0.936016 0.056401 2.077321
v -0.936016 0.056401 1.805176
v -1.208162 0.056401 2.077321
v -1.208161 0.056401 1.805176
v -0.906198 0.039348 1.941248
v -0.898428 4.116887 2.114909
v -0.898428 0.202310 1.767588
v -1.072089 0.039348 1.775357
v -1.072089 0.039348 1.775357
v -1.245749 0.202310 1.767588
v -1.237980 0.039348 1.941248
v -1.245749 0.202310 2.114909
v -1.072089 0.039348 2.107140
v -0.898428 0.202310 2.114909
v -0.898428 4.116887 1.767588
v -1.245749 4.116887 1.767588
v -1.245750 4.116887 2.114909
v -0.833122 4.118531 1.941249
v -1.072089 4.118531 1.702281
v -1.072089 4.118531 1.702281
v -1.311056 4.118531 1.941248
v -1.072089 4.118531 2.180215
v -1.072089 0.003560 1.941248
v -1.072089 0.003560 1.941248
v -1.072089 0.200629 2.180215
v -1.311056 0.200629 1.941248
v -1.072089 0.200629 1.702281
v -1.072089 0.200629 1.702281
v -0.833122 0.200629 1.941248
v -0.833122 1.841591 1.941249
v -1.072089 1.841591 1.702281
v -1.072089 1.841591 1.702281
v -1.311056 1.841591 1.941248
v -1.072089 1.841591 2.180215
v -1.245749 1.841609 2.114909
v -1.245749 1.841609 1.767588
v -0.898428 1.841609 1.767588
v -0.898428 1.841609 2.114909
v 0.936016 0.056401 -1.903387
v 0.936016 0.056401 -2.175533
v 1.208162 0.056401 -1.903387
v 1.208161 0.056401 -2.175533
v 0.906198 0.039348 -2.039460
v 0.898428 2.961716 -1.865799
v 0.898428 0.202310 -2.213120
v 1.072089 0.039348 -2.205351
v 1.072089 0.039348 -2.205351
v 1.245749 0.202310 -2.213121
v 1.237980 0.039348 -2.039460
v 1.245749 0.202310 -1.865799
v 1.072089 0.039348 -1.873569
v 0.898428 0.202310 -1.865799
v 0.898428 2.961716 -2.213120
v 1.245749 2.961716 -2.213120
v 1.245750 2.961716 -1.865799
v 0.833122 2.963360 -2.039460
v 1.072089 2.963360 -2.278427
v 1.072089 2.963360 -2.278427
v 1.311056 2.963360 -2.039460
v 1.072089 2.963360 -1.800493
v 1.072089 0.003561 -2.039460
v 1.072089 0.003561 -2.039460
v 1.072089 0.200629 -1.800493
v 1.311056 0.200629 -2.039460
v 1.072089 0.200629 -2.278427
v 1.072089 0.200629 -2.278427
v 0.833122 0.200629 -2.039460
v 0.833122 1.841591 -2.039460
v 1.072089 1.841591 -2.278427
v 1.072089 1.841591 -2.278427
v 1.311056 1.841591 -2.039460
v 1.072089 1.841591 -1.800493
v 1.245749 1.841610 -1.865799
v 1.245749 1.841610 -2.213121
v 0.898428 1.841610 -2.213120
v 0.898428 1.841610 -1.865799
v -0.936016 0.056401 -1.903387
v -0.936016 0.056401 -2.175533
v -1.208162 0.056401 -1.903387
v -1.208161 0.056401 -2.175533
v -0.906198 0.039348 -2.039460
v -0.898428 2.961716 -1.865799
v -0.898428 0.202310 -2.213120
v -1.072089 0.039348 -2.205351
v -1.072089 0.039348 -2.205351
v -1.245749 0.202310 -2.213121
v -1.237980 0.039348 -2.039460
v -1.245749 0.202310 -1.865799
v -1.072089 0.039348 -1.873569
v -0.898428 0.202310 -1.865799
v -0.898428 2.961716 -2.213120
v -1.245749 2.961716 -2.213120
v -1.245750 2.961716 -1.865799
v -0.833122 2.963360 -2.039460
v -1.072089 2.963360 -2.278427
v -1.072089 2.963360 -2.278427
v -1.311056 2.963360 -2.039460
v -1.072089 2.963360 -1.800493
v -1.072089 0.003561 -2.039460
v -1.072089 0.003561 -2.039460
v -1.072089 0.200629 -1.800493
v -1.311056 0.200629 -2.039460
v -1.072089 0.200629 -2.278427
v -1.072089 0.200629 -2.278427
v -0.833122 0.200629 -2.039460
v -0.833122 1.841591 -2.039460
v -1.072089 1.841591 -2.278427
v -1.072089 1.841591 -2.278427
v -1.311056 1.841591 -2.039460
v -1.072089 1.841591 -1.800493
v -1.245749 1.841610 -1.865799
v -1.245749 1.841610 -2.213121
v -0.898428 1.841610 -2.213120
v -0.898428 1.841610 -1.865799
v -0.230410 2.923875 -7.176082
v -0.230410 3.380100 -7.123294
v 0.230410 2.923875 -7.176082
v 0.230410 3.380100 -7.123294
v -0.296572 3.374035 -6.481917
v 0.296572 2.782422 -6.499513
v -0.296572 2.782422 -6.499512
v 0.296572 3.374035 -6.481916
v -0.242862 2.791061 -4.952309
v 0.242862 3.276784 -4.952309
v -0.242862 3.276784 -4.952309
v 0.242862 2.791061 -4.952309
v -0.200131 3.002719 -3.032562
v -0.293381 3.415176 -6.923596
v -0.280643 3.157507 -7.184744
v 0.000000 2.879900 -7.219631
v 0.000000 2.879900 -7.219631
v -0.000000 3.435114 -7.149858
v 0.280643 3.157507 -7.184744
v 0.293381 2.832502 -6.970580
v 0.200131 3.402981 -3.032562
v 0.000000 3.391528 -5.260819
v -0.200131 3.402981 -3.032562
v 0.200131 3.002719 -3.032562
v -0.000000 2.694228 -5.265710
v -0.000000 2.694228 -5.265710
v -0.293381 2.832502 -6.970580
v 0.293381 3.415176 -6.923595
v 0.407787 3.078228 -6.490715
v 0.000000 2.671495 -6.502812
v 0.000000 2.671495 -6.502812
v 0.000000 3.484962 -6.478617
v -0.407787 3.078228 -6.490715
v 0.348863 3.042878 -5.263264
v -0.348863 3.042878 -5.263264
v -0.333935 3.033923 -4.952309
v 0.333935 3.033923 -4.952309
v -0.000000 2.699987 -4.952309
v -0.000000 2.699987 -4.952309
v 0.000000 3.367858 -4.952309
v -0.403655 3.124383 -6.950545
v -0.000000 3.169090 -7.258315
v -0.000000 3.169090 -7.258315
v 0.275125 3.203134 -3.030074
v -0.000000 2.928009 -3.030074
v -0.000000 2.928009 -3.030074
v 0.000000 3.478259 -3.030074
v 0.253718 3.296442 -5.261486
v -0.253718 2.789315 -5.265043
v 0.253718 2.789314 -5.265042
v -0.275125 3.203134 -3.030074
v 0.403655 3.124383 -6.950543
v 0.000000 2.723593 -6.983459
v 0.000000 2.723593 -6.983459
v 0.000000 3.525174 -6.917627
v -0.253718 3.296442 -5.261486
v 0.568614 7.675466 2.473314
v 1.156702 7.250645 2.483073
v 0.975879 8.152310 2.574227
v 1.195534 8.026547 2.550313
v 0.753406 7.926022 2.512901
v 1.204761 7.625396 2.512814
v 0.872519 7.459112 2.478194
v 1.104409 8.219810 2.615320
v 0.979084 7.775709 2.512857
v 0.526043 7.723603 2.375327
v 1.180223 7.270083 2.302888
v 0.944031 8.172330 2.432797
v 1.209104 8.073532 2.441017
v 0.718670 7.969321 2.410728
v 1.236954 7.695337 2.346485
v 1.087899 8.251287 2.487158
v 1.087899 8.251287 2.487158
v 0.772378 7.491574 2.173750
v 0.772378 7.491574 2.173750
v 1.053958 8.119370 2.369467
v 1.053958 8.119370 2.369467
v 0.958484 7.862225 2.225830
v 0.958484 7.862225 2.225830
v 1.076827 8.096437 2.571408
v 0.485331 7.464433 2.484069
v 1.067129 7.012094 2.494966
v 0.776230 7.238263 2.489517
v 0.437795 7.518184 2.374655
v 1.093393 7.033797 2.293768
v 0.664411 7.274513 2.149570
v 0.664411 7.274513 2.149570
v -0.568614 7.675466 2.473314
v -1.156702 7.250647 2.483073
v -0.975879 8.152310 2.574228
v -1.195535 8.026547 2.550313
v -0.753407 7.926021 2.512901
v -1.204761 7.625396 2.512814
v -0.872519 7.459112 2.478194
v -1.104409 8.219810 2.615321
v -0.979084 7.775709 2.512858
v -0.526043 7.723603 2.375327
v -1.180223 7.270084 2.302888
v -0.944032 8.172330 2.432797
v -1.209104 8.073532 2.441017
v -0.718670 7.969321 2.410728
v -1.236955 7.695338 2.346485
v -1.087900 8.251287 2.487158
v -1.087900 8.251287 2.487158
v -0.772378 7.491575 2.173750
v -0.772378 7.491575 2.173750
v -1.053958 8.119370 2.369467
v -1.053958 8.119370 2.369467
v -0.958484 7.862225 2.225830
v -0.958484 7.862225 2.225830
v -1.076828 8.096437 2.571409
v -0.485331 7.464434 2.484069
v -1.067129 7.012094 2.494966
v -0.776230 7.238264 2.489517
v -0.437795 7.518184 2.374655
v -1.093393 7.033798 2.293768
v -0.664411 7.274514 2.149570
v -0.664411 7.274514 2.149570
vn -0.0000 0.5195 0.8545
vn 0.6092 0.4515 0.6519
vn 0.5720 0.4418 0.6911
vn -0.0000 0.6538 0.7567
vn 0.7247 0.0549 0.6869
vn 0.7609 0.0186 0.6486
vn 0.5864 -0.3603 0.7255
vn 0.5430 -0.4052 0.7355
vn -0.0000 -0.5005 0.8657
vn -0.0000 -0.6166 0.7873
vn -0.0000 0.0060 1.0000
vn -0.0000 0.6537 0.7567
vn 0.4313 0.6210 0.6545
vn -0.0000 0.7092 0.7050
vn 0.3643 0.9037 -0.2249
vn 0.3924 0.8887 0.2371
vn 0.7727 0.6103 0.1744
vn 0.7847 0.5339 -0.3150
vn 0.9562 0.2524 0.1483
vn 0.8937 0.2489 -0.3734
vn -0.0000 0.9644 -0.2643
vn 0.4127 0.5905 -0.6936
vn -0.0000 0.6065 -0.7951
vn -0.0000 0.9677 0.2521
vn 0.5093 0.2382 -0.8270
vn -0.0000 0.2467 -0.9691
vn 0.5235 0.3753 -0.7649
vn -0.0000 0.3927 -0.9197
vn -0.0000 -0.6165 0.7873
vn -0.0000 -0.5670 0.8237
vn 0.5884 -0.3717 0.7181
vn 0.7692 -0.0508 0.6370
vn 0.7829 0.1662 0.5995
vn 0.9729 0.0763 0.2185
vn 0.9252 0.2417 -0.2925
vn 0.7491 0.4255 0.5078
vn 0.8485 -0.1334 0.5121
vn -0.0000 -0.5332 0.8460
vn 0.6087 -0.3998 0.6853
vn 0.9463 -0.1015 0.3068
vn -0.0000 0.7134 -0.7007
vn 0.5050 0.6412 -0.5778
vn 0.5125 0.7774 -0.3647
vn -0.0000 0.9094 -0.4159
vn 0.8843 0.4136 -0.2168
vn 0.9611 -0.2637 0.0825
vn 0.9549 -0.2950 0.0341
vn 0.8916 0.4290 -0.1449
vn 0.5235 0.3754 -0.7649
vn 0.8851 0.3762 -0.2739
vn 0.9608 -0.1714 0.2180
vn 0.6076 -0.5533 0.5698
vn -0.0000 -0.5331 0.8461
vn -0.0000 -0.6920 0.7219
vn 0.6154 -0.7320 0.2924
vn -0.0000 -0.9252 0.3796
vn 0.6067 -0.7843 0.1296
vn 0.5392 0.8112 -0.2263
vn -0.0000 -0.9888 0.1491
vn -0.0000 0.9673 -0.2538
vn 0.5609 0.7960 -0.2273
vn 0.9043 0.4039 -0.1382
vn 0.8893 0.3302 -0.3163
vn 0.5583 0.7371 -0.3808
vn 0.9445 -0.3278 -0.0209
vn 0.8932 -0.3747 -0.2485
vn 0.5395 -0.8419 0.0124
vn 0.4689 -0.8576 -0.2111
vn -0.0000 -1.0000 0.0002
vn -0.0000 -0.9739 -0.2269
vn -0.0000 0.9625 -0.2714
vn -0.0000 0.8966 -0.4429
vn 0.3422 -0.6952 -0.6321
vn 0.6863 -0.3605 -0.6317
vn 0.4413 0.4633 -0.7685
vn -0.0000 0.5228 -0.8524
vn 0.0001 -0.7394 -0.6732
vn 0.7081 0.1832 -0.6820
vn 0.3032 -0.1564 -0.9400
vn -0.0000 -0.1879 -0.9822
vn -0.5720 0.4418 0.6911
vn -0.6092 0.4515 0.6519
vn -0.7609 0.0186 0.6486
vn -0.7247 0.0549 0.6869
vn -0.5430 -0.4052 0.7355
vn -0.5864 -0.3603 0.7255
vn -0.4313 0.6210 0.6545
vn -0.3643 0.9037 -0.2249
vn -0.7847 0.5339 -0.3150
vn -0.7727 0.6103 0.1744
vn -0.3924 0.8887 0.2371
vn -0.8937 0.2489 -0.3734
vn -0.9562 0.2524 0.1483
vn -0.4127 0.5905 -0.6936
vn -0.5093 0.2382 -0.8270
vn -0.5235 0.3753 -0.7649
vn -0.5884 -0.3717 0.7181
vn -0.0000 -0.6165 0.7874
vn -0.7692 -0.0508 0.6370
vn -0.7829 0.1662 0.5995
vn -0.9252 0.2417 -0.2925
vn -0.9729 0.0763 0.2185
vn -0.7491 0.4255 0.5078
vn -0.8485 -0.1334 0.5121
vn -0.6087 -0.3998 0.6853
vn -0.0000 -0.5331 0.8460
vn -0.9463 -0.1015 0.3068
vn -0.5125 0.7774 -0.3647
vn -0.5050 0.6412 -0.5778
vn -0.8843 0.4136 -0.2168
vn -0.8916 0.4290 -0.1449
vn -0.9549 -0.2950 0.0341
vn -0.9611 -0.2637 0.0825
vn -0.8851 0.3762 -0.2739
vn -0.5235 0.3754 -0.7649
vn -0.9608 -0.1714 0.2180
vn -0.6076 -0.5533 0.5698
vn -0.6154 -0.7320 0.2924
vn -0.0000 -0.9251 0.3796
vn -0.6067 -0.7843 0.1296
vn -0.5392 0.8112 -0.2263
vn -0.5609 0.7960 -0.2273
vn -0.5583 0.7371 -0.3808
vn -0.8893 0.3302 -0.3163
vn -0.9043 0.4039 -0.1382
vn -0.8932 -0.3747 -0.2485
vn -0.9445 -0.3278 -0.0209
vn -0.4689 -0.8576 -0.2111
vn -0.5395 -0.8419 0.0124
vn -0.6863 -0.3605 -0.6317
vn -0.3422 -0.6952 -0.6321
vn -0.4413 0.4633 -0.7685
vn -0.0001 -0.7394 -0.6732
vn -0.7081 0.1832 -0.6820
vn -0.3032 -0.1564 -0.9400
vn 0.7071 -0.0000 0.7071
vn -0.0000 -0.0000 1.0000
vn -0.5289 -0.6637 -0.5289
vn -0.0000 -0.7564 -0.6541
vn -0.0000 -1.0000 -0.0000
vn -0.6541 -0.7564 -0.0000
vn 0.5289 -0.6637 -0.5289
vn 0.6541 -0.7564 -0.0000
vn 0.5289 -0.6637 0.5289
vn -0.0000 -0.7564 0.6541
vn -0.5289 -0.6637 0.5289
vn 0.6944 -0.1889 0.6944
vn -0.0000 -0.1833 0.9831
vn 0.7071 -0.0000 -0.7071
vn 1.0000 -0.0000 -0.0000
vn 0.9831 -0.1833 -0.0000
vn -0.6944 -0.1889 0.6944
vn 0.6944 -0.1889 -0.6944
vn -0.7071 -0.0000 -0.7071
vn -0.0000 -0.0000 -1.0000
vn -0.0000 -0.1833 -0.9831
vn -0.6944 -0.1889 -0.6944
vn -0.7071 -0.0000 0.7071
vn -1.0000 -0.0000 -0.0000
vn -0.9831 -0.1833 -0.0000
vn -0.7021 -0.7116 -0.0259
vn -0.9998 -0.0084 0.0185
vn -0.9767 0.0181 -0.2137
vn -0.6865 -0.6674 -0.2887
vn -0.7109 0.7004 0.0647
vn -0.6922 0.7067 -0.1464
vn -0.5223 0.5985 -0.6075
vn -0.6438 0.0892 -0.7600
vn -0.5250 -0.4463 -0.7247
vn -0.0000 0.1230 -0.9924
vn -0.0000 -0.5489 -0.8359
vn -0.0000 0.7316 -0.6817
vn 0.5223 0.5985 -0.6075
vn 0.6438 0.0892 -0.7600
vn 0.0001 -0.5489 -0.8359
vn 0.5250 -0.4463 -0.7247
vn -0.7147 0.6992 0.0202
vn -0.0000 1.0000 0.0098
vn -0.0000 0.9971 0.0765
vn -0.7056 0.7052 0.0696
vn 0.9998 -0.0085 0.0185
vn 0.9989 -0.0009 0.0479
vn 0.7064 -0.7072 0.0285
vn 0.7021 -0.7116 -0.0259
vn 0.6983 -0.7132 0.0608
vn -0.0000 -0.9977 0.0675
vn -0.0000 -0.9998 0.0185
vn -0.9991 -0.0130 0.0400
vn -0.9989 -0.0010 0.0479
vn -0.7063 -0.7073 0.0285
vn -0.6983 -0.7132 0.0608
vn 0.7106 0.7006 0.0647
vn 0.7056 0.7052 0.0696
vn 0.7158 -0.6922 0.0923
vn 0.0001 -0.9930 0.1178
vn -0.0000 0.9984 -0.0573
vn 0.6954 0.7179 -0.0317
vn 0.7147 0.6992 0.0202
vn 0.9994 0.0200 0.0288
vn 0.9991 -0.0129 0.0401
vn -0.0001 -0.9930 0.1178
vn -0.7157 -0.6922 0.0923
vn -0.6954 0.7179 -0.0318
vn -0.9994 0.0201 0.0288
vn -0.0000 -0.9990 -0.0446
vn 0.9767 0.0181 -0.2137
vn 0.6865 -0.6674 -0.2887
vn 0.6922 0.7067 -0.1464
vn -0.0001 -0.9495 -0.3139
vn 0.0001 -0.9495 -0.3139
vn -0.0000 0.9939 -0.1099
vn 0.0002 0.9965 0.0838
vn -0.0602 -0.1145 0.9916
vn 0.6517 -0.1154 0.7497
vn 0.6972 0.0598 0.7144
vn -0.0683 -0.2361 0.9693
vn -0.0264 -0.0202 0.9994
vn 0.6805 -0.1811 0.7100
vn -0.4923 0.2352 0.8381
vn -0.4843 0.2785 0.8294
vn -0.4767 0.3913 0.7872
vn -0.7152 0.6552 -0.2431
vn -0.8246 0.5122 -0.2402
vn 0.8273 -0.1739 -0.5342
vn 0.8756 0.0333 -0.4819
vn 0.2250 0.5513 0.8034
vn 0.2088 0.9644 -0.1620
vn -0.5201 0.7953 -0.3114
vn 0.8673 0.3565 -0.3473
vn 0.2088 0.9645 -0.1620
vn 0.0454 0.3087 -0.9501
vn 0.1460 0.5111 -0.8470
vn -0.0748 0.1594 -0.9844
vn -0.3584 0.1880 0.9145
vn 0.0156 0.0443 0.9989
vn -0.8718 0.4202 -0.2517
vn 0.8177 -0.2716 -0.5075
vn -0.0516 0.0973 -0.9939
vn 0.6706 -0.2164 0.7096
vn 0.0602 -0.1145 0.9916
vn 0.0683 -0.2361 0.9693
vn -0.6972 0.0598 0.7144
vn -0.6517 -0.1154 0.7497
vn 0.0264 -0.0202 0.9994
vn -0.6805 -0.1810 0.7100
vn 0.4923 0.2352 0.8381
vn 0.4843 0.2785 0.8294
vn 0.4767 0.3913 0.7872
vn 0.8245 0.5123 -0.2402
vn 0.7152 0.6552 -0.2431
vn -0.8756 0.0333 -0.4819
vn -0.8273 -0.1739 -0.5342
vn 0.5201 0.7953 -0.3114
vn -0.2088 0.9644 -0.1620
vn -0.2250 0.5513 0.8034
vn -0.2088 0.9645 -0.1620
vn -0.8673 0.3565 -0.3473
vn -0.1460 0.5111 -0.8470
vn -0.0454 0.3087 -0.9501
vn 0.0748 0.1594 -0.9844
vn -0.0156 0.0443 0.9989
vn 0.3584 0.1880 0.9145
vn 0.8718 0.4202 -0.2517
vn 0.0516 0.0973 -0.9939
vn -0.8177 -0.2716 -0.5075
vn -0.6706 -0.2161 0.7097
vt 0.873053 0.305878
vt 0.903503 0.309699
vt 0.944501 0.361655
vt 0.873149 0.385604
vt 0.918356 0.280682
vt 0.983305 0.267422
vt 0.911017 0.246704
vt 0.956100 0.181636
vt 0.872973 0.239008
vt 0.872860 0.144580
vt 0.873020 0.278216
vt 0.721489 0.271443
vt 0.721178 0.311670
vt 0.657996 0.296642
vt 0.661835 0.271443
vt 0.594571 0.289962
vt 0.622385 0.290207
vt 0.621094 0.316155
vt 0.586881 0.312478
vt 0.621492 0.347449
vt 0.575224 0.339986
vt 0.594693 0.271443
vt 0.572423 0.291394
vt 0.568390 0.271443
vt 0.623635 0.271443
vt 0.541076 0.308831
vt 0.533512 0.271443
vt 0.479785 0.342734
vt 0.464894 0.271443
vt 0.749369 0.414844
vt 0.790365 0.444739
vt 0.779970 0.486631
vt 0.701191 0.457618
vt 0.731998 0.368552
vt 0.684100 0.404906
vt 0.670721 0.364953
vt 0.623635 0.398524
vt 0.527681 0.418665
vt 0.643026 0.325880
vt 0.653798 0.432362
vt 0.763619 0.542644
vt 0.671684 0.507409
vt 0.606153 0.475953
vt 0.352651 0.367191
vt 0.352141 0.429660
vt 0.289631 0.431719
vt 0.291408 0.367194
vt 0.279893 0.488326
vt 0.271078 0.555909
vt 0.208090 0.534907
vt 0.220397 0.474382
vt 0.399440 0.421109
vt 0.415085 0.490676
vt 0.348011 0.494998
vt 0.434357 0.564836
vt 0.349639 0.569213
vt 0.443680 0.619929
vt 0.350552 0.633896
vt 0.449488 0.696095
vt 0.351640 0.710443
vt 0.255875 0.615103
vt 0.234750 0.690403
vt 0.394021 0.367191
vt 0.189869 0.581660
vt 0.224752 0.424964
vt 0.152697 0.650742
vt 0.230910 0.367201
vt 0.163463 0.416966
vt 0.159102 0.458553
vt 0.117927 0.445983
vt 0.119805 0.411439
vt 0.147551 0.503260
vt 0.106922 0.473014
vt 0.124900 0.540744
vt 0.084739 0.494277
vt 0.078689 0.593775
vt 0.025525 0.522895
vt 0.162506 0.367214
vt 0.113212 0.367225
vt 0.067059 0.465681
vt 0.087796 0.457763
vt 0.093902 0.408576
vt 0.079007 0.367235
vt 0.015232 0.463259
vt 0.096342 0.437223
vt 0.069155 0.432341
vt 0.033321 0.409665
vt 0.801740 0.361827
vt 0.842613 0.309772
vt 0.762710 0.267686
vt 0.827690 0.280791
vt 0.789709 0.181836
vt 0.834948 0.246795
vt 0.657996 0.246244
vt 0.721178 0.231216
vt 0.594571 0.252924
vt 0.586881 0.230408
vt 0.621094 0.226731
vt 0.622385 0.252679
vt 0.575223 0.202900
vt 0.621492 0.195437
vt 0.572423 0.251493
vt 0.541076 0.234056
vt 0.479785 0.200153
vt 0.749369 0.128042
vt 0.701191 0.085268
vt 0.779970 0.056255
vt 0.790365 0.098148
vt 0.731998 0.174334
vt 0.684100 0.137980
vt 0.670721 0.177933
vt 0.527681 0.124221
vt 0.623635 0.144362
vt 0.643026 0.217006
vt 0.653797 0.110524
vt 0.671684 0.035477
vt 0.763619 0.000243
vt 0.606153 0.066933
vt 0.289620 0.302665
vt 0.352139 0.304716
vt 0.279868 0.246049
vt 0.220363 0.260014
vt 0.208033 0.199478
vt 0.271033 0.178450
vt 0.348002 0.239364
vt 0.415098 0.243681
vt 0.399446 0.313268
vt 0.349618 0.165123
vt 0.434371 0.169489
vt 0.350517 0.100413
vt 0.443691 0.114367
vt 0.351585 0.023830
vt 0.449488 0.038159
vt 0.255807 0.119240
vt 0.234647 0.043917
vt 0.189789 0.152718
vt 0.224735 0.309438
vt 0.152576 0.083627
vt 0.163443 0.317458
vt 0.119784 0.323006
vt 0.117888 0.288458
vt 0.159064 0.275868
vt 0.106868 0.261428
vt 0.147492 0.231156
vt 0.084669 0.240172
vt 0.124818 0.193673
vt 0.025423 0.211578
vt 0.078567 0.140647
vt 0.087747 0.276693
vt 0.067001 0.268784
vt 0.093879 0.325882
vt 0.015163 0.271238
vt 0.096304 0.297231
vt 0.033292 0.324832
vt 0.069116 0.302129
vt 0.198297 0.799745
vt 0.000389 0.799948
vt 0.000243 0.783742
vt 0.198190 0.783742
vt 0.342329 0.750265
vt 0.354810 0.744037
vt 0.356891 0.765589
vt 0.339757 0.760824
vt 0.354810 0.823447
vt 0.342329 0.817219
vt 0.339757 0.806660
vt 0.356891 0.801895
vt 0.337077 0.796492
vt 0.343844 0.783742
vt 0.337077 0.770992
vt 0.325704 0.796832
vt 0.326428 0.783742
vt 0.198925 0.831930
vt 0.000431 0.832369
vt 0.000264 0.816158
vt 0.198522 0.815799
vt 0.327469 0.809672
vt 0.325704 0.770652
vt 0.331223 0.823361
vt 0.198925 0.735554
vt 0.000431 0.735114
vt 0.000318 0.718891
vt 0.199415 0.719276
vt 0.199415 0.848207
vt 0.340743 0.838960
vt 0.331223 0.744123
vt 0.340743 0.728523
vt 0.198297 0.767738
vt 0.000389 0.767536
vt 0.000264 0.751326
vt 0.198522 0.751684
vt 0.327469 0.757812
vt 0.000318 0.848593
vt 0.662948 0.770777
vt 0.662841 0.786780
vt 0.464894 0.786781
vt 0.465041 0.770575
vt 0.806980 0.820258
vt 0.804408 0.809698
vt 0.821543 0.804933
vt 0.819461 0.826485
vt 0.819461 0.747075
vt 0.821543 0.768627
vt 0.804408 0.763863
vt 0.806980 0.753303
vt 0.808495 0.786780
vt 0.801728 0.774031
vt 0.801728 0.799530
vt 0.791079 0.786780
vt 0.790355 0.773690
vt 0.663576 0.738592
vt 0.663173 0.754723
vt 0.464915 0.754364
vt 0.465082 0.738153
vt 0.792120 0.760851
vt 0.790355 0.799871
vt 0.795874 0.747161
vt 0.663576 0.834969
vt 0.664066 0.851246
vt 0.464969 0.851631
vt 0.465082 0.835408
vt 0.664066 0.722315
vt 0.805394 0.731562
vt 0.805394 0.841999
vt 0.795874 0.826400
vt 0.662948 0.802784
vt 0.663173 0.818838
vt 0.464915 0.819197
vt 0.465041 0.802986
vt 0.792120 0.812710
vt 0.464969 0.721930
vt 0.563858 0.949940
vt 0.465053 0.950241
vt 0.464894 0.933750
vt 0.563741 0.933750
vt 0.709700 0.899868
vt 0.722333 0.893568
vt 0.724436 0.915380
vt 0.707095 0.910555
vt 0.722333 0.973932
vt 0.709700 0.967631
vt 0.707095 0.956944
vt 0.724436 0.952119
vt 0.704381 0.946653
vt 0.711229 0.933750
vt 0.704381 0.920846
vt 0.692870 0.946999
vt 0.693603 0.933750
vt 0.564530 0.982524
vt 0.465217 0.983240
vt 0.464979 0.966739
vt 0.564097 0.966190
vt 0.694658 0.959994
vt 0.692870 0.920501
vt 0.698460 0.973850
vt 0.564530 0.884975
vt 0.465217 0.884259
vt 0.465190 0.867742
vt 0.565053 0.868463
vt 0.565053 0.999036
vt 0.708099 0.989636
vt 0.698460 0.893650
vt 0.708099 0.877863
vt 0.563858 0.917560
vt 0.465053 0.917258
vt 0.464979 0.900760
vt 0.564097 0.901309
vt 0.694658 0.907505
vt 0.465190 0.999757
vt 0.099207 0.914521
vt 0.099091 0.930711
vt 0.000243 0.930711
vt 0.000402 0.914219
vt 0.245049 0.964592
vt 0.242444 0.953905
vt 0.259785 0.949081
vt 0.257682 0.970893
vt 0.257682 0.890529
vt 0.259785 0.912341
vt 0.242444 0.907517
vt 0.245049 0.896830
vt 0.246578 0.930711
vt 0.239730 0.917807
vt 0.239730 0.943615
vt 0.228952 0.930711
vt 0.228219 0.917462
vt 0.099880 0.881937
vt 0.099447 0.898271
vt 0.000328 0.897721
vt 0.000566 0.881221
vt 0.230007 0.904467
vt 0.228219 0.943960
vt 0.233809 0.890611
vt 0.099880 0.979486
vt 0.100402 0.995998
vt 0.000539 0.996719
vt 0.000566 0.980202
vt 0.100402 0.865425
vt 0.243448 0.874825
vt 0.243448 0.986598
vt 0.233809 0.970811
vt 0.099207 0.946901
vt 0.099447 0.963152
vt 0.000328 0.963701
vt 0.000402 0.947203
vt 0.230007 0.956955
vt 0.000539 0.864703
vt 0.742063 0.690110
vt 0.739306 0.670550
vt 0.763543 0.664694
vt 0.768750 0.680360
vt 0.738046 0.652152
vt 0.761172 0.649703
vt 0.772124 0.648898
vt 0.776240 0.660435
vt 0.780094 0.672954
vt 0.795839 0.653079
vt 0.796191 0.678719
vt 0.779109 0.633947
vt 0.795839 0.614815
vt 0.772124 0.618996
vt 0.776240 0.607459
vt 0.796191 0.589175
vt 0.780094 0.594940
vt 0.638223 0.652855
vt 0.638020 0.633947
vt 0.660222 0.633947
vt 0.660278 0.652603
vt 0.739306 0.597345
vt 0.660192 0.596605
vt 0.659980 0.577732
vt 0.742063 0.577784
vt 0.638158 0.577967
vt 0.637252 0.559706
vt 0.659356 0.558678
vt 0.638345 0.671543
vt 0.660192 0.671289
vt 0.659980 0.690163
vt 0.638158 0.689927
vt 0.738046 0.615742
vt 0.660278 0.615291
vt 0.501184 0.588626
vt 0.500112 0.573338
vt 0.499808 0.633947
vt 0.500271 0.618891
vt 0.638223 0.615039
vt 0.500723 0.603845
vt 0.638345 0.596352
vt 0.637252 0.708188
vt 0.500112 0.694556
vt 0.501184 0.679269
vt 0.500271 0.649003
vt 0.500723 0.664049
vt 0.746291 0.712002
vt 0.659356 0.709216
vt 0.763543 0.603200
vt 0.768750 0.587534
vt 0.761172 0.618191
vt 0.782334 0.699098
vt 0.782334 0.568796
vt 0.746291 0.555892
vt 0.762063 0.633947
vt 0.737765 0.633947
vt 0.908803 0.702555
vt 0.883561 0.701941
vt 0.902840 0.733063
vt 0.915989 0.734384
vt 0.901027 0.670549
vt 0.865529 0.670732
vt 0.938434 0.673996
vt 0.934380 0.704003
vt 0.927173 0.734098
vt 0.945717 0.705433
vt 0.949502 0.676303
vt 0.850929 0.681095
vt 0.872534 0.715019
vt 0.919703 0.748212
vt 0.934902 0.750910
vt 0.941155 0.733761
vt 0.895644 0.741410
vt 0.908812 0.758634
vt 0.856366 0.746890
vt 0.888748 0.757181
vt 0.976723 0.715652
vt 0.988649 0.671234
vt 0.953634 0.741580
vt 0.817340 0.719718
vt 0.936550 0.650391
vt 0.896361 0.645349
vt 0.950392 0.653670
vt 0.836846 0.658674
vt 0.796925 0.700480
vt 0.855663 0.645829
vt 0.992816 0.645349
vt 0.908803 0.900835
vt 0.915989 0.932665
vt 0.902840 0.931344
vt 0.883561 0.900222
vt 0.901027 0.868830
vt 0.865529 0.869012
vt 0.938434 0.872277
vt 0.934380 0.902284
vt 0.927173 0.932379
vt 0.949502 0.874583
vt 0.945718 0.903713
vt 0.872534 0.913300
vt 0.850929 0.879375
vt 0.941155 0.932042
vt 0.934902 0.949191
vt 0.919703 0.946493
vt 0.908812 0.956914
vt 0.895644 0.939691
vt 0.888748 0.955461
vt 0.856366 0.945171
vt 0.988649 0.869514
vt 0.976723 0.913933
vt 0.953634 0.939861
vt 0.817340 0.917999
vt 0.896361 0.843629
vt 0.936550 0.848672
vt 0.950392 0.851950
vt 0.796925 0.898761
vt 0.836846 0.856955
vt 0.855663 0.844110
vt 0.992816 0.843629
s 1
usemtl material
f 282/43/157 225/44/158 227/45/159
f 282/43/157 227/45/159 285/46/160
f 227/45/159 225/44/158 228/47/161
f 227/45/159 228/47/161 230/48/162
f 230/48/162 228/47/161 231/49/163
f 230/48/162 231/49/163 233/50/164
f 233/50/164 231/49/163 294/51/165
f 233/50/164 294/51/165 297/52/166
f 282/43/157 298/53/167 228/47/161
f 282/43/157 228/47/161 225/44/158
f 284/54/168 226/55/159 234/56/169
f 284/54/168 234/56/169 299/57/170
f 228/47/161 298/53/167 294/51/165
f 228/47/161 294/51/165 231/49/163
f 237/58/171 239/59/172 235/60/173
f 237/58/171 235/60/173 236/61/174
f 236/61/174 235/60/173 246/62/175
f 236/61/174 246/62/175 247/63/176
f 303/64/177 237/58/171 238/65/178
f 303/64/177 238/65/178 305/66/179
f 299/57/170 234/56/169 239/59/172
f 299/57/170 239/59/172 308/67/180
f 305/66/179 238/65/178 240/68/181
f 305/66/179 240/68/181 309/69/182
f 309/69/182 240/68/181 242/70/183
f 309/69/182 242/70/183 312/71/184
f 232/72/164 295/73/185 319/74/186
f 232/72/164 319/74/186 245/75/187
f 229/76/162 232/72/164 245/75/187
f 229/76/162 245/75/187 244/77/188
f 226/55/159 229/76/162 244/77/188
f 226/55/159 244/77/188 243/78/189
f 239/59/172 237/58/171 303/64/177
f 239/59/172 303/64/177 308/67/180
f 247/63/176 246/62/175 248/79/190
f 247/63/176 248/79/190 250/80/191
f 240/68/181 247/63/176 250/80/191
f 240/68/181 250/80/191 242/70/183
f 238/65/178 236/61/174 247/63/176
f 238/65/178 247/63/176 240/68/181
f 236/61/174 238/65/178 237/58/171
f 235/60/173 239/59/172 234/56/169
f 235/60/173 234/56/169 251/81/192
f 234/56/169 226/55/159 243/78/189
f 234/56/169 243/78/189 251/81/192
f 235/60/173 251/81/192 246/62/175
f 246/62/175 251/81/192 243/78/189
f 246/62/175 243/78/189 248/79/190
f 248/79/190 243/78/189 244/77/188
f 248/79/190 244/77/188 254/82/193
f 245/75/187 319/74/186 331/83/194
f 245/75/187 331/83/194 253/84/195
f 250/80/191 248/79/190 256/85/196
f 253/84/195 256/85/196 254/82/193
f 253/84/195 254/82/193 245/75/187
f 244/77/188 245/75/187 254/82/193
f 345/86/197 262/87/198 257/88/199
f 345/86/197 257/88/199 335/89/200
f 259/90/201 260/91/202 267/92/203
f 259/90/201 267/92/203 266/93/204
f 262/87/198 241/94/205 249/95/191
f 262/87/198 249/95/191 263/96/206
f 263/96/206 249/95/191 255/97/196
f 263/96/206 255/97/196 265/98/207
f 265/98/207 255/97/196 252/99/195
f 265/98/207 252/99/195 264/100/208
f 264/100/208 252/99/195 329/101/209
f 264/100/208 329/101/209 349/102/210
f 261/103/211 264/100/208 349/102/210
f 261/103/211 349/102/210 343/104/212
f 260/91/202 265/98/207 264/100/208
f 260/91/202 264/100/208 261/103/211
f 259/90/201 263/96/206 265/98/207
f 259/90/201 265/98/207 260/91/202
f 257/88/199 262/87/198 263/96/206
f 257/88/199 263/96/206 259/90/201
f 311/105/184 241/94/205 262/87/198
f 311/105/184 262/87/198 345/86/197
f 260/91/202 261/103/211 268/106/213
f 260/91/202 268/106/213 267/92/203
f 257/88/199 259/90/201 266/93/204
f 257/88/199 266/93/204 258/107/214
f 261/103/211 343/104/212 355/108/215
f 261/103/211 355/108/215 268/106/213
f 335/89/200 257/88/199 258/107/214
f 335/89/200 258/107/214 338/109/216
f 274/110/217 273/111/218 270/112/219
f 274/110/217 270/112/219 269/113/220
f 273/111/218 275/114/221 271/115/222
f 273/111/218 271/115/222 270/112/219
f 275/114/221 276/116/223 272/117/224
f 275/114/221 272/117/224 271/115/222
f 276/116/223 368/118/225 362/119/226
f 276/116/223 362/119/226 272/117/224
f 369/120/227 274/110/217 269/113/220
f 369/120/227 269/113/220 357/121/228
f 338/109/216 258/107/214 274/110/217
f 338/109/216 274/110/217 369/120/227
f 268/106/213 355/108/215 368/118/225
f 268/106/213 368/118/225 276/116/223
f 267/92/203 268/106/213 276/116/223
f 267/92/203 276/116/223 275/114/221
f 266/93/204 267/92/203 275/114/221
f 266/93/204 275/114/221 273/111/218
f 258/107/214 266/93/204 273/111/218
f 258/107/214 273/111/218 274/110/217
f 271/115/222 272/117/224 280/122/229
f 271/115/222 280/122/229 279/123/230
f 357/121/228 269/113/220 277/124/231
f 357/121/228 277/124/231 371/125/232
f 272/117/224 362/119/226 376/126/233
f 272/117/224 376/126/233 280/122/229
f 269/113/220 270/112/219 278/127/234
f 269/113/220 278/127/234 277/124/231
f 270/112/219 271/115/222 279/123/230
f 270/112/219 279/123/230 278/127/234
f 277/124/231 281/128/235 378/129/236
f 277/124/231 378/129/236 371/125/232
f 279/123/230 280/122/229 281/128/235
f 256/85/196 248/79/190 254/82/193
f 278/127/234 281/128/235 277/124/231
f 378/129/236 281/128/235 280/122/229
f 378/129/236 280/122/229 376/126/233
f 281/128/235 278/127/234 279/123/230
f 282/43/157 285/46/160 287/130/237
f 282/43/157 287/130/237 283/131/238
f 287/130/237 290/132/239 288/133/240
f 287/130/237 288/133/240 283/131/238
f 290/132/239 293/134/241 291/135/242
f 290/132/239 291/135/242 288/133/240
f 293/134/241 297/52/166 294/51/165
f 293/134/241 294/51/165 291/135/242
f 282/43/157 283/131/238 288/133/240
f 282/43/157 288/133/240 298/53/167
f 284/54/168 299/57/170 300/136/243
f 284/54/168 300/136/243 286/137/237
f 288/133/240 291/135/242 294/51/165
f 288/133/240 294/51/165 298/53/167
f 304/138/244 302/139/245 301/140/246
f 304/138/244 301/140/246 307/141/247
f 302/139/245 321/142/248 320/143/249
f 302/139/245 320/143/249 301/140/246
f 303/64/177 305/66/179 306/144/250
f 303/64/177 306/144/250 304/138/244
f 299/57/170 308/67/180 307/141/247
f 299/57/170 307/141/247 300/136/243
f 305/66/179 309/69/182 310/145/251
f 305/66/179 310/145/251 306/144/250
f 309/69/182 312/71/184 314/146/252
f 309/69/182 314/146/252 310/145/251
f 292/147/241 317/148/253 318/149/186
f 292/147/241 318/149/186 296/150/254
f 289/151/239 316/152/255 317/148/253
f 289/151/239 317/148/253 292/147/241
f 286/137/237 315/153/256 316/152/255
f 286/137/237 316/152/255 289/151/239
f 307/141/247 308/67/180 303/64/177
f 307/141/247 303/64/177 304/138/244
f 321/142/248 324/154/257 322/155/258
f 321/142/248 322/155/258 320/143/249
f 310/145/251 314/146/252 324/154/257
f 310/145/251 324/154/257 321/142/248
f 306/144/250 310/145/251 321/142/248
f 306/144/250 321/142/248 302/139/245
f 302/139/245 304/138/244 306/144/250
f 301/140/246 325/156/259 300/136/243
f 301/140/246 300/136/243 307/141/247
f 300/136/243 325/156/259 315/153/256
f 300/136/243 315/153/256 286/137/237
f 301/140/246 320/143/249 325/156/259
f 320/143/249 322/155/258 315/153/256
f 320/143/249 315/153/256 325/156/259
f 322/155/258 328/157/260 316/152/255
f 322/155/258 316/152/255 315/153/256
f 317/148/253 327/158/261 332/159/262
f 317/148/253 332/159/262 318/149/186
f 324/154/257 334/160/263 322/155/258
f 327/158/261 317/148/253 328/157/260
f 327/158/261 328/157/260 334/160/263
f 316/152/255 328/157/260 317/148/253
f 345/86/197 335/89/200 336/161/264
f 345/86/197 336/161/264 344/162/265
f 339/163/266 351/164/267 352/165/268
f 339/163/266 352/165/268 340/166/269
f 344/162/265 346/167/270 323/168/257
f 344/162/265 323/168/257 313/169/271
f 346/167/270 350/170/272 333/171/263
f 346/167/270 333/171/263 323/168/257
f 350/170/272 347/172/273 326/173/261
f 350/170/272 326/173/261 333/171/263
f 347/172/273 348/174/210 330/175/209
f 347/172/273 330/175/209 326/173/261
f 341/176/274 342/177/275 348/174/210
f 341/176/274 348/174/210 347/172/273
f 340/166/269 341/176/274 347/172/273
f 340/166/269 347/172/273 350/170/272
f 339/163/266 340/166/269 350/170/272
f 339/163/266 350/170/272 346/167/270
f 336/161/264 339/163/266 346/167/270
f 336/161/264 346/167/270 344/162/265
f 311/105/184 345/86/197 344/162/265
f 311/105/184 344/162/265 313/169/271
f 340/166/269 352/165/268 353/178/276
f 340/166/269 353/178/276 341/176/274
f 336/161/264 337/179/277 351/164/267
f 336/161/264 351/164/267 339/163/266
f 341/176/274 353/178/276 354/180/215
f 341/176/274 354/180/215 342/177/275
f 335/89/200 338/109/216 337/179/277
f 335/89/200 337/179/277 336/161/264
f 364/181/278 356/182/279 358/183/280
f 364/181/278 358/183/280 363/184/281
f 363/184/281 358/183/280 359/185/282
f 363/184/281 359/185/282 365/186/283
f 365/186/283 359/185/282 360/187/284
f 365/186/283 360/187/284 366/188/285
f 366/188/285 360/187/284 361/189/226
f 366/188/285 361/189/226 367/190/225
f 369/120/227 357/121/228 356/182/279
f 369/120/227 356/182/279 364/181/278
f 338/109/216 369/120/227 364/181/278
f 338/109/216 364/181/278 337/179/277
f 353/178/276 366/188/285 367/190/225
f 353/178/276 367/190/225 354/180/215
f 352/165/268 365/186/283 366/188/285
f 352/165/268 366/188/285 353/178/276
f 351/164/267 363/184/281 365/186/283
f 351/164/267 365/186/283 352/165/268
f 337/179/277 364/181/278 363/184/281
f 337/179/277 363/184/281 351/164/267
f 359/185/282 373/191/286 374/192/287
f 359/185/282 374/192/287 360/187/284
f 357/121/228 371/125/232 370/193/288
f 357/121/228 370/193/288 356/182/279
f 360/187/284 374/192/287 375/194/289
f 360/187/284 375/194/289 361/189/226
f 356/182/279 370/193/288 372/195/290
f 356/182/279 372/195/290 358/183/280
f 358/183/280 372/195/290 373/191/286
f 358/183/280 373/191/286 359/185/282
f 370/193/288 371/125/232 377/196/236
f 370/193/288 377/196/236 379/197/291
f 373/191/286 379/197/291 374/192/287
f 334/160/263 328/157/260 322/155/258
f 372/195/290 370/193/288 379/197/291
f 377/196/236 375/194/289 374/192/287
f 377/196/236 374/192/287 379/197/291
f 379/197/291 373/191/286 372/195/290
f 414/198/292 396/199/292 401/200/293
f 414/198/292 401/200/293 413/201/293
f 381/202/294 388/203/295 403/204/296
f 381/202/294 403/204/296 384/205/297
f 387/206/295 383/207/298 390/208/299
f 387/206/295 390/208/299 402/209/296
f 402/209/296 390/208/299 382/210/300
f 402/209/296 382/210/300 392/211/301
f 384/205/297 403/204/296 392/211/301
f 384/205/297 392/211/301 380/212/302
f 382/210/300 391/213/303 404/214/304
f 382/210/300 404/214/304 392/211/301
f 415/215/305 395/216/305 400/217/306
f 415/215/305 400/217/306 412/218/306
f 412/218/306 414/198/292 391/213/303
f 412/218/306 391/213/303 405/219/307
f 392/211/301 404/214/304 393/220/308
f 392/211/301 393/220/308 380/212/302
f 383/207/298 389/221/309 405/219/307
f 383/207/298 405/219/307 390/208/299
f 416/222/310 394/223/310 399/224/311
f 416/222/310 399/224/311 411/225/311
f 410/226/311 415/215/305 389/221/309
f 410/226/311 389/221/309 406/227/312
f 390/208/299 405/219/307 391/213/303
f 390/208/299 391/213/303 382/210/300
f 381/202/294 386/228/313 407/229/312
f 381/202/294 407/229/312 388/203/295
f 417/230/314 385/231/314 397/232/315
f 417/230/314 397/232/315 409/233/315
f 409/233/315 416/222/310 386/228/313
f 409/233/315 386/228/313 408/234/316
f 387/206/295 406/227/312 389/221/309
f 387/206/295 389/221/309 383/207/298
f 380/212/302 393/220/308 408/234/316
f 380/212/302 408/234/316 384/205/297
f 384/205/297 408/234/316 386/228/313
f 384/205/297 386/228/313 381/202/294
f 386/228/313 416/222/310 411/225/311
f 386/228/313 411/225/311 407/229/312
f 400/217/306 396/199/292 414/198/292
f 400/217/306 414/198/292 412/218/306
f 413/201/293 417/230/314 393/220/308
f 413/201/293 393/220/308 404/214/304
f 401/200/293 385/231/314 417/230/314
f 401/200/293 417/230/314 413/201/293
f 397/232/315 394/223/310 416/222/310
f 397/232/315 416/222/310 409/233/315
f 393/220/308 417/230/314 409/233/315
f 393/220/308 409/233/315 408/234/316
f 389/221/309 415/215/305 412/218/306
f 389/221/309 412/218/306 405/219/307
f 398/235/311 395/216/305 415/215/305
f 398/235/311 415/215/305 410/226/311
f 391/213/303 414/198/292 413/201/293
f 391/213/303 413/201/293 404/214/304
f 452/236/314 451/237/293 439/238/293
f 452/236/314 439/238/293 434/239/314
f 419/240/298 422/241/299 440/242/296
f 419/240/298 440/242/296 426/243/295
f 425/244/295 441/245/296 428/246/297
f 425/244/295 428/246/297 421/247/294
f 441/245/296 430/248/301 420/249/302
f 441/245/296 420/249/302 428/246/297
f 422/241/299 418/250/300 430/248/301
f 422/241/299 430/248/301 440/242/296
f 420/249/302 430/248/301 442/251/304
f 420/249/302 442/251/304 429/252/308
f 453/253/310 450/254/315 438/255/315
f 453/253/310 438/255/315 433/256/310
f 450/254/315 443/257/316 429/252/308
f 450/254/315 429/252/308 452/236/314
f 430/248/301 418/250/300 431/258/303
f 430/248/301 431/258/303 442/251/304
f 421/247/294 428/246/297 443/257/316
f 421/247/294 443/257/316 427/259/313
f 454/260/305 448/261/311 436/262/311
f 454/260/305 436/262/311 432/263/305
f 449/264/311 445/265/312 427/259/313
f 449/264/311 427/259/313 453/253/310
f 428/246/297 420/249/302 429/252/308
f 428/246/297 429/252/308 443/257/316
f 419/240/298 426/243/295 444/266/312
f 419/240/298 444/266/312 424/267/309
f 455/268/292 447/269/306 435/270/306
f 455/268/292 435/270/306 423/271/292
f 447/269/306 446/272/307 424/267/309
f 447/269/306 424/267/309 454/260/305
f 425/244/295 421/247/294 427/259/313
f 425/244/295 427/259/313 445/265/312
f 418/250/300 422/241/299 446/272/307
f 418/250/300 446/272/307 431/258/303
f 422/241/299 419/240/298 424/267/309
f 422/241/299 424/267/309 446/272/307
f 424/267/309 444/266/312 448/261/311
f 424/267/309 448/261/311 454/260/305
f 438/255/315 450/254/315 452/236/314
f 438/255/315 452/236/314 434/239/314
f 451/237/293 442/251/304 431/258/303
f 451/237/293 431/258/303 455/268/292
f 439/238/293 451/237/293 455/268/292
f 439/238/293 455/268/292 423/271/292
f 435/270/306 447/269/306 454/260/305
f 435/270/306 454/260/305 432/263/305
f 431/258/303 446/272/307 447/269/306
f 431/258/303 447/269/306 455/268/292
f 427/259/313 443/257/316 450/254/315
f 427/259/313 450/254/315 453/253/310
f 437/273/311 449/264/311 453/253/310
f 437/273/311 453/253/310 433/256/310
f 429/252/308 442/251/304 451/237/293
f 429/252/308 451/237/293 452/236/314
f 490/274/292 472/275/292 477/276/293
f 490/274/292 477/276/293 489/277/293
f 457/278/294 464/279/295 479/280/296
f 457/278/294 479/280/296 460/281/297
f 463/282/295 459/283/298 466/284/299
f 463/282/295 466/284/299 478/285/296
f 478/285/296 466/284/299 458/286/300
f 478/285/296 458/286/300 468/287/301
f 460/281/297 479/280/296 468/287/301
f 460/281/297 468/287/301 456/288/302
f 458/286/300 467/289/303 480/290/304
f 458/286/300 480/290/304 468/287/301
f 491/291/305 471/292/305 476/293/306
f 491/291/305 476/293/306 488/294/306
f 488/294/306 490/274/292 467/289/303
f 488/294/306 467/289/303 481/295/307
f 468/287/301 480/290/304 469/296/308
f 468/287/301 469/296/308 456/288/302
f 459/283/298 465/297/309 481/295/307
f 459/283/298 481/295/307 466/284/299
f 492/298/310 470/299/310 475/300/311
f 492/298/310 475/300/311 487/301/311
f 486/302/311 491/291/305 465/297/309
f 486/302/311 465/297/309 482/303/312
f 466/284/299 481/295/307 467/289/303
f 466/284/299 467/289/303 458/286/300
f 457/278/294 462/304/313 483/305/312
f 457/278/294 483/305/312 464/279/295
f 493/306/314 461/307/314 473/308/315
f 493/306/314 473/308/315 485/309/315
f 485/309/315 492/298/310 462/304/313
f 485/309/315 462/304/313 484/310/316
f 463/282/295 482/303/312 465/297/309
f 463/282/295 465/297/309 459/283/298
f 456/288/302 469/296/308 484/310/316
f 456/288/302 484/310/316 460/281/297
f 460/281/297 484/310/316 462/304/313
f 460/281/297 462/304/313 457/278/294
f 462/304/313 492/298/310 487/301/311
f 462/304/313 487/301/311 483/305/312
f 476/293/306 472/275/292 490/274/292
f 476/293/306 490/274/292 488/294/306
f 489/277/293 493/306/314 469/296/308
f 489/277/293 469/296/308 480/290/304
f 477/276/293 461/307/314 493/306/314
f 477/276/293 493/306/314 489/277/293
f 473/308/315 470/299/310 492/298/310
f 473/308/315 492/298/310 485/309/315
f 469/296/308 493/306/314 485/309/315
f 469/296/308 485/309/315 484/310/316
f 465/297/309 491/291/305 488/294/306
f 465/297/309 488/294/306 481/295/307
f 474/311/311 471/292/305 491/291/305
f 474/311/311 491/291/305 486/302/311
f 467/289/303 490/274/292 489/277/293
f 467/289/303 489/277/293 480/290/304
f 528/312/314 527/313/293 515/314/293
f 528/312/314 515/314/293 510/315/314
f 495/316/298 498/317/299 516/318/296
f 495/316/298 516/318/296 502/319/295
f 501/320/295 517/321/296 504/322/297
f 501/320/295 504/322/297 497/323/294
f 517/321/296 506/324/301 496/325/302
f 517/321/296 496/325/302 504/322/297
f 498/317/299 494/326/300 506/324/301
f 498/317/299 506/324/301 516/318/296
f 496/325/302 506/324/301 518/327/304
f 496/325/302 518/327/304 505/328/308
f 529/329/310 526/330/315 514/331/315
f 529/329/310 514/331/315 509/332/310
f 526/330/315 519/333/316 505/328/308
f 526/330/315 505/328/308 528/312/314
f 506/324/301 494/326/300 507/334/303
f 506/324/301 507/334/303 518/327/304
f 497/323/294 504/322/297 519/333/316
f 497/323/294 519/333/316 503/335/313
f 530/336/305 525/337/311 513/338/311
f 530/336/305 513/338/311 508/339/305
f 524/340/311 520/341/312 503/335/313
f 524/340/311 503/335/313 529/329/310
f 504/322/297 496/325/302 505/328/308
f 504/322/297 505/328/308 519/333/316
f 495/316/298 502/319/295 521/342/312
f 495/316/298 521/342/312 500/343/309
f 531/344/292 523/345/306 511/346/306
f 531/344/292 511/346/306 499/347/292
f 523/345/306 522/348/307 500/343/309
f 523/345/306 500/343/309 530/336/305
f 501/320/295 497/323/294 503/335/313
f 501/320/295 503/335/313 520/341/312
f 494/326/300 498/317/299 522/348/307
f 494/326/300 522/348/307 507/334/303
f 498/317/299 495/316/298 500/343/309
f 498/317/299 500/343/309 522/348/307
f 500/343/309 521/342/312 525/337/311
f 500/343/309 525/337/311 530/336/305
f 514/331/315 526/330/315 528/312/314
f 514/331/315 528/312/314 510/315/314
f 527/313/293 518/327/304 507/334/303
f 527/313/293 507/334/303 531/344/292
f 515/314/293 527/313/293 531/344/292
f 515/314/293 531/344/292 499/347/292
f 511/346/306 523/345/306 530/336/305
f 511/346/306 530/336/305 508/339/305
f 507/334/303 522/348/307 523/345/306
f 507/334/303 523/345/306 531/344/292
f 503/335/313 519/333/316 526/330/315
f 503/335/313 526/330/315 529/329/310
f 512/349/311 524/340/311 529/329/310
f 512/349/311 529/329/310 509/332/310
f 505/328/308 518/327/304 527/313/293
f 505/328/308 527/313/293 528/312/314
f 538/350/317 564/351/318 572/352/319
f 538/350/317 572/352/319 558/353/320
f 564/351/318 536/354/321 545/355/322
f 564/351/318 545/355/322 572/352/319
f 572/352/319 545/355/322 533/356/323
f 572/352/319 533/356/323 546/357/324
f 558/353/320 572/352/319 546/357/324
f 558/353/320 546/357/324 532/358/325
f 532/358/325 546/357/324 573/359/326
f 532/358/325 573/359/326 547/360/327
f 546/357/324 533/356/323 549/361/328
f 546/357/324 549/361/328 573/359/326
f 574/362/326 549/361/328 535/363/329
f 574/362/326 535/363/329 550/364/330
f 548/365/331 574/362/326 550/364/330
f 548/365/331 550/364/330 534/366/332
f 542/367/333 571/368/334 553/369/335
f 542/367/333 553/369/335 587/370/336
f 560/371/337 565/372/338 581/373/339
f 560/371/337 581/373/339 537/374/340
f 543/375/341 569/376/342 557/377/343
f 543/375/341 557/377/343 581/373/339
f 567/378/344 566/379/345 580/380/346
f 567/378/344 580/380/346 540/381/347
f 539/382/348 579/383/349 565/372/338
f 539/382/348 565/372/338 560/371/337
f 542/367/333 587/370/336 566/379/345
f 542/367/333 566/379/345 567/378/344
f 555/384/350 577/385/351 569/376/342
f 555/384/350 569/376/342 543/375/341
f 571/368/334 578/386/352 552/387/353
f 571/368/334 552/387/353 541/388/354
f 541/388/354 552/387/353 575/389/355
f 541/388/354 575/389/355 568/390/356
f 570/391/342 576/392/357 544/393/358
f 570/391/342 544/393/358 540/381/347
f 554/394/359 542/367/333 567/378/344
f 554/394/359 567/378/344 582/395/360
f 568/390/356 575/389/355 555/384/350
f 568/390/356 555/384/350 543/375/341
f 561/396/361 556/397/343 580/380/346
f 561/396/361 580/380/346 538/350/317
f 587/370/336 536/354/321 564/351/318
f 587/370/336 564/351/318 566/379/345
f 534/366/332 550/364/330 583/398/362
f 534/366/332 583/398/362 551/399/363
f 550/364/330 535/363/329 559/400/364
f 550/364/330 559/400/364 583/398/362
f 583/398/362 559/400/364 539/382/348
f 583/398/362 539/382/348 560/371/337
f 551/399/363 583/398/362 560/371/337
f 551/399/363 560/371/337 537/374/340
f 532/358/325 547/360/327 585/401/365
f 532/358/325 585/401/365 558/353/320
f 548/365/331 534/366/332 551/399/363
f 548/365/331 551/399/363 584/402/366
f 584/402/366 551/399/363 537/374/340
f 584/402/366 537/374/340 562/403/361
f 558/353/320 585/401/365 561/396/361
f 558/353/320 561/396/361 538/350/317
f 535/363/329 549/361/328 586/404/367
f 535/363/329 586/404/367 559/400/364
f 549/361/328 533/356/323 545/355/322
f 549/361/328 545/355/322 586/404/367
f 586/404/367 545/355/322 536/354/321
f 586/404/367 536/354/321 563/405/368
f 559/400/364 586/404/367 563/405/368
f 559/400/364 563/405/368 539/382/348
f 579/383/349 541/388/354 568/390/356
f 579/383/349 568/390/356 565/372/338
f 566/379/345 564/351/318 538/350/317
f 566/379/345 538/350/317 580/380/346
f 582/395/360 567/378/344 540/381/347
f 582/395/360 540/381/347 544/393/358
f 563/405/368 553/369/335 579/383/349
f 563/405/368 579/383/349 539/382/348
f 581/373/339 557/377/343 562/403/361
f 581/373/339 562/403/361 537/374/340
f 565/372/338 568/390/356 543/375/341
f 565/372/338 543/375/341 581/373/339
f 587/370/336 553/369/335 563/405/368
f 587/370/336 563/405/368 536/354/321
f 556/397/343 570/391/342 540/381/347
f 556/397/343 540/381/347 580/380/346
f 554/394/359 578/386/352 571/368/334
f 554/394/359 571/368/334 542/367/333
f 553/369/335 571/368/334 541/388/354
f 553/369/335 541/388/354 579/383/349
f 596/406/369 593/407/370 591/408/371
f 596/406/369 591/408/371 611/409/372
f 594/410/373 589/411/374 593/407/370
f 594/410/373 593/407/370 596/406/369
f 588/412/375 594/410/373 596/406/369
f 588/412/375 596/406/369 592/413/376
f 592/413/376 596/406/369 611/409/372
f 592/413/376 611/409/372 590/414/377
f 588/412/375 592/413/376 601/415/378
f 588/412/375 601/415/378 597/416/379
f 593/407/370 589/411/374 598/417/380
f 593/407/370 598/417/380 602/418/381
f 590/414/377 595/419/382 604/420/383
f 590/414/377 604/420/383 599/421/384
f 595/419/382 591/408/371 600/422/385
f 595/419/382 600/422/385 603/423/386
f 592/413/376 590/414/377 599/421/384
f 592/413/376 599/421/384 601/415/378
f 591/408/371 593/407/370 602/418/381
f 591/408/371 602/418/381 600/422/385
f 602/418/381 609/424/387 607/425/388
f 602/418/381 607/425/388 600/422/385
f 601/415/378 610/426/387 606/427/389
f 601/415/378 606/427/389 597/416/379
f 603/423/386 600/422/385 607/425/388
f 608/428/388 610/426/387 601/415/378
f 608/428/388 601/415/378 599/421/384
f 605/429/389 609/424/387 602/418/381
f 605/429/389 602/418/381 598/417/380
f 608/428/388 599/421/384 604/420/383
f 590/414/377 611/409/372 595/419/382
f 611/409/372 591/408/371 595/419/382
f 594/410/373 588/412/375 612/430/390
f 594/410/373 612/430/390 614/431/391
f 588/412/375 597/416/379 615/432/392
f 588/412/375 615/432/392 612/430/390
f 605/429/389 598/417/380 616/433/393
f 605/429/389 616/433/393 617/434/394
f 589/411/374 594/410/373 614/431/391
f 589/411/374 614/431/391 613/435/395
f 598/417/380 589/411/374 613/435/395
f 598/417/380 613/435/395 616/433/393
f 597/416/379 606/427/389 618/436/394
f 597/416/379 618/436/394 615/432/392
f 627/437/396 642/438/397 622/439/398
f 627/437/396 622/439/398 624/440/399
f 625/441/400 627/437/396 624/440/399
f 625/441/400 624/440/399 620/442/401
f 619/443/402 623/444/403 627/437/396
f 619/443/402 627/437/396 625/441/400
f 623/444/403 621/445/404 642/438/397
f 623/444/403 642/438/397 627/437/396
f 619/443/402 628/446/405 632/447/406
f 619/443/402 632/447/406 623/444/403
f 624/440/399 633/448/407 629/449/408
f 624/440/399 629/449/408 620/442/401
f 621/445/404 630/450/409 635/451/410
f 621/445/404 635/451/410 626/452/411
f 626/452/411 634/453/412 631/454/413
f 626/452/411 631/454/413 622/439/398
f 623/444/403 632/447/406 630/450/409
f 623/444/403 630/450/409 621/445/404
f 622/439/398 631/454/413 633/448/407
f 622/439/398 633/448/407 624/440/399
f 633/448/407 631/454/413 638/455/414
f 633/448/407 638/455/414 640/456/415
f 632/447/406 628/446/405 637/457/416
f 632/447/406 637/457/416 641/458/415
f 634/453/412 638/455/414 631/454/413
f 639/459/414 630/450/409 632/447/406
f 639/459/414 632/447/406 641/458/415
f 636/460/416 629/449/408 633/448/407
f 636/460/416 633/448/407 640/456/415
f 639/459/414 635/451/410 630/450/409
f 621/445/404 626/452/411 642/438/397
f 642/438/397 626/452/411 622/439/398
f 625/441/400 645/461/417 643/462/418
f 625/441/400 643/462/418 619/443/402
f 619/443/402 643/462/418 646/463/419
f 619/443/402 646/463/419 628/446/405
f 636/460/416 648/464/420 647/465/421
f 636/460/416 647/465/421 629/449/408
f 620/442/401 644/466/422 645/461/417
f 620/442/401 645/461/417 625/441/400
f 629/449/408 647/465/421 644/466/422
f 629/449/408 644/466/422 620/442/401
f 628/446/405 646/463/419 649/467/420
f 628/446/405 649/467/420 637/457/416
